<?xml version="1.0" encoding="utf-8"?>
<!-- Generator: Adobe Illustrator 25.2.0, SVG Export Plug-In . SVG Version: 6.00 Build 0)  -->
<svg version="1.1" xmlns="http://www.w3.org/2000/svg" xmlns:xlink="http://www.w3.org/1999/xlink" x="0px" y="0px"
	 viewBox="0 0 1858.77 1417.32" style="enable-background:new 0 0 1858.77 1417.32;" xml:space="preserve">
<g id="bg">
	<g>
		<path d="M1540,1065.71c-0.75-1.84-1.49-3.68-2.2-5.42c0.32-0.37,0.46-0.6,0.66-0.77c0.6-0.53,1.82-0.74,1.36-1.88
			c-0.3-0.75-0.88-1.46-1.52-1.95c-0.39-0.3-1.13-0.2-1.71-0.18c-1.73,0.06-2.66-0.9-3.17-2.42c-0.09-0.28-0.26-0.57-0.23-0.84
			c0.87-6.18-2.79-10.72-6.17-14.95c-3.7-4.61-6.42-9.74-9.47-14.69c-1.68-2.73-2.94-5.67-5.37-7.92c-1.05-0.97-1.78-2.32-2.52-3.57
			c-2.38-4.05-5.32-7.64-8.54-11.05c-1.39-1.47-2.61-3.14-3.65-4.88c-3.29-5.52-6.47-11.1-9.66-16.68c-1.3-2.28-2.46-4.65-3.77-6.93
			c-1.31-2.28-2.59-4.58-4.11-6.71c-2.05-2.87-3.93-5.81-5.33-9.04c-1.05-2.41-2.19-4.77-3.18-7.2c-1.04-2.55-3.63-3.78-4.96-6.07
			c-1.03-1.77-2.17-3.47-3.2-5.24c-2.05-3.52-3.88-7.08-7.02-9.93c-2.1-1.92-3.44-4.69-5.04-7.14c-5.75-8.8-11.48-17.61-17.18-26.45
			c-0.94-1.46-1.68-3.04-2.52-4.56c-0.41-0.74-0.68-1.72-1.31-2.16c-3.25-2.24-5.13-5.59-7.18-8.77
			c-4.75-7.37-9.18-14.95-14.07-22.22c-6.69-9.93-12.53-20.4-19.45-30.2c-5.72-8.12-10.87-16.64-16.42-24.88
			c-2.92-4.34-5.7-8.79-8.95-12.92c-2.16-2.75-3.93-5.8-5.97-8.65c-8.83-12.39-16.75-25.35-24.11-38.65
			c-1.98-3.57-3.56-7.37-5.66-10.86c-1.96-3.24-4.52-6.12-6.55-9.32c-4.23-6.66-8.29-13.43-12.41-20.16
			c-9.46-15.45-18.97-30.87-28.34-46.37c-4.99-8.25-9.78-16.62-14.58-24.99c-1.46-2.56-3.09-4.88-5.26-6.92
			c-2.75-2.59-5.82-3.76-9.95-3.46c-0.75,0.81-1.63,1.94-2.7,2.85c-1.1,0.94-2.35,1.72-3.6,2.47c-0.98,0.59-2.05,1.47-3.08,1.46
			c-2.72-0.03-4.2,1.54-5.76,3.39c-1.11,1.31-2.46,2.77-4,3.29c-2.42,0.81-5.1,0.89-7.67,1.25c-0.25,0.03-0.53-0.2-0.81-0.28
			c-1.21-0.35-1.87-1.83-1.16-2.75c1.42-1.85,2.89-3.65,4.47-5.65c-0.55-0.58-1.12-1.7-1.64-1.68c-2.87,0.12-5.94-0.04-7.96,2.65
			c-1.1,1.47-2.61,2.66-4.24,2.94c-4.88,0.84-8.04,4.61-12.19,6.63c-1.04,2.04-3.24,2.35-5,3.28c-2.57,1.35-5.21,2.53-7.49,4.41
			c-1.08,0.89-2.51,1.48-3.87,1.86c-3.52,0.97-6.3,2.91-8.44,5.83l0.25-0.24c-0.56,0.02-1.23-0.15-1.64,0.11
			c-0.72,0.45-1.18,1.33-1.91,1.75c-3.78,2.14-7.6,4.22-11.44,6.25c-5.16,2.73-10.04,5.84-14.52,9.61c-1.54,1.3-3.3,2.4-5.12,3.26
			c-1.18,0.56-1.71,1.36-2.27,2.42c-1.8,3.37-4.71,5.08-8.52,5.12c-3.29,0.04-6.3,0.82-9.04,2.74c-1.17,0.82-2.5,1.47-3.84,1.98
			c-1.93,0.72-3.82,1.46-5.34,2.92c-0.42,0.41-0.84,0.93-1.36,1.09c-6.27,1.99-10.94,6.66-16.46,9.9
			c-3.51,2.06-7.62,3.07-10.61,6.02c-6.78,3.51-12.73,8.25-18.81,12.78c-10.1,7.52-20.61,14.43-31.17,21.27
			c-3.18,2.06-6.56,3.8-9.79,5.78c-1.48,0.91-2.97,1.89-4.21,3.09c-3.39,3.27-7.17,5.99-11.07,8.59
			c-9.98,6.65-19.83,13.51-29.93,19.97c-9.6,6.15-19.14,12.4-28.74,18.55c-3.68,2.36-7.61,4.45-11.67,6.06
			c-3.77,1.5-7.04,4.15-11.19,4.73c-0.53,0.07-1.24,0.41-1.46,0.84c-1.56,3.08-5.71,3-7.26,6.04c-5.56,4.27-11.3,8.33-16.64,12.87
			c-7.6,6.46-16.01,11.77-24.08,17.56c-7.59,5.46-15.09,11.03-22.19,17.13c-3.55,3.04-7.19,5.97-10.82,8.92
			c-0.9,0.74-1.83,1.62-2.9,1.95c-3.81,1.17-6.38,3.93-9.14,6.53c-1.9,1.79-3.97,3.46-6.15,4.9c-3.43,2.27-6.62,4.8-9.62,7.61
			c-1.91,1.79-3.98,3.5-6.23,4.83c-2.46,1.46-4.97,2.79-8.1,2.97c-3.19,0.19-6.26,1.43-8.33,4.24c-4.2,2.7-7.66,6.29-11.33,9.61
			c-2.6,2.35-5.34,4.57-8.16,6.66c-1.88,1.39-3.83,2.64-5.42,4.41c-0.97,1.08-2.06,2.18-3.33,2.83c-5.57,2.85-9.65,7.54-14.38,11.42
			c-2.7,2.21-5.1,4.81-8.41,6.21c-0.78,0.33-1.52,0.93-2.09,1.57c-4.9,5.52-11.39,9.11-16.92,13.87
			c-6.19,5.33-12.78,10.19-19.38,15.02c-13.25,9.69-25.55,20.49-37.69,31.49c-6.71,6.08-13.07,12.59-20.98,17.19
			c-2.65,2.78-5.74,4.89-9.3,6.39c-1.03,0.43-1.93,1.32-2.72,2.16c-5.04,5.35-10.81,9.78-16.92,13.82c-1.95,1.29-3.6,3.01-5.58,4.24
			c-1.97,1.22-4.15,2.06-5.43,4.19c-0.28,0.46-0.87,0.81-1.39,1.04c-5.98,2.66-10.34,7.56-15.61,11.19
			c-0.48,0.33-1.1,0.58-1.41,1.03c-3.86,5.7-10.15,8.77-14.72,13.7c-1.18,1.28-2.52,2.53-4.02,3.37
			c-7.39,4.16-13.69,10.01-21.35,13.71c-1.89,0.91-3.44,2.14-4.95,3.54c-4.08,3.77-8.2,7.5-12.37,11.17
			c-4.17,3.66-8.38,7.26-11.98,11.51c-1.13,1.33-2.47,2.49-3.79,3.65c-4.6,4.06-9.21,8.11-13.86,12.11
			c-1.77,1.52-3.55,3.08-5.53,4.3c-2.27,1.4-4.35,2.94-5.94,5.1c-0.34,0.47-0.73,0.98-1.21,1.25c-8.24,4.66-13.78,12.57-21.6,17.8
			c-4.33,2.9-7.7,7.16-12.44,9.61c-1.61,2.05-4.15,3.17-5.38,5.65c-0.63,1.26-1.82,2.28-2.91,3.25
			c-12.01,10.69-23.84,21.61-36.16,31.94c-8.75,7.35-16.89,15.22-24.46,23.74c-1.94,2.18-4.06,4.22-6.23,6.17
			c-5.63,5.07-10.37,11.02-15.99,16.1c-2.17,1.96-4.22,4.03-6.36,6.02c-4.92,4.58-10.1,8.89-14.64,13.87
			c-1.38,1.51-2.77,3.08-4.43,4.24c-4.11,2.87-7.41,6.58-10.95,10.05c-3.97,3.89-7.93,7.79-11.84,11.73
			c-2.88,2.9-5.21,6.31-8.54,8.79c-1.87,1.39-3.48,3.14-5.37,4.49c-4.32,3.08-7.94,6.86-11.26,10.95
			c-7.94,9.79-16.55,18.91-26.29,26.96c-3.15,2.6-6.02,5.56-8.9,8.46c-8.05,8.09-15.96,16.32-24.08,24.33
			c-3.35,3.3-6.24,6.96-9.29,10.52c-2.28,2.67-4.46,5.45-6.97,7.88c-5.41,5.25-12.02,7.14-19.38,5.8
			c-9.94-1.81-18.83-6.15-27.07-11.89c-1.18-0.82-2.32-1.84-3.17-2.99c-4.28-5.83-6.71-12.29-6.3-19.65
			c0.51-9.06,3.64-17.12,9.54-24c2.08-2.43,4.47-4.63,6.86-6.77c8.36-7.46,15.51-15.91,21.36-25.46c4.58-7.48,9.25-14.9,13.79-22.4
			c1.36-2.25,2.56-4.61,3.63-7.01c6.76-15.24,13.9-30.29,20.25-45.72c5.11-12.43,11.02-24.55,17.11-36.54
			c2.78-5.47,5.35-11.03,8.09-16.51c4.05-8.11,8.2-16.17,12.31-24.25c3.05-6,6.11-11.99,9.16-17.99c0.27-0.52,0.41-1.12,0.73-1.59
			c5.32-7.77,8.42-16.66,12.64-24.98c2.64-5.22,5.28-10.44,7.89-15.68c4.16-8.38,8.28-16.77,12.43-25.15
			c1.04-2.1,2.06-4.2,3.21-6.24c6.02-10.72,10.52-22.17,15.87-33.21c1.39-2.87,2.53-5.82,4.32-8.56c1.68-2.58,1.61-6.16,3.75-8.72
			c2.06-6.1,4.69-11.92,7.79-17.6c2.51-4.6,4.01-9.73,6.34-14.44c6.22-12.58,12.62-25.08,19-37.59
			c7.45-14.6,14.44-29.39,19.16-45.16c2.1-7.01,4.99-13.71,8.47-20.19c3.86-7.2,7.17-14.67,10.27-22.23
			c1.22-2.97,2.45-5.95,3.88-8.83c1.3-2.61,2.97-5.01,3.45-8.01c0.17-1.09,0.99-2.09,1.56-3.1c0.28-0.5,0.95-0.92,0.99-1.4
			c0.31-4.48,2.93-8.15,4.31-12.24c0.84-2.48,1.75-4.95,2.81-7.35c2.14-4.81,4.26-9.64,6.67-14.3c2.02-3.9,3.71-7.92,5.07-12.07
			c1.55-4.72,4.22-8.95,5.72-13.71c1.84-5.85,4.18-11.54,6.38-17.26c0.84-2.18,1.78-4.34,2.91-6.38c2.7-4.89,4.68-10.04,6.4-15.35
			c3.61-11.13,7.39-22.19,12.72-32.67c1.71-3.37,2.84-7.04,4.15-10.6c1.32-3.58,2.83-7.01,5.27-10.03c1.64-2.03,3.02-4.34,4.14-6.7
			c1.11-2.35,2.28-4.89,2.5-7.42c0.44-5.07,2.36-9.63,4.03-14.3c0.88-2.47,2.02-4.86,3.09-7.26c2.26-5.08,4.53-10.15,6.04-15.52
			c0.39-1.4,0.98-2.76,1.55-4.1c4.19-9.97,8.39-19.94,12.61-29.9c3.65-8.61,7.56-17.13,10.97-25.83
			c6.31-16.1,13.92-31.57,21.85-46.91c4.57-8.83,8.96-17.73,12.6-27.02c4.48-11.43,9.67-22.58,13.81-34.15
			c4.14-11.56,8.45-23.06,12.68-34.58c4.24-11.54,9.36-22.7,14.28-33.95c2.34-5.36,4.62-10.74,6.9-16.12
			c1.72-4.05,2.97-8.24,3.97-12.52c1.99-8.57,5.21-16.75,8.25-24.98c2.33-6.3,4.79-12.57,7.51-18.7c5.22-11.77,10.8-23.37,16-35.15
			c5.78-13.12,11.69-26.17,18.37-38.86c0.81-1.54,1.19-3.31,1.98-4.86c1.17-2.3,0.97-4.41-0.07-6.71c-1.04-2.32-2.39-3.77-5.09-4.15
			c-5.51-0.78-11.01-1.39-16.6-1.44c-10.24-0.08-20.49-0.93-30.7-0.52c-10.81,0.43-21.64-0.07-32.45,1.04
			c-8.43,0.86-16.93,1.12-25.43,0.62c-3.78-0.22-7.6-0.11-11.39,0.06c-7.9,0.36-15.78,0.49-23.64-0.65
			c-16.37-0.03-32.75-1.67-49.13,0.22c-5.22,0.6-10.52,0.69-15.78,0.7c-17.27,0.03-34.54-0.05-51.81-0.17
			c-6.14-0.05-12.29-0.39-18.43-0.53c-7-0.16-13.98-0.44-21.02-0.05c-9.63,0.54-19.31,0.19-28.97,0.04
			c-17.26-0.27-34.52-0.67-51.78-1.03c-1.46-0.03-2.98,0.07-4.37-0.28c-4.91-1.22-9.84-1.28-14.82-0.81
			c-1.45,0.14-2.93,0.05-4.38-0.03c-5.27-0.32-10.53-0.36-15.78,0.35c-3,0.4-5.83,0.14-8.23-2c-0.41-0.37-1.03-0.53-1.58-0.72
			c-2.38-0.8-4.89-0.79-6.47,1.21c-2.46,3.11-5.6,3.98-9.26,4.03c-6.74,0.09-13.5,0.32-20.16-0.78c-7.86-1.29-15.75-1.08-23.62-0.89
			c-7.01,0.17-14,0.82-21.01,1.18c-3.21,0.16-6.44,0.07-9.65,0.19c-5.26,0.21-10.52,0.52-15.78,0.77
			c-7.89,0.37-15.78,0.97-23.67,1.03c-6.73,0.05-13.45,0.12-20.14,0.75c-9.05,0.86-18.12,0.98-27.18,1.21
			c-4.1,0.11-8.19,0-12.19,1.18c-1.11,0.33-2.31,0.42-3.47,0.47c-8.49,0.39-16.85,1.79-25.22,3.11c-2.01,0.32-4.1,0.4-6.12,0.26
			c-1.4-0.1-2.97-0.47-4.11-1.24c-3.42-2.32-6.29-5.18-7.13-9.5c-0.45-2.29-1.04-4.57-1.35-6.88c-0.32-2.42,0.19-4.73,2.08-6.43
			c3.54-3.19,6.1-6.99,8-11.37c1.04-2.39,2.78-4.46,4.15-6.7c1.48-2.43,3.76-3.71,6.42-4.17c2.29-0.4,4.65-0.53,6.98-0.55
			c8.2-0.09,16.39-0.09,24.59-0.1c4.1-0.01,8.22,0.24,12.08-1.56c6.1-0.69,12.18-1.49,18.29-2.03c3.78-0.33,7.61-0.21,11.34-1.13
			c0.85-0.21,1.73-0.28,2.61-0.35c8.44-0.67,16.89-1.32,25.34-1.97c9.91-0.76,19.83-1.39,29.65-3.09c2-0.35,4.08-0.23,6.13-0.34
			c5.55-0.29,11.1-0.59,16.65-0.88c6.13-0.33,12.26-0.63,18.39-0.98c4.09-0.23,8.18-0.53,12.27-0.76
			c5.84-0.34,11.68-0.64,17.52-0.98c3.21-0.19,6.46-0.18,9.62-0.69c5.23-0.84,10.47-1,15.74-1.12c6.14-0.13,12.3-0.28,18.41-0.84
			c8.47-0.77,16.95-0.81,25.44-0.84c5.27-0.02,10.53-0.1,15.8-0.18c1.46-0.02,2.96,0.03,4.37-0.26c6.35-1.34,12.8-1.3,19.23-1.6
			c10.52-0.5,21.04-1.05,31.57-1.45c8.77-0.33,17.55-0.58,26.32-0.67c5.55-0.06,11.1,0.26,16.66,0.35c2.05,0.03,4.13,0.1,6.13-0.23
			c7.88-1.3,15.77-0.98,23.64-0.26c8.18,0.75,16.37,0.59,24.55,0.61c7.32,0.02,14.62,0.27,21.93,0.82c7,0.53,14.05,0.37,21.03,1.03
			c6.99,0.66,13.97,1.41,20.96,2.07c19.24,1.8,38.57,1.98,57.83,3.21c2.92,0.19,5.83,0.53,8.75,0.76c4.08,0.32,8.17,0.61,12.25,0.89
			c5.84,0.41,11.67,0.79,17.51,1.19c1.17,0.08,2.33,0.24,3.5,0.3c7.89,0.37,15.79,0.57,23.67,1.11c11.98,0.82,23.98,0.57,35.96,0.89
			c5.85,0.16,11.68,0.23,17.45,1.46c3.4,0.73,6.93,0.38,10.36,1.54c5.97,2.02,11.17,4.95,15.17,9.93c1.45,1.81,3.27,3.32,4.96,4.94
			c4.22,4.04,6.65,8.85,6.46,14.8c-0.09,2.92-0.2,5.85-0.33,8.77c-0.07,1.47-0.35,2.88-1.12,4.19c-0.42,0.72-0.97,1.7-0.78,2.37
			c1.01,3.68-0.57,6.89-1.52,10.24c-2.4,8.47-5.87,16.47-10.07,24.22c-3.35,6.16-6.33,12.53-9.23,18.91
			c-1.57,3.45-2.72,7.1-3.94,10.69c-2.17,6.37-4.54,12.64-8.06,18.43c-0.59,0.98-1.09,2.13-1.22,3.24
			c-0.31,2.68-1.31,5.08-2.52,7.43c-3.08,5.99-4.66,12.55-7.24,18.73c-0.34,0.8-0.37,1.78-0.84,2.48
			c-3.64,5.38-4.99,11.84-8.26,17.4c-1.03,1.75-1.95,3.63-2.52,5.57c-0.99,3.38-2.09,6.67-4.13,9.59c-0.49,0.7-0.83,1.58-0.99,2.43
			c-1.32,6.71-4.94,12.43-7.88,18.44c-0.38,0.78-0.97,1.52-1.15,2.35c-1.45,6.64-4.86,12.51-7.15,18.81
			c-1.3,3.57-3.73,6.52-4.63,10.34c-0.86,3.65-2.7,7.09-4.22,10.57c-1.52,3.48-3.06,6.96-4.79,10.35
			c-3.32,6.52-6.23,13.19-8.32,20.21c-0.33,1.12-0.73,2.24-1.28,3.27c-5.81,10.84-9.65,22.49-14.25,33.84
			c-2.29,5.67-4.5,11.37-6.78,17.04c-0.96,2.38-1.75,4.97-3.68,6.91c-0.58,0.58-1.14,1.48-1.16,2.25c-0.12,3.38-2.14,5.97-3.29,8.92
			c-1.38,3.57-2.68,7.04-5.13,10.03c-0.51,0.62-0.77,1.62-0.77,2.44c0.01,1.88-0.95,3.38-1.72,4.91c-0.92,1.82-1.72,3.6-2.19,5.64
			c-0.58,2.52-1.88,4.88-2.92,7.29c-2.3,5.36-5.36,10.33-7.14,15.98c-1.74,5.54-4.44,10.78-6.7,16.17c-1.34,3.21-2.9,6.31-3.85,9.69
			c-0.95,3.37-2.22,6.65-3.4,9.96c-1.18,3.3-2.45,6.57-3.64,9.87c-2.59,7.15-5.15,14.3-7.75,21.45c-0.5,1.37-1.01,2.75-1.67,4.06
			c-5.42,10.7-9.34,22.06-14.39,32.93c-1.96,4.21-3.24,8.76-4.55,13.24c-1.31,4.51-2.75,8.92-5.16,12.98
			c-0.3,0.5-0.7,0.99-0.82,1.54c-1.18,5.48-4.05,10.34-5.69,15.62c-2,6.44-5.57,12.24-7.18,18.8c-0.07,0.28-0.14,0.6-0.31,0.82
			c-3.2,3.95-4.88,8.55-5.84,13.48c-0.1,0.52-0.62,0.98-1.01,1.4c-0.8,0.87-1.69,1.79-1.54,3.02c0.47,3.82-1.56,6.77-3.3,9.78
			c-4.41,7.66-5.5,10.26-8.14,19.2c-0.66,2.22-1.73,4.33-2.7,6.46c-1.93,4.23-4.57,8.12-5.91,12.65c-0.57,1.91-2.02,3.55-2.89,5.39
			c-1.62,3.4-4.02,6.47-4.45,10.4c-0.09,0.81-0.57,1.64-1.04,2.35c-2.26,3.42-3.86,7.13-5.05,11.04c-0.34,1.12-0.61,2.28-1.1,3.33
			c-3.32,7.14-6.74,14.24-10.02,21.39c-1.08,2.36-1.76,4.9-2.8,7.28c-1.05,2.4-2.39,4.68-3.49,7.07c-1.44,3.15-1.89,6.74-4.62,9.33
			c-0.74,0.7-0.68,2.19-1.13,3.27c-2.09,5.09-3.12,10.65-7.1,14.9c-1.14,1.21-2.07,3.07-2.18,4.69c-0.22,3.13-1.96,5.46-3.25,8.04
			c-1.3,2.59-3.15,4.85-3.93,7.77c-0.43,1.59-1.86,2.91-2.81,4.37c-0.47,0.72-1.15,1.44-1.27,2.24c-0.71,4.77-3.37,8.68-5.51,12.8
			c-5.65,10.89-10.85,21.99-16.12,33.06c-1.13,2.37-2.11,4.77-4.23,6.57c-0.77,0.65-0.94,2.05-1.27,3.14
			c-0.6,1.95-0.9,4.02-1.73,5.86c-1.76,3.96-4.33,7.47-5.55,11.8c-1.17,4.15-3.55,7.98-5.57,11.85c-2.3,4.41-4.9,8.65-7.16,13.07
			c-5.45,10.66-10.86,21.34-16.11,32.1c-1.64,3.37-3.81,6.44-5,10.11c-1.15,3.56-3.36,6.79-5.12,10.15
			c-1.63,3.1-3.18,6.21-5.13,9.16c-1.9,2.87-2.86,6.31-4.81,9.29c-2.23,3.4-3.94,7.16-5.66,10.87c-1.98,4.25-3.93,8.5-7.03,12.09
			c-0.38,0.43-0.72,0.95-0.9,1.49c-2.01,6.17-5.91,11.38-8.75,17.13c-1.68,3.39-3.79,6.56-5.74,9.81
			c-3.16,5.25-6.54,10.39-9.45,15.77c-1.78,3.3-2.93,6.96-3.45,10.75c-0.08,0.59,1.31,1.76,1.85,1.51c1.57-0.74,3.27-1.33,4.65-2.34
			c2.58-1.91,5.11-3.94,7.41-6.17c4.61-4.49,9.06-9.14,13.56-13.74c4.91-5.02,9.64-10.23,14.74-15.04
			c8.94-8.43,18.13-16.6,27.18-24.92c4.3-3.96,8.66-7.84,13.18-11.55c5.43-4.45,10.47-9.34,15.3-14.47
			c8.03-8.54,17.04-16.03,25.94-23.64c18.24-15.59,36.42-31.24,54.66-46.83c2.67-2.28,5.52-4.34,8.21-6.59
			c9.64-8.08,19.31-16.12,28.85-24.32c6.22-5.35,12.73-10.28,19.26-15.22c9.77-7.4,19.38-15.02,28.54-23.2
			c6.54-5.84,13.29-11.44,20.25-16.8c10.2-7.85,20.07-16.12,30.08-24.2c8.65-6.98,17.26-14.01,25.97-20.91
			c5.27-4.18,10.77-8.06,16.04-12.25c9.38-7.47,18.66-15.08,27.99-22.62c1.82-1.47,3.69-2.89,5.47-4.4
			c7.36-6.24,14.89-12.31,22-18.84c7.34-6.74,15.21-12.82,22.85-19.18c4.5-3.74,9.19-7.24,13.73-10.92
			c8.41-6.81,16.75-13.71,25.17-20.5c2.96-2.39,6.07-4.58,9.12-6.86c7.5-5.6,14.89-11.35,21.95-17.51
			c6.39-5.57,13.14-10.71,19.89-15.85c13.25-10.11,26.21-20.63,39.47-30.73c12.33-9.39,24.91-18.45,37.35-27.69
			c3.99-2.96,7.84-6.12,11.88-9.02c9.98-7.15,19.38-15.11,30.14-21.16c2.8-1.58,5.41-3.48,8.1-5.25
			c14.15-9.36,28.3-18.73,42.45-28.09c7.56-5,15.03-10.13,22.71-14.93c7.44-4.64,15.09-8.95,22.67-13.37
			c22.74-13.25,45.49-26.48,68.24-39.72c10.61-6.18,21.09-12.6,31.87-18.47c11.82-6.43,23.45-13.2,35.03-20.03
			c2.51-1.48,5.19-2.68,7.78-4.04c3.1-1.63,6.24-3.22,9.27-4.98c2.02-1.17,3.92-2.57,5.19-5.2c-0.44-2.54-1.55-5.16-3.06-7.67
			c-5.73-9.52-11.66-18.94-17.04-28.66c-3.96-7.16-8.49-13.98-12.16-21.33c-3.38-6.78-7.74-13.06-11.61-19.6
			c-3.58-6.04-7.06-12.13-10.61-18.19c-3.4-5.81-6.81-11.61-10.26-17.38c-2.7-4.52-5.55-8.95-8.16-13.51
			c-7.28-12.68-14.81-25.22-21.75-38.11c-3.18-5.91-7.19-11.37-10.82-17.04c-4.89-7.64-9.74-15.31-14.65-22.93
			c-3.64-5.65-7.56-11.14-11-16.91c-5.99-10.05-11.84-20.18-16.97-30.72c-2.17-4.47-4.56-8.84-6.99-13.17
			c-2.25-4.01-2.94-8.21-2.19-12.7c0.24-1.44,0.42-2.9,0.77-4.32c0.88-3.57,0.43-6.96-1.16-10.24c-1.02-2.1-1.83-4.29-3.57-5.99
			c-1.57-1.53-1.95-3.58-1.8-5.68c0.57-7.61,3.77-14.04,9.08-19.43c0.8-0.81,1.82-1.65,2.88-1.93c5.63-1.53,10.97-4,16.77-5.01
			c4.71-0.82,9.32-1,13.85,0.62c5.29,1.9,10.87,2.23,16.34,3.14c13.34,2.23,26.75,2.76,40.23,1.75c1.17-0.09,2.34-0.18,3.51-0.15
			c12.3,0.3,24.55-1.04,36.84-1.25c2.33-0.04,4.66-0.45,6.99-0.67c2.04-0.19,4.11-0.64,6.12-0.47c7.03,0.6,14.02-0.35,21.03-0.35
			c9.36,0,18.71-0.8,28.07-0.78c4.97,0.01,9.88-0.26,14.82-0.57c4.67-0.29,9.36-0.19,14.04-0.29c1.17-0.03,2.36-0.02,3.49-0.27
			c5.78-1.28,11.64-0.99,17.49-0.99c2.05,0,4.09-0.07,6.14-0.12c3.51-0.1,7.02-0.31,10.53-0.3c8.46,0.02,16.89,0.66,25.39-0.04
			c8.15-0.67,16.38-0.33,24.57-0.37c8.49-0.05,16.98-0.02,25.47-0.02c8.49,0,16.98,0,25.47,0c8.2,0,16.39,0,24.59,0
			c8.49,0,16.98-0.04,25.47,0.01c28.97,0.18,57.95,0.41,86.92,0.6c7.31,0.05,14.61,0.87,21.93,0.35c0.87-0.06,1.8-0.09,2.62,0.15
			c4.88,1.42,9.88,0.91,14.84,1.06c4.37,0.14,8.74-0.13,13.08,1.06c2.2,0.6,4.65,0.35,6.99,0.43c7.31,0.25,14.62,0.37,21.9,1.26
			c3.76,0.46,7.6,0.28,11.4,0.43c12.57,0.49,25.15,0.99,37.72,1.52c9.65,0.41,19.3,0.67,28.9,1.88c2.6,0.33,5.26,0.26,7.89,0.28
			c11.7,0.09,23.39,0.07,35.08,1.18c6.37,0.61,12.84,0.05,19.26,0.12c8.78,0.09,17.56,0.36,26.33,0.39
			c4.68,0.02,8.59,1.47,11.62,5.09c1.87,2.24,3.96,4.35,5.5,6.8c2.66,4.24,2.21,8.38-1.62,11.88c-2.19,2-3.1,4.13-3.16,6.85
			c-0.02,1.16,0.18,2.33,0.21,3.5c0.11,4.52-2.81,7.83-7.26,8.19c-3.53,0.29-7.07,0.12-10.46-0.82c-3.73-1.04-7.47-1.13-11.29-1.12
			c-5.85,0.02-11.69-0.29-17.54-0.4c-3.8-0.08-7.6-0.08-11.39-0.09c-9.65-0.01-19.29,0.13-28.94-0.03
			c-13.75-0.24-27.51-0.49-41.24-1.11c-14.62-0.67-29.24-0.45-43.85-0.51c-1.46-0.01-2.93-0.03-4.39-0.05
			c-5.84-0.1-11.59-1.34-17.47-1.09c-5.55,0.24-11.12,0.18-16.67,0.06c-7.89-0.17-15.8-0.34-23.67-0.87
			c-4.64-0.31-9.3-1.04-13.82-2.1c-2.92-0.69-5.72-0.8-8.66-0.62c-7.01,0.43-14.03,0.99-21.04,0.9c-7.89-0.1-15.76-0.82-23.64-1.33
			c-1.74-0.11-3.53-0.3-5.18-0.82c-2.6-0.82-5.22-0.82-7.82-0.53c-3.81,0.42-7.59,0.31-11.39-0.06c-1.16-0.11-2.33-0.19-3.5-0.16
			c-8.77,0.21-17.54,0.42-26.31,0.68c-5.24,0.15-10.51,0.5-15.7-0.44c-3.72-0.68-7.65,0.71-11.23-1.3c-0.4-0.22-1.18,0.02-1.7,0.24
			c-2.26,0.96-4.61,0.88-6.92,0.51c-3.78-0.6-7.55-0.44-11.34-0.49c-3.5-0.04-7-0.35-10.5-0.51c-2.62-0.12-5.25-0.32-7.87-0.23
			c-4.08,0.13-8.19,0.94-12.21,0.6c-3.86-0.32-7.54,0.12-11.32,0.43c-3.46,0.29-7.01-0.13-10.49-0.49
			c-1.77-0.18-3.42-0.27-5.18,0.12c-1.37,0.3-2.87-0.04-4.31-0.09c-1.16-0.04-2.35-0.29-3.46-0.07c-6.93,1.4-13.91,1.36-20.95,1.21
			c-11.7-0.24-23.41-0.14-35.12-0.17c-3.8-0.01-7.58,0.08-11.3-1.14c-1.62-0.53-3.46-0.53-5.2-0.52
			c-12.28,0.06-24.57-0.28-36.85,0.54c-0.88,0.06-1.78,0.19-2.63,0.05c-8.2-1.39-16.33,0.29-24.5,0.46
			c-3.51,0.07-7.01,0.57-10.51-0.12c-0.57-0.11-1.17-0.24-1.73-0.19c-6.7,0.56-13.42,0.96-20.09,1.81
			c-4.37,0.56-8.72,0.81-13.11,0.79c-9.07-0.03-18.13,0.16-27.15,1.34c-2.6,0.34-5.25,0.32-7.88,0.44c-1.17,0.05-2.36-0.11-3.5,0.1
			c-5.55,0.99-7.35,3.7-5.45,8.57c2.44,6.26,5.23,12.37,8.55,18.26c7.89,14.02,15.52,28.19,23.42,42.2
			c3.87,6.87,8.14,13.51,12.19,20.29c5.85,9.8,11.64,19.63,17.51,29.41c2.11,3.51,4.33,6.96,6.56,10.39
			c4.47,6.87,8.8,13.81,12.79,20.98c3.27,5.87,7.09,11.43,10.52,17.22c7.44,12.58,14.77,25.23,22.18,37.84
			c7.71,13.11,15.38,26.24,23.23,39.27c2.26,3.74,4.96,7.23,7.67,10.68c2.78,3.55,4.86,4.04,9.27,2.43
			c4.66-1.71,9.29-3.53,13.88-5.42c3.51-1.44,6.93-3.12,10.43-4.59c4.31-1.82,8.59-3.69,12.64-6.07c2.01-1.18,4.17-2.12,6.32-3.03
			c13.71-5.84,27.3-12,41.19-17.36c13.34-5.15,26.79-10.08,40.67-13.75c4.2-1.11,8.26-2.79,12.45-4.05
			c6.71-2.03,13.42-4.03,20.25-5.62c9.37-2.18,18.57-5.09,28.05-6.83c4.59-0.84,9.2-1.63,13.8-2.43c8.93-1.54,17.87-3.02,26.8-4.59
			c12.72-2.24,25.52-3.37,38.44-3.04c5.26,0.13,10.52,0.48,15.74-0.67c1.4-0.31,2.92-0.18,4.38-0.11c16.95,0.8,33.9,1.68,50.86,2.42
			c7.63,0.33,15.1,1.8,22.6,2.95c6.35,0.97,12.65,2.3,19.07,2.87c2.9,0.26,5.81,0.79,8.64,1.48c8.23,2.01,16.44,4.1,24.62,6.3
			c6.19,1.67,21.72,8.09,27.59,11.15c2.85,1.48,5.81,2.75,8.58,4.36c2.51,1.46,4.97,3.1,7.21,4.95c5.23,4.31,9.64,9.41,13.29,15.11
			c2.4,3.76,5.3,6.74,9.06,9.3c6.52,4.44,12.58,9.57,17.6,15.74c1.47,1.8,2.85,3.73,3.91,5.78c1.2,2.32,1.75,4.99,3.03,7.25
			c1.14,2.02,2.42,3.88,3.17,6.17c1.17,3.62,3.16,6.93,5.56,9.87c2.68,3.27,4.03,7.09,5.06,11.03c1.18,4.52,2.15,9.11,3.05,13.69
			c0.39,1.99,0.45,4.07,0.51,6.11c0.17,6.14,0.41,12.29,0.33,18.43c-0.07,5.54-0.5,11.08-0.83,16.61c-0.05,0.85-0.36,1.73-0.71,2.52
			c-0.87,1.93-1.05,3.91-0.89,6c0.22,2.96-0.55,5.81-1.24,8.66c-0.35,1.45-1.03,2.67-1.96,3.85c-1.07,1.36-1.92,2.9-2.75,4.42
			c-1.82,3.32-4.43,5.33-8.32,5.56c-2.04,0.12-4.05,0.53-6.09,0.72c-2.84,0.26-6-1.7-6.98-4.34c-0.4-1.09-0.6-2.26-0.92-3.38
			c-0.64-2.25-1.15-4.55-2.02-6.71c-0.75-1.87-2.46-3.47-2.82-5.36c-0.86-4.58-1.37-9.26-1.64-13.92
			c-0.28-4.67-0.43-9.33-1.07-13.99c-0.48-3.46-0.35-7.01-0.33-10.52c0.06-8.51-0.41-16.98-2.34-25.29
			c-0.85-3.69-2.05-7.3-3.18-10.92c-0.79-2.56-2.31-4.68-4.12-6.65c-2.23-2.42-4.7-4.14-8.02-5c-9.05-2.33-18.06-4.74-27.26-6.48
			c-7.17-1.36-14.34-2.44-21.61-2.97c-2.91-0.21-5.89-0.35-8.69-1.08c-4.57-1.2-9.22-1.53-13.86-2.07
			c-7.26-0.85-14.5-1.94-21.78-2.54c-5.82-0.48-11.68-0.43-17.52-0.52c-5.25-0.08-10.53,0.53-15.75-0.59
			c-0.56-0.12-1.18-0.22-1.71-0.1c-6.07,1.37-12.25,0.59-18.36,1.06c-1.74,0.13-3.49,0.32-5.23,0.5c-2.91,0.3-5.81,0.84-8.71,0.88
			c-8.52,0.13-16.91,1.28-25.24,2.84c-6.89,1.28-13.94,1.73-20.65,3.94c-11.69,0.99-22.84,5.02-34.52,6.07
			c-0.86,0.08-1.71,0.35-2.56,0.59c-8.41,2.38-16.82,4.77-25.24,7.14c-1.12,0.32-2.3,0.86-3.4,0.75c-4.34-0.4-7.94,1.56-11.63,3.31
			c-5.83,2.78-11.82,4.93-18.39,5.2c-1.69,0.07-3.64,0.47-4.97,1.42c-3.18,2.29-6.87,3.06-10.44,4.21
			c-3.88,1.25-7.85,2.3-11.62,3.83c-2.7,1.09-5.32,2.33-8.13,3.23c-2.75,0.88-5.42,2.18-7.94,3.61c-2.81,1.59-5.48,3.26-8.87,3.5
			c-1.38,0.1-2.73,0.98-4.05,1.6c-7.12,3.35-14.19,6.83-21.74,9.16c-0.28,0.09-0.54,0.23-0.79,0.39c-8.48,5.32-18.2,7.89-27.14,12.2
			c-2.9,1.4-5.84,2.7-8.68,4.21c-2.82,1.51-3.85,4.49-2.65,7.51c0.64,1.62,1.47,3.18,2.37,4.67c4.86,8,9.75,15.97,14.66,23.94
			c5.99,9.71,12.02,19.4,17.99,29.12c4.13,6.72,8.19,13.49,12.28,20.24c0.61,1,1.13,2.06,1.81,3
			c11.07,15.46,20.34,32.04,30.34,48.16c6.32,10.18,12.74,20.29,19.24,30.36c2.22,3.43,5.17,6.42,7.16,9.97
			c5.03,8.92,12.23,16.41,16.67,25.68c10.42,13.76,19.54,28.43,29.86,42.27c5.24,7.03,9.93,14.47,14.91,21.71
			c2.65,3.85,5.32,7.69,8.06,11.49c3.95,5.47,7.23,11.33,10.3,17.32c0.93,1.81,1.65,3.68,2.99,5.29c1.3,1.56,2.31,3.37,3.38,5.11
			c4.13,6.73,8.43,13.33,13.2,19.64c4.58,6.06,8.62,12.52,12.88,18.82c5.56,8.22,10.84,16.63,15.99,25.11
			c0.91,1.5,1.93,2.93,2.97,4.35c3.62,4.95,7.66,9.64,10.82,14.87c4.24,7.02,9.38,13.39,13.76,20.3
			c4.22,6.66,8.73,13.15,13.06,19.74c7.06,10.75,14.07,21.53,21.13,32.28c1.44,2.2,3,4.33,4.52,6.48
			c7.21,10.28,13.66,21.03,20.09,31.82c6.29,10.54,11.67,21.63,18.9,31.61c1.03,1.42,1.8,3.01,2.71,4.51
			c4.56,7.49,9.02,15.03,14.19,22.15c3.43,4.72,6.62,9.66,9.48,14.75c5.87,10.44,12.41,20.51,17.69,31.29
			c0.77,1.57,1.56,3.14,2.32,4.72c1.92,4.03,1.51,7.94-0.57,11.78c-0.87,1.59-2.05,2.81-3.76,3.5c-1.35,0.55-2.64,1.27-4.02,1.75
			c-1.52,0.53-2.47,1.45-2.78,3.03c-0.06,0.28-0.11,0.65-0.3,0.82c-4.78,4.2-8.83,9.36-15.55,10.94c-2.56,0.6-4.54,0.56-6.39-1.35
			c-0.39-0.4-0.95-0.76-1.49-0.87c-0.53-0.1-1.31-0.05-1.65,0.27c-1.7,1.59-3.25,3.34-4.92,4.95c-3.89,3.76-8.47,5.1-13.7,3.49
			c-7.03-2.16-12.66-6.24-15.76-13.01c-5.14-11.21-12.06-21.4-17.95-32.18c-6.59-12.08-14.03-23.62-21.97-34.85
			c-1.33-1.89-2.33-4.03-3.33-6.13c-0.68-1.44,0.06-3.54,1.43-4.7c1.09-0.91,2.22-1.78,3.28-2.72c0.13-0.12-0.01-0.55-0.04-1.01
			c-2.91,0.11-5.82,0.27-8.73,0.32c-2.3,0.04-4.74-1.86-4.93-4.19c-0.16-1.98,0.23-4.02,0.43-6.02c0.02-0.19,0.45-0.31,0.63-0.51
			c1.89-2.15,1.88-2.15-0.01-4.78l-0.22,0.18c0.27-0.5,0.73-1,0.74-1.51c0.01-0.43-0.64-1.29-0.77-1.24
			c-1.35,0.43-2.7,0.92-3.98,1.54c-2.9,1.42-4.63,2-6.5-2.81c-0.54-1.39-1.19-2.68-0.76-4.17c0.56-1.94,0.04-3.46-1.65-4.51
			c-1.26-0.79-2.39-1.6-2.98-3.06c-0.9-2.23-2.44-3.9-4.48-5.24c-1.98-1.3-1.94-3.45-1.61-5.53c0.29-1.84,2.05-2.82,3.89-2.16
			c0.76,0.27,1.41,0.98,2.31,0.57c0.21-0.1,0.47-0.46,0.44-0.67c-0.28-2.12-3.34-2.38-3.24-4.79c-0.53,0-1.17-0.19-1.58,0.03
			c-1.01,0.56-1.87,1.4-2.89,1.95c-0.76,0.41-1.7,0.51-2.36-0.33c-0.71-0.91-1.82-1.8-1.96-2.81c-0.33-2.37-1.72-3.56-3.69-4.41
			c-1.34-0.57-2.68-1.15-4-1.75c-0.7-0.32-0.93-1.69-0.4-2.23c2.05-2.06,4.15-4.08,6.14-6.2c1.25-1.34,0.52-3.57-1.3-4.2
			c-0.54-0.19-1.15-0.19-1.71-0.33c-2.4-0.61-2.83-1.21-2.5-3.58c0.08-0.57,0.24-1.13,0.28-1.71c0.1-1.48-0.46-1.83-2.07-1.33
			c-0.56,0.17-1.12,0.33-1.67,0.52C1539.92,1065.46,1540,1065.71,1540,1065.71z M1647.8,451.39l-0.43,0.11l0.67,0.01l-0.16,0.32
			C1647.88,451.83,1647.8,451.38,1647.8,451.39z M544.41,1051.36c1.21-1.42,3.19-2.1,3.89-4.01c1.42-0.27,2.92-0.31,4.09-1.36
			c4.59-4.07,9.21-8.1,13.74-12.24c1.44-1.32,1.69-3,0.46-4.71c-0.17-0.23-0.29-0.52-0.36-0.8c-0.06-0.27-0.08-0.58-0.01-0.84
			c0.14-0.49,0.66-0.58,1.26-0.08c1.26,1.06,2.61,1.15,4.08,0.58c2.72-1.06,5.5-2.04,6.82-5.01c5.22-4.68,10.5-9.3,16.67-12.72
			c2.33-1.29,4.42-2.82,6.41-4.55c3.74-3.25,7.35-6.7,11.37-9.57c4-2.86,6.9-7.13,11.71-8.93c0.76-0.28,1.3-1.14,1.94-1.74
			c1.71-1.58,3.74-2.95,5.05-4.81c1.52-2.16,4.03-2.2,5.89-3.57c6.15-4.53,11.2-10.15,16.2-15.83c1.21-1.37,1.47-3.12,0.74-4.94
			c-0.19-0.47-0.03-1.07-0.03-1.95c1.58-0.93,3.38-1.88,5.06-3.01c0.93-0.63,1.93-1.41,2.43-2.37c0.77-1.45,1.83-2.36,3.36-2.38
			c4.57-0.04,8.38-2.35,12.43-3.96c3.42-3.7,7.88-5.98,11.95-8.8c1.28-0.89,1.68-2.28,1.15-3.88c-0.17-0.52-0.03-1.13-0.03-2.03
			c1.44-0.67,3-1.41,4.57-2.12c1.15-0.52,1.85-1.42,2.08-2.63c0.48-2.51,1.89-3.45,4.37-2.76c1.19,0.33,2.25-0.1,3.38-0.46
			c3.73-1.18,6.74-3.48,9.57-6.02c4.12-3.7,8.12-7.55,12.2-11.3c2.77-2.55,5.47-5.22,8.43-7.54c4.35-3.41,8.69-6.91,13.94-8.94
			c0.54-0.21,1.07-0.49,1.54-0.83c1.55-1.1,2.19-2.66,2.14-4.53c-0.03-0.97-0.46-1.59-1.46-1.78c-0.57-0.11-1.13-0.28-1.66-0.51
			c-0.82-0.36-1.1-1.78-0.41-2.04c4.18-1.58,6.96-5.19,10.74-7.31c1.71-0.96,1.79-3.07,3.31-3.9c1.51-0.82,3.28-1.14,4.83-1.9
			c1.02-0.51,1.97-1.3,2.74-2.16c1.67-1.87,2.25-3.99,0.97-6.38c-1.25,0.69-1.56,2.38-3.27,2.56c-1.73,0.18-3.43,0.72-5.12,1.17
			c-1.44,0.39-2.63,1.09-3.41,2.5c-1.06,1.93-2.93,2.77-5,3.22c-2.33,0.51-4.87,1.28-6.07,3.19c-1.94,3.07-5.87,3.94-7.36,7.36
			c-0.31,0.7-1.23,1.42-1.99,1.58c-2.2,0.47-3.26,2.35-4.89,3.48c-1.99,1.38-3.05,3.71-4.92,4.87c-2.09,1.29-3.22,3.17-4.81,4.78
			c-2.42,2.45-4.28,5.64-7.91,6.72c-0.52,0.15-1.1,0.56-1.38,1.02c-1.95,3.21-5.05,4.74-8.39,5.99c-0.8,0.3-1.72,0.79-2.14,1.47
			c-1.99,3.25-5.25,4.48-8.51,5.82c-0.8,0.33-1.64,0.81-2.17,1.46c-2.99,3.67-7.11,6.04-10.5,9.21c-4.08,3.82-8.28,7.35-13.4,9.69
			c-1.39,0.64-2.45,1.74-2.76,3.22c-0.47,2.24-1.93,3.56-3.81,4.47c-2.1,1.02-4.24,1.9-6.01,3.53c-2.13,1.96-4.65,3.34-6.52,5.77
			c-1.71,2.22-4.55,3.56-6.89,5.3c-0.93,0.7-1.92,1.37-2.1,2.66c-0.22,1.56-0.93,2.81-2.51,3.23c-2.66,0.7-4.61,2.55-6.58,4.21
			c-2.28,1.91-4.61,3.51-7.44,4.43c-0.79,0.26-1.85,0.7-2.13,1.34c-1.48,3.46-4.4,5.23-7.5,6.83c-1.88,0.97-3.45,2.09-3.94,4.37
			c-0.17,0.76-0.89,1.48-1.5,2.06c-1.69,1.61-3.54,2.97-5.58,4.18c-3.48,2.07-7.08,4.07-9.26,7.81c-0.52,0.89-1.85,1.33-2.85,1.92
			c-1.65,0.98-2.38,2.43-2.32,4.32l0.15-0.1c-0.61,0.62-1.45,1.15-1.78,1.89c-1.18,2.66-3.15,3.98-6,4.33
			c-2.1,0.26-4.12,1.43-5.02,3.13c-1.69,3.22-4.65,5.1-6.9,7.69c-2.09,2.4-4.25,4.74-6.44,7.04c-0.85,0.89-1.09,1.92-1.4,3.06
			c-1.21,4.4-3.88,7.71-8.02,9.74c-1.8,0.88-3.62,1.73-5.77,2.75c0.48,2.71-1.43,4.86-1.39,7.47c-0.51-0.13-1.04-0.4-1.54-0.37
			c-1.68,0.1-2.33,0.78-2.41,2.47c-0.02,0.52,0.14,1.06,0.24,1.54c-0.69,0.02-0.75-0.07-0.19-0.29
			C544.52,1051.03,544.47,1051.2,544.41,1051.36z M1376.97,526.29c0.51,0.62,0.44,0.78-0.19,0.49c0.18-0.14,0.37-0.29,0.55-0.43
			c0.05,1.73-0.63,3.56,0.71,5.1l-0.64-0.22l0.55,0.3c1.14-1.76,1.2-2.23,0.23-3.29C1377.65,527.64,1376.89,527.22,1376.97,526.29z
			 M976.77,739.97c2.25-1.2,4.52-2.35,6.73-3.63c0.31-0.18,0.34-0.92,0.41-1.41c0.01-0.07-0.49-0.28-0.76-0.3
			c-2.14-0.18-3.87,1.01-5.58,1.93c-1.4,0.75-1.58,2.23-0.64,3.61c-0.65-0.43-1.33-0.97-1.35,0.45
			C975.97,740.41,976.37,740.19,976.77,739.97z M760.62,897.94c-2.76-0.47-5.3-0.02-6.75,2.56c-0.89,1.58-2.04,2.76-3.42,3.85
			c-1.12,0.88-2.16,1.88-3.19,2.78c1.47,2.88,2.26,3.18,3.64,1.44c1.09-1.37,2-2.77,3.88-3.23c2.75-0.67,4.26-2.93,5.76-5.05
			c0.38-0.54-0.04-1.65-0.09-2.5c1.15-0.8,2.3-1.58,3.43-2.41c0.1-0.07,0.08-0.52-0.04-0.61c-0.21-0.17-0.52-0.28-0.79-0.27
			c-1.72,0.02-2.11,0.26-2.46,1.75C760.46,896.78,760.6,897.37,760.62,897.94z M791.55,844.22c1.24-1.19,2.62-2.28,3.68-3.62
			c1.02-1.28,2.85-0.81,3.71-1.93c0.86-1.12,1.26-2.57,1.98-3.81c0.55-0.95,1.57-1.69,1.3-2.97c-0.05-0.25-0.51-0.65-0.54-0.63
			c-2.59,1.76-5.46,2.99-8.24,4.39c-0.92,0.46-1.71,1.67-2.03,2.7c-0.58,1.9-1.06,3.94,0.16,5.85c-1.29-0.2-2.58-0.41-3.87-0.57
			c-0.08-0.01-0.28,0.34-0.28,0.51c0,0.19,0.2,0.56,0.28,0.55C788.98,844.56,790.26,844.39,791.55,844.22z M962.55,748.57
			c-3.02-0.87-5.69-0.45-7.88,2.01c-0.96,1.08-1.96,2.13-3.05,3.08c-1.25,1.1-3.18,1.32-3.99,2.98c0.08,1.33,0.94,2.07,1.91,2.75
			c1.25,0.87,2.48,0.65,2.59-0.7c0.15-1.93,0.77-3.27,2.65-3.98c2.16-0.82,4.33-1.63,6.42-2.63c1.54-0.74,1.74-2.15,1.19-3.68
			c0.86,0.11,1.7,0.06,0.61-0.92C962.73,747.24,962.24,747.98,962.55,748.57z M1510.74,445.53c-0.15-0.15-0.3-0.3-0.45-0.44
			c0.14-0.12,0.4-0.35,0.41-0.34c0.42,0.43,0.32,0.68-0.28,0.72c-0.26-0.95,0.21-1.62,0.77-2.32c0.54-0.67,1.09-1.38,1.39-2.16
			c0.15-0.4-0.22-1.03-0.46-1.51c-0.11-0.22-0.46-0.44-0.7-0.44c-0.57,0.01-1.17,0.09-1.71,0.26c-3.61,1.11-7.18,2.47-11.06,1.29
			c-2.56,0.43-5.14,0.81-7.68,1.34c-0.33,0.07-0.56,0.9-0.7,1.41c-0.06,0.2,0.19,0.55,0.39,0.75c0.19,0.19,0.48,0.37,0.73,0.39
			c2.77,0.13,4.86,1.78,7.12,3.08c1.01,0.58,1.39,0.29,2.14-1.59c0.1-0.26,0.08-0.61,0.25-0.79c0.39-0.39,0.81-0.83,1.31-0.99
			c0.64-0.21,1.03,0.24,1.27,0.9c0.39,1.09,0.84,2.15,1.34,3.19c0.42,0.86,1.17,1.3,2.11,0.97c0.52-0.18,1.02-0.54,1.4-0.95
			c0.75-0.79,0.15-1.55-0.2-2.29c-0.12-0.25-0.17-0.54-0.26-0.81C1509.5,444.73,1509.5,444.73,1510.74,445.53z M1469.29,521.17
			c1.15-0.03,2.35,0.13,3.45-0.13c1.69-0.4,3.28-1.28,4.98-1.61c2.84-0.55,6.08,0.05,8.39-2.02c2.54-2.27,5.72-0.34,8.35-1.85
			c1.45-0.83,3.5-0.62,4.95-1.46c2.93-1.69,6.05-1.99,9.28-2.15c2.62-0.13,5.23-0.47,7.77-0.71c1.74-1.51,3.41-2.95,5.13-4.44
			c-0.69-0.17-1.28-0.52-1.77-0.41c-6.28,1.37-12.71,1.79-19.01,3.01c-5.12-0.47-9.81,1.44-14.44,3.03
			c-3.94,1.35-7.82,2.29-11.94,2.44c-1.17,0.04-2.34,0.1-3.5,0.2c-1.35,0.12-2.45,1.4-2.64,3.05c-0.14,1.23,0.31,2.27,1.03,3.1
			c-1.86-0.79-3.72-1.58-5.24-2.23c-2.38,0.52-4.37,0.91-6.34,1.43c-0.82,0.22-1.58,0.69-2.35,1.09c-0.98,0.51-1.05,1.99-0.17,3.6
			C1460.02,524.19,1464.7,522.83,1469.29,521.17z M1181.93,571.55c-0.61-0.11-0.69-0.32-0.24-0.65c0.02,0.18,0.03,0.36,0.05,0.54
			c-0.55,1.94-1.09,3.89-1.64,5.85c-2.12,0.63-4.05,1.19-5.97,1.78c-1.93,0.6-3.86,1.23-5.82,1.86c-0.9,2.66-1.65,5.18-2.66,7.59
			c-0.27,0.64-1.3,1.21-2.06,1.35c-1.71,0.32-3.44,0.41-5.14-0.4c-1.12-0.54-2.4-0.21-3.23,0.68c-2.25,2.4-4.86,4.08-8.09,4.91
			c-2,0.51-3.49,1.97-5.08,3.29c-1.75,1.44-3.51,3.2-6.12,3.04c-4.55,1.88-9.25,3.43-12.82,7.12c-1.12,1.16-1.48,2.33-1.4,3.9
			c0.04,0.72-0.48,1.84-1.08,2.15c-2.31,1.2-5.17,0.56-7.45,2.16c-0.58,0.41-1.69,0.03-2.55,0.09c-1.47,0.1-2.04,0.47-2.22,2.08
			c-0.29,2.52-1.33,4.41-3.48,5.76c-1.21,0.76-2.33,1.65-3.39,2.41c-1.14-0.35-1.97-0.6-2.8-0.87c-3.52-1.14-6.86-1.09-9.98,1.26
			c-0.9,0.68-2.08,0.97-3.25,1.5c-2.01,5.05-6.73,7.95-9.61,12.33c-0.31,0.47-0.8,0.88-1.3,1.17c-3.27,1.91-6.56,3.78-9.85,5.67
			c-2.91,0.08-5.82,0.15-8.72,0.23c-0.58,0.02-1.17,0.11-1.75,0.15c-1.55,0.13-2.82,0.94-3.77,2.03c-1.33,1.54-2.46,3.25-3.6,4.94
			c-1.63,2.41-3.15,4.89-4.8,7.28c-0.47,0.68-1.13,1.37-1.86,1.71c-3.96,1.83-7.97,3.54-11.95,5.3c-1.85,0.82-3.69,1.67-5.53,2.5
			c-0.5,1.81-0.96,3.49-1.42,5.17c1.4,1.75,0.85,3.9,1.21,5.86c0.18,0.99,0.89,1.54,1.78,1.61c1.45,0.12,2.91,0.11,4.36,0.02
			c1.55-0.09,2.61-1.61,2.18-3.09c-0.24-0.83-0.67-1.61-1.05-2.39c-0.38-0.78-0.96-1.79-0.1-2.27c0.5-0.27,1.58,0.39,2.34,0.76
			c0.78,0.38,1.48,0.92,2.16,1.35c9.29-1.9,9.23-1.97,15.41-7.28c2.41-2.08,5.06-3.97,7.85-5.48c1.48-0.81,3.34-0.96,4.55-2.38
			c1.08-1.28,2.94-2.02,2.73-4.2c-0.02-0.24,0.86-0.7,1.38-0.82c0.54-0.13,1.16-0.03,1.72,0.09c2.5,0.52,4.61,0.03,6.27-2.06
			c1.31-1.65,3.23-2.43,5.05-3.39c5.14-2.71,10.55-5.06,15.24-8.42c4.8-3.45,9.96-6.13,15.15-8.76c2.88-1.46,5.62-3.02,8.25-4.9
			c2.83-2.02,6.16-3.33,9-5.34c2.4-1.71,4.84-3.23,7.5-4.47c1.58-0.74,3.22-1.51,4.54-2.61c4.25-3.55,9.4-5.78,13.55-9.48
			c2.17-1.93,4.71-3.45,7.14-5.08c0.95-0.64,2-1.38,3.09-1.54c2.67-0.39,5.05-1.22,7.24-2.86c2.1-1.58,5.21-0.96,7.16-3.04
			c4.38-1.61,7.71-5.2,12.26-6.48c3.95-2.93,8.64-4.93,11.72-8.97c1.04-1.37,2.28-1.71,3.81-1.38c2.42,0.52,4.65-0.04,6.75-1.18
			c4.09-2.22,8.17-4.47,12.2-6.78c1-0.57,1.9-1.37,2.71-2.19c0.86-0.87,1.21-2.03,0.74-3.22c-0.75-1.88-1.97-3.57-1.96-5.74
			c0-0.48-0.45-1.17-0.88-1.41c-2.02-1.13-4.06-2.25-6.19-3.16c-1.47-0.63-3.61,0.34-4.55,1.83c-1.09,1.73-1.95,3.63-3.22,5.21
			c-1.49,1.85-3.48,3.2-6.04,2.63c-4.59-1.03-8.61,0.57-12.43,2.7c-1.84,1.03-3.67,1.75-5.73,1.98
			C1184.8,571.24,1183.36,571.39,1181.93,571.55z M472.19,820.74c0.04-0.55,0.15-1.11,0.1-1.65c-0.02-0.21-0.42-0.57-0.59-0.54
			c-0.66,0.11-1.06,0.68-0.74,1.25c0.23,0.4,0.93,0.53,1.41,0.77c-1.51,1.32-3.02,2.64-4.53,3.96c-0.05,0.27-0.2,0.57-0.12,0.8
			c0.55,1.68,1.29,3.23-1.37,4c-1.07,0.31-1.2,2.05-0.28,2.95c0.86,0.83,1.76,1.38,1.13,2.79c-0.82,1.84-1.53,3.73-2.36,5.76
			c-1.85,0.73-4.64,0.14-5.78,3.44c0.59,2.07,1.29,4.55,1.89,6.68c-1.03,3.47-3.64,5.7-4.48,8.91c-0.37,1.41-1.63,2.41-3.07,2.93
			c-2.16,0.77-3.44,2.49-3.67,4.54c-0.48,4.47-2.16,8.37-4.59,12.07c-0.96,1.45-1.54,3.14-2.33,4.71c-0.63,1.24-2.88,1.45-2.46,3.24
			c0.43,1.83,0.07,3.48-0.41,5.14c-0.4,1.38-1.01,2.7-1.64,3.99c-1.39,2.84-3.27,5.52-4.12,8.5c-0.6,2.08-1.4,3.75-2.83,5.24
			c-1.22,1.26-2.48,2.49-3.65,3.79c-1.21,1.34-1.83,2.81-1.54,4.77c0.4,2.64,0.03,5.17-1.98,7.33c-0.72,0.76-0.97,2.09-1.14,3.21
			c-0.23,1.55-0.98,2.64-2.1,3.68c-0.57,0.53-0.95,1.47-1.02,2.26c-0.27,3-2.33,5.29-3.09,8.1c-0.26,0.97-1.37,1.94-2.33,2.45
			c-2.16,1.16-2.95,2.69-2.11,5.01c-0.71,2.79-0.81,5.97-3.7,7.57c-2.58,1.42-2.94,4.27-4.59,6.27c-1.16,1.4-1.76,3.01-1.82,4.83
			c-0.06,1.82-0.66,3.48-1.81,4.84c-1.58,1.86-2.33,4.1-2.78,6.35c-0.6,3.01-2.04,5.53-4.01,7.66c-2.52,2.72-3.26,5.98-3.83,9.41
			c-0.18,1.13-0.26,2.36-0.79,3.32c-2.22,4.07-3.89,8.44-6.7,12.19c-0.86,1.15-1.86,2.51-2,3.85c-0.35,3.44-2.45,5.91-4.18,8.56
			c-2.27,3.48-3.78,7.14-3.86,11.35c-0.02,0.84-0.19,2.01-0.74,2.44c-2.9,2.23-3.65,5.93-6.07,8.47c-0.77,0.81-1.56,1.97-1.62,3.01
			c-0.18,2.95-1.99,4.73-3.9,6.58c-2.51,2.44-4.85,4.98-4.48,8.95c0.07,0.72-0.58,1.66-1.16,2.25c-1.56,1.57-2.21,3.32-1.86,5.53
			c0.19,1.19-0.19,2.28-1.51,2.78c-1.43,0.55-2.62,1.46-2.91,3.01c-0.5,2.66-1.5,5.27-3.21,7.12c-2.48,2.67-2.12,5.88-2.8,8.9
			c-0.43,1.9-0.96,3.51-2.16,5.38c-0.31,0.49-0.67,0.95-0.94,1.46c-2.87,5.42-5.78,10.82-8.57,16.28c-0.67,1.31-1.38,2.42-2.56,3.41
			c-2.25,1.89-3.72,4.57-4.56,7.28c-0.62,1.99-1.55,3.69-2.46,5.49c-1.04,2.06-1.81,4.2-3.18,6.16c-1.8,2.58-3.5,5.29-4.99,8.04
			c-2.35,4.33-3.7,9.17-6.18,13.48c-0.7,4.47-3.41,8.05-5.43,11.91c-1.9,3.63-4.05,7.07-4.61,11.26c-0.19,1.47-1.29,2.58-2.88,2.98
			c-0.28,0.07-0.61,0.18-0.77,0.38c-0.34,0.42-0.73,0.89-0.84,1.4c-1.45,6.99-1.57,7.36-4.07,10.09c-0.97,1.06-1.99,2.09-3.09,3.23
			c0,1.52-0.05,2.98,0.01,4.43c0.09,2.21-0.64,3.82-2.53,5.21c-1.6,1.18-2.74,2.97-4.09,4.5c-0.37,3.29-2.82,5.81-3.49,8.89
			c-0.77,3.54-2.24,6.61-4.41,9.38c-1.33,1.69-2.23,3.57-2.21,5.61c0.03,2.38-0.87,3.83-2.92,4.82c-0.48,0.23-1.06,0.74-1.14,1.2
			c-0.64,3.56-3.06,6.27-4.43,9.48c-0.72,1.69-0.75,3.41-0.84,5.15c-0.04,0.78,0.95,1.57,1.75,1.44c0.57-0.1,1.24-0.02,1.69-0.31
			c1.97-1.23,4.02-2.39,5.75-3.91c2.17-1.91,4.05-4.16,6.06-6.25c1.49-1.54,1.84-3.61,2.62-5.49c0.22-0.54,0.41-1.21,0.83-1.53
			c2.08-1.56,3.07-3.38,1.85-5.94c0.58-1.31,0.83-2.98,1.8-3.86c2.42-2.19,2.69-5.84,5.54-7.67c0.41-0.26,0.74-1.01,0.73-1.53
			c-0.11-3.56,2.82-5.57,4.21-8.36c0.51-1.02,1.62-1.8,1.91-2.84c0.97-3.47,2.58-6.46,5.32-8.84c0.73-0.64,0.67-1.55,0.37-2.42
			c-0.42-1.19-0.27-2.29,0.51-3.29c1.46-1.86,2.67-3.79,2.7-6.31c0.01-1.36,1.64-1.43,2.33-2.32c-0.56-1.93-1.62-4.02,1.71-4.59
			c0.45-0.08,0.89-0.72,1.17-1.2c1.78-2.98,3.89-5.77,5.02-9.14c0.64-1.91,1.32-3.91,2.48-5.51c1.24-1.72,1.49-3.66,2.19-5.5
			c0.72-1.91,1.25-4.02,2.46-5.59c1.33-1.73,1.63-3.62,2.27-5.52c0.54-1.58,1.35-3.28,2.98-4.2c2.14-1.2,3.56-2.88,4.39-5.24
			c0.36-1.01,1.31-1.88,2.15-2.64c0.89-0.8,1.6-1.55,1.88-2.8c0.24-1.08,0.77-2.23,1.51-3.05c1.17-1.28,0.26-2.84,0.88-4.11
			c0.37-0.76,0.9-1.5,1.52-2.08c0.83-0.77,1.81-1.38,2.79-2.1c0.14-1.47,0.13-2.95,0.46-4.35c0.45-1.9,2.37-2.43,3.72-3.48
			c0.23-0.18,0.51-0.38,0.59-0.63c0.18-0.52,0.41-1.11,0.31-1.62c-0.15-0.84-0.55-1.64-0.99-2.89c4.76-4.89,7.38-11.5,11.97-16.52
			c-0.06-0.84,0.03-1.46-0.17-1.97c-0.41-1.09-1.1-2.41,0.11-3.1c2.26-1.28,1.98-4.16,3.89-5.56c-0.51-2.93,2.18-4.57,2.81-7.04
			c0.2-0.8-0.19-1.98,0.76-2.28c1.98-0.62,1.85-2.99,3.4-3.8c2.44-1.28,1.26-3.62,1.82-5.44c0.24-0.77,0.81-1.57,1.45-2.07
			c1.78-1.42,2.41-3.17,2.17-5.4c-0.15-1.44-0.03-2.9-0.03-3.9c0.58-0.95,0.79-1.54,1.2-1.92c3.77-3.54,5.82-7.92,6.59-12.98
			c0.22-1.42,0.65-2.81,1.04-4.21c0.33-1.19,1.13-2.01,2.23-2.55c0.77-0.38,1.98-0.58,2.24-1.18c0.96-2.21,2.8-3.66,4.17-5.51
			c2.14-2.88,3.09-6.24,2.75-9.8c-0.14-1.46-0.67-2.35,1.2-3.39c2.21-1.23,3.91-3.4,5.72-5.27c0.57-0.59,1.04-1.51,1.12-2.32
			c0.17-1.82,0.98-3.33,1.79-4.89c0.52-1.01,1.13-2.25,0.98-3.28c-0.55-3.86,1.3-6.74,3.38-9.62c1.36-1.88,3.06-3.68,3.8-5.8
			c2.69-7.65,6.14-14.97,9.14-22.49c0.06-3.14,3.45-4.67,3.76-7.76c0.07-0.68,1.12-1.23,1.66-1.89c0.34-0.42,0.84-0.96,0.79-1.39
			c-0.19-1.88,0.81-3.17,1.64-4.73c1.09-2.04,3.21-3.57,3.35-6.06c0.14-2.47,1.11-4.44,2.89-6.12c0.29-0.27,0.03-1.11,0.05-1.69
			c0.04-1.2,0.35-2.23,1.43-3c2.49-1.78,4.16-3.98,4.03-7.31c-0.04-1.08,1.09-2.23,0.99-3.29c-0.28-3.27,1.24-5.9,3.5-7.55
			c2.22-1.62,2.51-2.73,1.11-4.88c-0.35-0.54,0.03-1.66,0.26-2.46c0.57-2.02,1.73-3.63,3.38-4.98c1.39-1.14,2.21-2.57,1.87-4.6
			c-0.3-1.81,0.64-3.5,1.71-4.83c1.45-1.8,3.3-3.26,4.91-4.94c1.97-2.06,0.55-5.13,2.21-7.41c1.47-2.02,0.92-5.21,3.61-6.63
			c0.34-2.68,1.93-4.85,3.17-7.1c2.23-4.04,4.75-7.91,5.28-12.64c1.95-1.6,0.63-4.56,2.5-6.16c1.62-1.39,2.6-2.93,2.85-5.17
			c0.22-1.99,0.93-3.99,1.79-5.81c1.25-2.63,3.04-5.02,4.22-7.68c1.15-2.61,1.05-5.76,3.55-7.8c0.34-0.28,0.49-1.14,0.35-1.61
			c-0.64-2.17-0.08-4.02,1.29-5.7c2.09-2.55,3.62-5.27,2.95-8.77c-0.1-0.51,0.19-1.18,0.48-1.66c2.04-3.27,2.57-7.03,3.74-10.6
			c1.34-4.1,5.15-7.07,5.79-11.61c0.07-0.47,0.72-0.89,1.17-1.27c2.17-1.81,3.08-4.1,3.18-6.92c0.07-2.02,0.86-4.03-0.46-5.93
			c0.98-2.42,1.53-5.17,3.08-7.15c1.33-1.7,1.9-3.51,2.74-5.33c0.84-1.84,2.12-3.48,3.12-5.26c0.42-0.75,0.77-1.62,0.84-2.46
			c0.14-1.77,0.31-3.47,1.43-4.96c1.4-1.86,0.04-4.02,0.57-5.96c0.3-1.11,0.75-2.2,1.29-3.21c0.67-1.25,2.19-2.18,1.84-3.8
			c-0.42-1.97,1.13-3.19,1.49-4.84c0.22-1-1.27-2.25-2.28-1.91c-0.55,0.19-1.21,0.27-1.59,0.64c-2.82,2.7-5.3,5.51-2.94,9.84
			c0.33,0.61,0.11,1.84-0.32,2.47c-0.98,1.43-2.19,2.74-3.43,3.97c-0.82,0.8-1.94,1.29-2.79,2.06c-1.32,1.19,0.08,2.79-0.47,4.1
			c-0.57,1.34-1.61,2.57-1.8,3.95c-0.42,2.99-3.26,4.89-3.32,8c-0.01,0.5-0.44,1.15-0.86,1.47c-2.01,1.55-1.49,3.48-1.15,5.53
			c0.25,1.52-0.62,2.83-1.9,3.71c-1.22,0.84-2.52,1.65-2.6,3.28c-0.11,2.3-1.48,3.71-3.13,5c-1.68,1.31-2.93,2.83-2.85,5.15
			c0.02,0.54-0.17,1.21-0.5,1.63c-1.63,2.09-3.18,4.11-2.44,7.08c0.16,0.64-0.53,1.69-1.11,2.28c-1.69,1.73-3.15,3.4-2.33,6.14
			c0.21,0.71-0.22,1.77-0.66,2.49c-1.35,2.23-2.94,4.3-3.34,7.03c-0.09,0.64-1.13,1.52-1.83,1.62c-2.67,0.41-3.27,2.02-2.95,4.35
			c0.04,0.29,0.02,0.61,0.13,0.86C475.93,817.74,473.99,819.22,472.19,820.74z M1416.36,818.21c1.15,0.21,2.3,0.32,3.4,0.63
			c1.63,0.45,2.54,1.84,2.25,3.22c-0.06,0.28-0.14,0.58-0.27,0.83c-1.17,2.3-1.05,4.4,0.57,6.53c1.41,1.85,2.41,4.01,3.78,5.89
			c1.55,2.12,3.31,3.99,3.79,6.79c0.4,2.33,3.19,3.31,3.78,5.78c0.41,1.74,1.78,3.14,3.36,3.89c2.36,1.11,3.47,2.89,4.1,5.28
			c0.41,1.56,1.68,2.34,3.29,2.38c1.85,0.05,3.5,0.4,4.26,2.37c1.55,0.6,3.11,1.21,4.66,1.81c-0.03,0.58,0.02,1.18-0.1,1.74
			c-0.39,1.84-0.17,3.47,1.37,4.75c0.45,0.37,0.83,0.82,1.23,1.25c1.08,1.17,1.33,2.5,0.95,4.05c-0.27,1.12-0.47,2.29-0.48,3.44
			c0,0.36,0.7,0.94,1.16,1.04c1.49,0.33,2.34,0.99,3.21,2.44c2.24,3.71,4.95,7.14,7.56,10.62c1.57,2.09,3.12,4.25,5.53,5.49
			c0.41,0.21,1.15,0.11,1.59-0.12c1.6-0.85,2.23-2.28,1.42-3.56c-1.75-2.76-2.63-5.84-3.76-8.85c-1.02-2.72-2.07-5.48-3.55-7.96
			c-1.01-1.69-2.78-2.93-4.19-4.39c-0.4-0.42-0.66-1-1.1-1.35c-1.5-1.17-2.16-2.71-2.22-4.55c-0.07-2.25-1.38-3.8-2.95-5.17
			c-0.87-0.76-1.86-1.4-2.86-1.98c-0.85-0.49-1.26-1.24-1.31-2.11c-0.07-1.18-0.13-2.23-1.13-3.11c-2.32-2.06-3.11-4.84-3.5-7.81
			c-0.22-1.72-0.62-3.43-1.04-5.12c-0.29-1.15-0.92-2.12-2.04-2.7c-0.78-0.4-1.47-0.98-2.27-1.32c-2.37-1.01-3.59-2.9-4.21-5.27
			c-0.22-0.85-0.43-1.71-0.55-2.57c-0.32-2.25-1.83-3.65-3.58-4.72c-1.22-0.75-2.7-1.07-4.02-1.67c-1.75-0.8-2.64-2.18-2.55-4.16
			c0.05-1.15,0.32-2.46-0.11-3.44c-1.04-2.37-1.94-4.8-3.97-6.72c-3.83-3.62-7.42-7.65-9.07-12.68c-1.38-4.2-4.35-7.54-5.5-11.8
			c-0.36-1.33-1.45-2.51-2.36-3.64c-1.83-2.27-3.7-4.52-5.67-6.67c-2.82-3.08-5.15-6.54-5.95-10.57c-0.73-3.69-2.54-6.54-5.12-8.95
			c-1.97-1.85-3.33-4-4.66-6.29c-3.23-5.54-6.14-11.25-9.92-16.5c-2.18-3.03-4.5-6.18-5.34-10c-0.45-2.06-1.77-3.51-2.96-5.18
			c-5.76-8.09-11.44-16.28-15.58-25.35c-1.84-4.04-4.18-7.76-6.89-11.14c-2.77-3.46-5.12-7.13-7.1-11.02
			c-2.12-4.19-4.72-8.06-7.34-11.92c-4.73-6.98-10.14-13.54-13.01-21.64c-0.1-0.27-0.31-0.5-0.45-0.75
			c-1.87-3.3-3.91-6.52-5.57-9.92c-1.93-3.96-4.36-7.56-7.06-11.01c-2.51-3.22-5.19-6.31-7.14-9.95c-0.68-1.26-1.8-2.29-2.73-3.41
			c-0.59-0.7-1.74-0.93-2.33-0.43c-1.98,1.63-3.94,3.29-6.03,5.04c1.27,1.88,2.53,3.46,3.46,5.22c0.95,1.79,1.56,3.76,2.34,5.64
			c1,2.42,1.79,4.97,3.09,7.22c2.92,5.06,6.12,9.95,9.16,14.94c1.21,1.98,2.42,3.99,3.38,6.1c1.94,4.27,4.64,8.03,7.28,11.87
			c4.45,6.49,9.32,12.69,12.8,19.86c2.8,5.76,5.93,11.37,8.94,17.03c2.16,4.07,4.06,8.33,6.99,12.02c2.89,3.65,5.55,7.51,8.05,11.44
			c3.76,5.91,7.39,11.91,10.91,17.96c2.16,3.71,5.87,6.63,5.97,11.44c0.01,0.51,0.46,1.08,0.85,1.5
			c6.59,7.11,10.1,16.41,16.77,23.47c0.98,1.03,1.6,2.45,2.22,3.76c0.9,1.91,2.25,3.39,3.86,4.69c1.59,1.29,3.51,2.35,4.64,3.96
			c1.3,1.85,1.89,4.21,2.8,6.34c0.34,0.8,0.78,1.57,1.05,2.4c0.76,2.31,1.97,4.14,4.22,5.33c2.25,1.18,2.94,3.43,3.56,5.77
			c0.49,1.84-1.03,2.49-1.6,3.7c-0.76,1.62,0.5,2.7,1.4,3.8c0.82,1,1.84,1.37,3.07,0.73c0.51-0.27,1.01-0.59,1.55-0.78
			c1.3-0.44,2.21,0.28,2.57,1.56C1417.93,814.8,1416.88,816.3,1416.36,818.21z M1349.56,494.39c-3.6,1.62-7.3,3.29-11,4.96
			c-1.16,0.52-1.93,1.5-2,2.67c-0.11,1.98-1.06,3.17-2.68,4.17c-1.74,1.07-3.29,2.63-5.55,2.01c-3.56-0.97-6.79,1.4-10.34,0.91
			c-0.94-0.13-2.45,0.67-2.99,1.51c-1.67,2.56-3.87,2.9-6.65,2.62c-2.59-0.27-5.23-0.06-8.48-0.06c-1.03,1.3-2.29,2.88-3.5,4.42
			c0.15,0.1,0.61,0.7,1.02,0.67c1.73-0.13,3.44-0.47,5.17-0.68c0.18-0.02,0.57,0.28,0.57,0.43c0.01,0.52,0.09,1.26-0.2,1.53
			c-1.78,1.64-3.88,2.43-6.36,2.44c-3.47,0.02-7.05-0.24-9.75,2.81c-0.45,0.51-1.67,0.3-2.49,0.54c-2.62,0.77-3.99,2.44-4.1,4.94
			c-0.03,0.58-0.04,1.17-0.02,1.75c0.09,2.39,1.18,3.66,3.52,4.4c1.48,0.46,2.92,0.38,4.28-0.18c1.33-0.55,2.52-1.44,3.84-2
			c0.39-0.16,1.07,0.2,1.55,0.46c0.57,0.3,0.25,1.62-0.56,2.07c-1,0.55-2.04,1.02-3.1,1.44c-1.07,0.42-2.19,0.72-3.26,1.13
			c-0.17,0.07-0.21,0.49-0.29,0.76c-0.18,0.6,0.1,1,0.8,1.24c1.82,0.61,3.53,0.08,5.01-0.83c2.97-1.85,5.86-3.77,9.12-5.14
			c1.64-0.69,2.66-2.35,1.73-4.36c-0.29-0.62-0.39-1.12,0.22-1.54c0.95-0.67,3.47-0.67,4.12,0.17c0.44,0.58,0.4,1.54,0.63,2.58
			c3.48-0.76,7.03-1.24,9.83-3.44c3.23-2.55,6.24-5.26,10.67-5.43c0.79-0.03,1.61-0.67,2.32-1.17c2.18-1.53,4.64-2.52,7.17-3.14
			c2.65-0.65,5.01-1.76,6.88-3.63c1.61-1.61,3.39-2.11,5.53-2.03c0.86,0.03,1.76-0.12,2.58-0.39c3.59-1.18,7.32-2.09,10.69-3.75
			c3.9-1.91,8.11-3.31,11.57-6.05c0.62-0.49,1.31-1.14,0.61-2.17c-0.74-1.11-0.57-2.25,0.38-3.13c0.85-0.79,1.92-1.34,2.77-2.13
			c1.95-1.82,4.24-1.58,6.6-1.35c1.39,0.14,1.66,1.51,2.52,2.04c1.8,1.1,4.14,1.29,5.89,0.3c4.42-2.49,9.38-3.1,14.1-4.49
			c3-0.88,5.28-2.29,7.08-5.01c1.04,0.25,2.16,0.46,3.25,0.78c1.62,0.47,2.71-1.01,4.09-1.09c4.47-0.24,8.21-2.86,12.48-3.64
			c1.79-0.33,3.45-0.78,4.65-2.15c1.83-2.08,5.09-1.49,6.78-3.77c1.71-0.34,3.42-0.95,5.14-0.97c3.16-0.05,5.71-0.92,7.35-3.81
			c0.25-0.44,1.04-0.98,1.38-0.87c2.21,0.73,3.09-0.75,4.18-2.15c0.5-0.64,1.27-1.2,2.03-1.49c2.16-0.83,4.36-1.96,6.6-2.1
			c2.35-0.15,4.53-0.63,6.79-1.11c1.28-0.27,2.61,1.06,4.18,0.44c1.88-0.74,3.88-1.17,5.79-1.85c0.81-0.29,1.55-0.82,2.26-1.31
			c0.14-0.1,0.08-0.56,0.04-0.84c-0.04-0.23-0.17-0.61-0.31-0.64c-1.12-0.23-2.25-0.53-3.39-0.56c-2.71-0.07-4.98,1.61-7.5,2.1
			c-2.52,0.49-5.21-0.36-7.78,0.62c-4.4,1.68-9.07,2.14-13.7,2.73c-2.31,0.3-4.63,0.57-6.89,1.11c-3.71,0.89-7.44,1.49-11.27,1.4
			c-1.79-0.04-3.3,0.57-4.9,1.47c-3.05,1.69-6.36,2.66-9.92,3.1c-3.15,0.39-6.28,0.88-9.43,0.65c-0.11,0.76-0.38,1.36-0.24,1.84
			c0.49,1.72,1.46,3.13,2.89,4.28c0.88,0.71,1.67,1.58,2.37,2.48c0.84,1.08-0.12,3.02-1.57,3.31c-1.47,0.29-2.36-0.01-2.72-1.37
			c-1.07-3.97-3.65-5.75-7.65-5.65c-2.04,0.05-4.08,0.22-5.87-1.18c-0.38-0.3-1.14-0.37-1.64-0.23c-2.24,0.6-4.74,0.88-6.6,2.1
			c-2.8,1.85-5.63,2.91-8.95,3c-0.78,0.02-1.66,0.62-2.28,1.19c-1.63,1.48-3.65,1.7-5.67,2.03c-1.32,0.21-1.95,1.16-2.25,2.35
			c-0.14,0.56-0.12,1.16-0.27,1.72c-0.59,2.27-1.55,3.11-3.54,3.06c-2.04-0.05-4.09-0.35-6.11-0.2c-1.98,0.15-3.92,0.99-5.9,1.1
			c-3.04,0.16-5.33,2.18-8.11,2.95C1351.73,495.52,1350.72,495,1349.56,494.39z M1574.65,444.33c1.47,0.1,2.91,0.21,4.36,0.29
			c0.28,0.02,0.58-0.03,0.84-0.13c0.22-0.09,0.53-0.26,0.58-0.45c0.19-0.71-0.17-1.08-0.95-1.09c-0.29,0-0.58,0.01-0.87-0.03
			c-0.85-0.1-1.67-0.32-1.89-1.3c-0.14-0.62,1.03-1.68,1.79-1.63c7.53,0.47,15.15-0.08,22.58,1.73c2.76-0.42,5.1,0.27,7.22,2.22
			c0.72,0.67,2.16,0.78,3.27,0.77c4.62-0.01,9.21-1.09,13.85-0.12c1.13,0.23,2.33,0.12,3.49,0.16c4.93,0.16,9.9-0.29,14.71,1.52
			c1.2,0.45,2.85-0.16,4.26-0.45c0.34-0.07,0.79-0.85,0.74-1.24c-0.06-0.47-0.52-1.11-0.95-1.27c-2.8-1.05-5.75-0.73-8.65-0.79
			c-1.44-0.03-3.1,0.23-4.28-0.38c-2.78-1.44-5.78-0.67-8.59-1.38c-3.11-0.79-6.21-1.66-9.49-1.36c-0.85,0.08-1.79-0.03-2.59-0.33
			c-7.29-2.79-15.06-0.74-22.46-2.25c-2.62,0.91-5.12,0.4-7.7-0.38c-1.63-0.49-3.46-0.45-5.2-0.43c-2.92,0.05-5.88,0.01-8.73,0.49
			c-3.28,0.56-6.24-1.01-9.49-0.82c-6.7,0.4-13.43,0.3-20.14,0.47c-4.36,0.11-8.73-0.18-13.01,1.29c-1.86,0.64-4.05,0.28-6.09,0.43
			c-0.83,0.06-1.66,0.21-2.47,0.42c-0.19,0.05-0.37,0.48-0.38,0.75c-0.01,0.2,0.23,0.47,0.43,0.6c1.09,0.75,2.22,0.33,3.33,0.02
			c2.33-0.66,4.51-0.85,6.57,0.93c0.83,0.72,2.23,0.75,3.15,1.4c1.9,1.36,3.71,1.51,5.65,0.21c3.73,0.37,7.39-1.61,11.16-0.3
			c1.53,0.53,2.84-0.09,3.99-1.1c1.48-1.28,3.06-1.59,4.78-0.5c1.07,0.68,2.2,0.68,3.35,0.29c2.83-0.97,5.74-0.91,8.66-0.62
			c1.52,0.15,2.75,0.93,3.68,2.13C1573.68,442.8,1574.12,443.55,1574.65,444.33z M1364.1,473.05c-2.18,2.92-4.02,5.53-6.03,8
			c-1.12,1.37-2.36,2.3-4.43,1.05c-1.85-1.12-4.09-0.92-5.56,0.91c-1.42,1.77-3.16,2.43-5.29,2.52c-0.55,0.03-1.2,0.18-1.62,0.51
			c-0.4,0.31-0.59,0.92-0.79,1.43c-0.04,0.11,0.24,0.5,0.4,0.51c2.6,0.26,5.21,0.71,7.8,0.62c1.65-0.05,3.27-0.96,4.92-1.4
			c0.8-0.21,1.86,0.07,2.45-0.36c4.24-3.03,9.15-5.13,12.65-9.19c1.57-1.82,3.58-2.7,6.16-2.65c1.98,0.04,4.17-0.29,5.94-1.15
			c5.01-2.43,10.36-3.56,15.72-4.73c0.94-0.2,1.59-1.18,1.23-1.87c-0.25-0.48-0.61-1.19-1.01-1.26c-3.64-0.68-7.2-1.57-10.92,0.24
			c-2.3,1.12-5.02,1.38-7.55,2.05c-1.43,0.37-2.82,0.87-3.71,2.13c-1.11,1.57-2.6,2.19-4.47,2.25
			C1368.27,472.7,1366.53,472.88,1364.1,473.05z M1418.86,460.28c-2.98,0.27-5.59,0.5-8.19,0.78c-0.16,0.02-0.45,0.51-0.39,0.64
			c0.2,0.41,0.59,1.11,0.82,1.08c4.87-0.67,9.76-1.26,14.34-3.28c1.27-0.56,2.77-0.6,4.17-0.83c0.17-0.03,0.5,0.25,0.56,0.45
			c0.08,0.26,0.09,0.7-0.06,0.84c-0.58,0.52-1.57,1.07-1.01,1.82c0.64,0.87,3.42,0.18,3.67-0.9c0.87-3.73,3.63-5.29,6.95-5.43
			c2.89-0.12,4.99-1.18,6.89-3.11c0.19-0.2,0.51-0.28,0.72-0.39c3.54-0.13,7.04-0.24,10.53-0.38c1.15-0.05,2.58,0.24,3.4-0.32
			c2.17-1.48,4.44-1,6.75-1.06c1.06-0.03,2.17-0.69,3.13-1.27c1.11-0.67,1.23-1.99,0.37-2.95c-0.58-0.64-1.27-1.17-1.93-1.77
			c-3.22,0.3-6.49,0.23-9.56,0.98c-3.36,0.82-6.6,2.27-9.78,3.69c-1.66,0.75-3.28,1.12-5.05,1.08c-1.46-0.03-2.92,0.06-4.38,0.01
			c-2.75-0.09-5.19,0.41-6.99,2.81c-0.45,0.61-1.46,1.02-2.26,1.1C1426.4,454.39,1422.24,456.9,1418.86,460.28z M1394.96,546.64
			c1.42-0.31,3.09-0.23,4.16-0.99c3.82-2.71,8.59-3.32,12.45-6.01c1.78-1.24,4.54-0.99,6.59-1.98c2.91-1.4,5.65-2.94,9.05-2.45
			c0.51,0.07,1.27-0.17,1.6-0.55c1.85-2.12,4.9-1.83,6.92-3.51c1.66-1.38,3.57-1.76,5.64-2.01c3.16-0.37,6.4-0.5,9.28-2.16
			c1.24-0.71,1.85-2.24,1.26-3.74c-0.21-0.54-0.48-1.07-0.83-1.52c-0.53-0.68-1.13-1.21-2.18-0.95c-2.41,0.6-3.74,2.67-5.63,3.98
			c-2.23,1.55-5.24,0.02-7.52,1.71c-1.92,1.42-4.17,1.96-6.49,2.38c-4.9,0.89-9.42,2.85-13.7,5.36c-1.25,0.73-2.4,1.54-3.92,1.75
			c-4.38,0.59-8.17,2.85-12.16,4.55c-2.36,1.01-4.64,2.24-6.9,3.48c-0.21,0.12-0.22,1.25,0.05,1.48
			C1393.26,545.98,1394.11,546.23,1394.96,546.64z M893.74,803.59c-0.45-0.32-0.86-0.81-1.35-0.93c-1.79-0.43-3.48-0.06-4.92,1.1
			c-3.59,2.91-7.43,5.47-10.29,9.3c-1.89,2.53-4.65,4.33-8.3,3.9c-1.87-0.22-3.46,0.72-4.3,2.41c-1.22,2.48-2.99,4.2-5.62,5.14
			c-0.74,0.26-1.76,1.12-1.78,1.74c-0.09,2.28-2.41,3.18-2.87,5.15c-0.06,0.27-0.09,0.73,0.06,0.83c0.45,0.3,1.03,0.73,1.48,0.64
			c0.81-0.15,1.99-0.44,2.26-1.02c1.06-2.29,2.84-3.58,5.05-4.53c2.68-1.16,5.27-2.52,7.19-4.81c3.8-4.52,8.34-7.92,14.05-9.68
			c1.37-0.42,2.67-1.15,3.9-1.91c2.25-1.39,4.26-3.08,5.27-5.63C893.76,804.79,893.69,804.16,893.74,803.59z M1516.19,447.23
			c0.6,2.29,0.64,2.35-1.09,3.37c-0.99,0.58-2.32,0.98-2.29,2.29c0.07,2.39-1.67,3.07-3.29,3.34c-2.84,0.47-5.72,0.98-8.66,0.66
			c-1.87-0.2-3.31,0.84-4.56,2.15c-0.49,0.52-0.27,1.94,0.36,2.3c1.63,0.93,3.35,1.18,4.83-0.08c0.89-0.76,1.72-2.04,2.83-1.59
			c2.47,1,4.5,0.12,6.68-0.74c0.73-0.29,1.99-0.44,2.45-0.03c2.29,2.07,4.34,0.24,6.46-0.17c3.13-0.61,6.2-1.42,9.45-1.41
			c2.89,0,5.78-0.42,8.66-0.7c0.11-0.01,0.25-0.46,0.24-0.71c-0.01-0.22-0.14-0.55-0.31-0.64c-1.03-0.49-2.09-1.32-3.13-1.31
			c-3.18,0.03-6.35,0.37-9.52,0.62c-4,0.32-4.39,0.04-5.16-3.88c-0.23-1.13-0.42-2.28-0.76-3.38c-0.16-0.52-0.59-1.01-1.03-1.37
			c-0.41-0.34-0.97-0.51-1.48-0.7C1516.01,444.96,1515.78,445.62,1516.19,447.23z M1227.12,495.72c0.09,0.5,0.15,2.62,0.9,4.45
			c1.32,3.23,2.94,6.35,4.67,9.38c1.59,2.77,3.48,5.37,5.27,8.02c0.58,0.87,2.46,1.23,3.15,0.6c0.88-0.79,1.59-1.69,1.29-2.97
			c-0.2-0.85-0.45-1.7-0.79-2.51c-2.93-7.02-7.17-13.29-11.26-19.64c-0.25-0.38-0.99-0.51-1.53-0.63
			C1228.26,492.29,1227.18,493.49,1227.12,495.72z M1167.06,571.63c0.24,0.11,0.53,0.36,0.72,0.3c3.56-1.13,7.05-2.51,10.67-3.38
			c2.45-0.59,4.01-2.19,5.61-3.76c0.98-0.96,1.28-2.62,2.27-3.55c1-0.94,2.62-1.21,3.69-2.1c0.82-0.68,1.26-1.86,1.77-2.87
			c0.3-0.6-0.05-1.29-0.74-1.26c-2.01,0.08-3.99,0.26-5.63,1.77c-1.48,1.35-3.06,2.66-4.78,3.66c-3.23,1.88-6.56,3.59-9.92,5.23
			c-2.3,1.12-3.28,3.1-4.01,5.32C1166.67,571.14,1166.94,571.41,1167.06,571.63z M923.74,781.29c0.09-0.71-0.77-1.39-1.68-1.28
			c-2.7,0.31-4.84,1.68-6.88,3.35c-1.78,1.46-3.62,2.84-5.42,4.28c-1.35,1.08-2.8,2.07-4,3.3c-2.2,2.25-4.2,4.71-6.91,6.42
			c-0.45,0.28-0.81,0.89-0.95,1.42c-0.12,0.48-0.05,1.19,0.24,1.53c0.29,0.32,1.14,0.57,1.45,0.37c1.18-0.75,2.12-2.07,3.37-2.48
			c3.74-1.2,6.52-3.58,9.02-6.44c0.57-0.65,1.12-1.78,1.75-1.84c3.54-0.32,4.48-4.33,7.68-5.14
			C922.93,784.39,923.63,783.03,923.74,781.29z M1354.98,563.44c2.72-1.01,5.43-2.02,8.14-3.02c1.34-0.5,2.85-0.75,4.01-1.53
			c2.98-1.99,6.22-3,9.74-3.35c1.28-0.13,1.75-0.94,1.68-2.47c-0.03-0.57,0.09-1.32-0.21-1.67c-0.51-0.58-1.27-1.17-2-1.28
			c-0.79-0.11-1.76,0.15-2.48,0.56c-3.86,2.2-8.07,3.05-11.95,3.27c-2.48,1.89-4.55,3.46-6.62,5.03
			C1353.44,560.38,1354.01,561.92,1354.98,563.44z M1255.34,542.1c-0.55,4.51,0.27,7.16,2.85,9.11c0.22,0.17,0.38,0.44,0.54,0.68
			c1.19,1.87,2.87,1.62,4.6,1.04c3.2-1.08,3.76-2.96,1.4-4.98c-2.2-1.88-4.6-3.53-6.18-6.05c-0.44-0.7-1.15-1.24-1.8-1.78
			c-0.14-0.12-0.75,0.02-0.8,0.16C1255.55,541.32,1255.25,542.39,1255.34,542.1z M1120.35,663.54c2.45-1.42,5.05-2.54,7.9-3.11
			c1.33-0.27,2.54-1.25,3.74-2.01c0.78-0.49,1-2.12,0.56-3.18c-0.42-1.03-1.84-1.78-2.8-1.34c-3.34,1.53-7.12,2.19-9.77,5.12
			C1118.79,660.32,1118.65,660.87,1120.35,663.54z M1486.6,443.65c-0.93-0.63-1.65-1.53-2.31-1.49c-2.3,0.13-4.58,0.58-6.86,0.94
			c-0.8,0.13-1.22,1.36-0.47,2.08c1.52,1.44,1.61,2.74,0.47,4.44c-0.5,0.74,0.34,1.75,1.09,1.89c2.26,0.42,3.81-1.21,5.67-1.89
			c1.51-0.55-0.02-2,0.68-2.93C1485.54,445.81,1485.98,444.76,1486.6,443.65z M1546.67,455.8c2.34-0.14,3.77-0.18,5.18-0.34
			c0.54-0.06,1.04-0.42,1.57-0.61c0.7-0.25,0.94-0.71,0.54-1.35c-0.28-0.45-0.67-1.15-1.06-1.18c-2.86-0.26-5.69-0.16-8.32,1.2
			c-0.25,0.13-0.54,0.29-0.67,0.52c-0.12,0.21-0.11,0.54-0.04,0.79c0.06,0.24,0.24,0.59,0.42,0.62
			C1545.37,455.65,1546.47,455.77,1546.67,455.8z M1323.6,555.43c3.17,0.31,4.16-0.62,4.12-3.92c0-0.29,0.06-0.68-0.09-0.85
			c-0.35-0.39-0.86-1.01-1.23-0.96c-1.43,0.2-2.85,0.56-4.22,1c-0.94,0.3-1.44,1.78-1.26,2.97c0.16,1.08,1.03,1.28,1.83,1.57
			C1323.01,555.35,1323.31,555.37,1323.6,555.43z M1534.4,506.34c1.91-0.2,4.2-0.4,6.47-0.75c0.28-0.04,0.48-0.89,0.6-1.4
			c0.04-0.17-0.27-0.45-0.47-0.64c-0.94-0.89-2.33-1.16-3.21-0.61c-2.43,1.5-4.95,1.44-7.59,1.18c-0.55-0.05-1.15,0.14-1.68,0.33
			c-0.22,0.08-0.52,0.52-0.47,0.68c0.16,0.44,0.46,1.14,0.75,1.15C1530.53,506.39,1532.27,506.34,1534.4,506.34z M1577.75,455.56
			c1.94-0.11,3.96-0.24,5.43-1.73c0.48-0.49,0.63-1.47,0.64-2.24c0.01-0.67-1.37-1.47-1.92-1.24c-1.79,0.74-3.59,1.47-5.31,2.35
			c-0.35,0.18-0.59,0.97-0.54,1.45c0.05,0.43,0.52,0.86,0.88,1.21C1577.09,455.52,1577.45,455.49,1577.75,455.56z M848.46,797.02
			c-0.39-0.36-1.01-1.37-1.48-1.3c-2.54,0.38-4.76,1.67-6.8,3.15c-0.43,0.31-0.28,1.57-0.21,2.37c0.05,0.56,0.78,0.69,1.22,0.08
			c1.24-1.73,2.62-1.87,4.37-0.81c1.13,0.68,2.35-0.44,2.61-1.44C848.31,798.53,848.34,797.95,848.46,797.02z M1565.3,1100.14
			c-0.39,1.91-0.71,3.28-0.94,4.66c-0.16,0.95,0.25,1.69,1.17,1.99c0.81,0.26,1.66,0.39,2.5,0.51c0.99,0.14,1.54-0.65,1.17-1.66
			C1568.5,1103.79,1568.06,1101.77,1565.3,1100.14z M839.79,842.87c0.51,0.19,0.79,0.41,0.98,0.34c2.13-0.72,4.24-1.46,6.33-2.28
			c0.09-0.04,0.01-0.94-0.22-1.28c-0.3-0.44-0.77-0.87-1.27-1.04c-2.27-0.8-4.5-0.06-5.86,2.11
			C839.41,841.25,839.76,842.21,839.79,842.87z M1245.5,615.21c-0.58-0.94-1.04-2.06-1.83-2.84c-0.68-0.67-1.6-0.22-2.28,0.41
			c-0.8,0.73-0.93,1.76-0.19,2.18c0.99,0.56,2.04,1.02,3.12,1.35C1244.54,616.37,1245,615.69,1245.5,615.21z M1661.52,446.5
			c-0.69,0-1.02-0.1-1.24,0.02c-0.39,0.21-0.76,0.51-1.05,0.86c-0.07,0.08,0.16,0.54,0.36,0.7c1.36,1.14,3.01,1.44,4.71,1.37
			c0.34-0.02,0.95-0.66,0.92-0.97c-0.04-0.48-0.44-1.16-0.85-1.31C1663.34,446.78,1662.21,446.65,1661.52,446.5z M775.44,851.65
			c3.04,1.01,5.02-0.67,6.99-2.16c0.15-0.11-0.11-1.09-0.44-1.43c-0.33-0.34-1.05-0.65-1.46-0.52
			C778.4,848.2,776.84,849.63,775.44,851.65z M1450.33,458.56c1.33-0.19,2.75-0.38,4.16-0.59c0.99-0.15,1.73-0.87,1.55-1.63
			c-0.12-0.51-0.38-1.07-0.76-1.4c-0.67-0.6-1.55-0.85-2.36-0.27c-1.16,0.84-2.27,1.77-3.37,2.7c-0.1,0.09-0.08,0.48,0.03,0.64
			C1449.73,458.21,1450.01,458.34,1450.33,458.56z M1011.4,684.45c0.25-0.85-0.79-2.32-1.91-2.34c-0.73-0.01-1.78,0.36-2.12,0.91
			c-0.73,1.19,0.43,3.5,1.51,3.4C1009.83,686.34,1011.15,685.31,1011.4,684.45z M594.89,554.31c-0.72-0.81-1.2-1.87-1.78-1.92
			c-1.47-0.13-2.62,0.85-3.36,2.07c-0.18,0.29,0.21,1.04,0.5,1.47c0.51,0.75,1.38,1.26,2.16,0.77
			C593.31,556.15,593.97,555.22,594.89,554.31z M1285.89,511.74c-0.5,0.15-1.1,0.18-1.47,0.49c-1.16,0.97-1.2,2.28-0.35,3.64
			c0.37,0.6,0.84,0.8,1.42,0.41c0.65-0.44,1.37-0.88,1.84-1.49C1288.23,513.62,1287.38,511.95,1285.89,511.74z M1386.28,546.91
			c-0.85-0.12-1.71-0.37-2.55-0.32c-1.64,0.1-2.39,1.74-1.44,3.19c0.23,0.35,1.12,0.67,1.45,0.5
			C1385.04,549.62,1386.19,548.72,1386.28,546.91z M1158.18,641.4c0.47-0.25,0.97-0.48,1.4-0.8c0.11-0.08,0.03-0.52-0.07-0.74
			c-0.71-1.47-1.94-1.97-3.46-1.62c-0.71,0.16-0.8,0.71-0.47,1.29C1156.16,640.56,1156.95,641.27,1158.18,641.4z M1397.18,519.2
			c-0.5,0.53-1.11,0.88-1.14,1.26c-0.03,0.44,0.39,1.25,0.74,1.32c1.07,0.22,2.2,0.19,3.31,0.19c0.23,0,0.68-0.34,0.66-0.46
			c-0.07-0.45-0.19-1.13-0.49-1.27C1399.25,519.78,1398.15,519.51,1397.18,519.2z M1343.95,565.63c-0.73,0.26-1.26,0.4-1.74,0.64
			c-0.2,0.1-0.46,0.5-0.4,0.6c0.4,0.71,0.78,1.47,1.36,2c0.31,0.29,1.29,0.41,1.48,0.18c0.49-0.57,1.07-1.46,0.94-2.06
			C1345.44,566.42,1344.46,566.03,1343.95,565.63z M1251.69,612.05c0.2-1.31-0.52-2.2-1.43-2.09c-0.48,0.06-1.18,0.42-1.31,0.8
			c-0.26,0.78-0.23,1.66-0.24,2.51c0,0.24,0.27,0.67,0.45,0.7c0.48,0.06,1.18,0.12,1.44-0.15
			C1251.15,613.22,1251.48,612.42,1251.69,612.05z M1332.5,494.87c0-1.31,0.13-2.16-0.06-2.94c-0.09-0.38-0.75-0.67-1.21-0.89
			c-0.15-0.07-0.63,0.14-0.68,0.3c-0.14,0.49-0.37,1.16-0.16,1.5C1330.81,493.49,1331.51,493.96,1332.5,494.87z M1078.03,682.69
			c-0.17-0.19-0.31-0.54-0.5-0.56c-1.22-0.13-2.76,1.3-2.01,1.77c0.82,0.52,1.33-0.38,1.99-0.61
			C1077.72,683.22,1077.86,682.9,1078.03,682.69z M1604.2,479.42c0-0.38,0.03-0.79,0-0.79c-0.85-0.14-1.7-0.27-2.55-0.33
			c-0.75-0.05-1.26,0.39-1.03,1.04c0.13,0.38,0.83,0.83,1.23,0.8C1602.65,480.05,1603.44,479.67,1604.2,479.42z M1182.96,625.58
			c-0.55,0.07-1.19,0-1.62,0.26c-0.36,0.22-0.66,0.85-0.64,1.28c0.03,0.72,0.59,0.94,1.28,0.66c0.52-0.21,1.05-0.39,1.54-0.66
			c0.21-0.12,0.5-0.57,0.45-0.63C1183.68,626.16,1183.3,625.88,1182.96,625.58z M1567.96,483.04c-0.13-0.45-0.15-0.7-0.26-0.89
			c-0.32-0.59-0.79-0.71-1.4-0.44c-0.77,0.35-1.44,0.83-1.34,1.75c0.05,0.46,0.42,0.91,0.73,1.29c0.07,0.09,0.57-0.03,0.75-0.19
			C1567,484.06,1567.51,483.49,1567.96,483.04z M1591.49,454.32c-0.41-0.35-0.62-0.69-0.82-0.68c-0.76,0.05-1.52,0.18-2.26,0.35
			c-0.12,0.03-0.27,0.57-0.24,0.59c0.43,0.25,0.92,0.69,1.33,0.62C1590.17,455.1,1590.77,454.66,1591.49,454.32z M1674.81,451.01
			c0.2,0.18,0.37,0.43,0.61,0.53c0.85,0.34,1.62,0.12,2.22-0.56c0.05-0.06-0.17-0.53-0.27-0.53c-0.75-0.05-1.51-0.04-2.26,0.01
			C1675,450.47,1674.91,450.82,1674.81,451.01z M1385.02,525.03c-0.4,0.34-0.76,0.5-0.79,0.7c-0.1,0.75-0.13,1.51-0.09,2.27
			c0.01,0.19,0.39,0.35,0.6,0.53c0.31-0.4,0.89-0.81,0.88-1.21C1385.61,526.58,1385.26,525.86,1385.02,525.03z M1685.78,455.08
			c-0.17-0.07-0.6,0.14-0.7,0.34c-0.36,0.69-0.06,1.16,0.75,1.09c0.44-0.04,0.84-0.39,1.27-0.6
			C1686.65,455.62,1686.24,455.28,1685.78,455.08z M1359.07,539.57c0.48-0.29,0.96-0.57,1.44-0.86c-0.46-0.3-0.89-0.78-1.38-0.86
			c-1.09-0.17-2.07,0.65-1.55,1.1C1357.97,539.28,1358.56,539.37,1359.07,539.57z M1369.28,488.47c0.47-0.25,0.94-0.49,1.4-0.74
			c-0.38-0.3-0.72-0.78-1.14-0.88c-0.94-0.21-1.97,0.53-1.61,0.97C1368.22,488.18,1368.82,488.27,1369.28,488.47z M1146.39,644.46
			c0.1-0.1,0.06-0.49-0.05-0.65c-0.39-0.54-1.65-0.56-2.14-0.03c-0.14,0.15-0.21,0.59-0.1,0.69c0.33,0.32,0.75,0.74,1.14,0.74
			C1145.63,645.21,1146.05,644.78,1146.39,644.46z M1320.1,575.33c0.44,0.7,0.62,1.26,1,1.5c0.56,0.35,1.17,0.07,1.32-0.58
			c0.09-0.42-0.15-0.92-0.24-1.38C1321.52,575.02,1320.87,575.16,1320.1,575.33z M1235.44,618.42c0.21-0.08,0.57-0.14,0.6-0.26
			c0.04-0.22-0.11-0.48-0.19-0.72c-0.23,0.08-0.47,0.15-0.7,0.23C1235.24,617.92,1235.34,618.17,1235.44,618.42z M1185.73,620.91
			c-0.22-0.08-0.47-0.26-0.65-0.21c-0.76,0.19-0.79,0.54-0.07,0.84c0.18,0.07,0.47-0.05,0.67-0.16
			C1185.75,621.34,1185.71,621.08,1185.73,620.91z M1592.64,1149.75c-0.22-0.59-0.67-0.81-1.32-0.58c-0.24,0.09-0.43,0.34-0.64,0.52
			c0.36,0.31,0.68,0.76,1.09,0.87C1591.97,1150.62,1592.34,1150.04,1592.64,1149.75z M1168.58,635.55
			c-0.05-0.19-0.04-0.47-0.16-0.54c-0.2-0.12-0.53-0.21-0.71-0.12c-0.65,0.32-0.57,0.68,0.19,0.86
			C1168.1,635.81,1168.35,635.62,1168.58,635.55z M1350.73,563.69c-0.32-0.38-0.56-0.93-0.97-1.1c-0.51-0.21-1.26,1.21-0.87,1.82
			c0.2,0.31,0.8,0.57,1.19,0.53C1350.72,564.87,1350.93,564.33,1350.73,563.69z M1063.04,643.84c-0.21-0.06-0.43-0.18-0.64-0.17
			c-0.08,0-0.15,0.29-0.23,0.45c0.22,0.07,0.43,0.18,0.64,0.17C1062.89,644.29,1062.96,644,1063.04,643.84z M1312.65,555.87
			c0.03,0.22-0.02,0.55,0.1,0.64c0.18,0.13,0.54,0.21,0.73,0.12c0.68-0.32,0.63-0.72-0.13-0.97
			C1313.16,555.6,1312.89,555.79,1312.65,555.87z M804.94,828.22c0.28,0.32,0.52,0.85,0.81,0.88c0.43,0.04,0.9-0.28,1.35-0.44
			c-0.26-0.31-0.49-0.86-0.77-0.89C805.9,827.73,805.44,828.05,804.94,828.22z M818.25,821.05c-0.7-0.05-0.89,0.19-0.48,0.64
			c0.07,0.08,0.42-0.1,0.65-0.17C818.36,821.37,818.3,821.21,818.25,821.05z M830.54,811.17l0.09-0.53l-0.68,0.19L830.54,811.17z
			 M1416.4,512.39c0.5,0.18,0.94,0.41,1.4,0.48c0.16,0.03,0.38-0.31,0.57-0.48c-0.34-0.25-0.68-0.67-1.04-0.7
			C1417.05,511.66,1416.73,512.12,1416.4,512.39z M1422.13,510.46l-0.53-0.34l-0.05,0.58L1422.13,510.46z M1014.86,681
			c-0.18-0.2-0.34-0.55-0.53-0.56c-0.19-0.02-0.41,0.3-0.62,0.47c0.18,0.2,0.34,0.55,0.53,0.56
			C1014.43,681.48,1014.65,681.17,1014.86,681z M1093.2,673.44c-0.19,0.15-0.38,0.3-0.56,0.45c0.16,0.18,0.3,0.5,0.47,0.51
			c0.17,0.02,0.37-0.26,0.56-0.41C1093.51,673.81,1093.35,673.63,1093.2,673.44z M1174.6,626.35c-0.16-0.17-0.32-0.48-0.49-0.49
			c-0.17-0.01-0.36,0.28-0.53,0.44c0.25,0.18,0.5,0.36,0.75,0.53C1174.41,626.67,1174.51,626.51,1174.6,626.35z M1181.11,622.22
			c-0.2,0.15-0.4,0.31-0.61,0.46c0.16,0.2,0.3,0.54,0.48,0.56c0.18,0.02,0.4-0.27,0.6-0.42
			C1181.42,622.62,1181.26,622.42,1181.11,622.22z"/>
		<path d="M732.75,0.87c18.43-0.21,36.85-0.51,55.27-0.59c13.45-0.06,26.9,0.14,40.36,0.32c5.83,0.08,11.64-0.15,17.48,0.85
			c3.97,0.68,8.18,0.43,12.23,0.03c7.91-0.78,15.78,0.2,23.67,0.05c6.42-0.12,12.86,0.44,19.28,0.27c8.49-0.23,16.97,0.12,25.4,0.76
			c9.61,0.73,19.22,1.18,28.84,1.69c2.33,0.12,4.65,0.5,6.98,0.62c5.54,0.3,11.09,0.6,16.64,0.74c7.02,0.17,14.04,0.12,21.05,0.25
			c9.93,0.18,19.86,0.43,29.79,0.66c1.75,0.04,3.51,0.02,5.26,0.17c10.5,0.9,21.03,0.56,31.55,0.9c13.44,0.43,26.91,0.37,40.33,1.03
			c12.87,0.64,25.73,0.31,38.59,0.53c9.36,0.16,18.71,0.17,28.07,0.45c4.08,0.12,8.17,0.58,12.21,1.15c3.49,0.49,5.72,3.3,5.51,6.8
			c-0.19,3.2-0.21,6.53-1.12,9.56c-1.45,4.82-1.97,9.73-2.57,14.66c-0.11,0.87-0.16,1.75-0.31,2.61c-0.57,3.18-2.52,5.32-5.48,6.28
			c-3.04,0.99-6.19,1.66-9.33,2.32c-9.79,2.06-19.71,2.39-29.68,2.2c-9.06-0.17-18.12-0.11-27.17-0.44
			c-7.01-0.25-14-0.52-21.02-0.46c-6.41,0.05-12.82-0.88-19.24-1.32c-5.53-0.38-11.06-0.71-16.59-0.99
			c-5.25-0.27-10.51-0.58-15.77-0.62c-12.87-0.09-25.74,0.09-38.61-0.07c-8.19-0.1-16.36,0.02-24.54,0.14
			c-6.43,0.1-12.86-0.22-19.28-0.26c-3.5-0.02-7,0.26-10.5,0.17c-7.01-0.17-14.02-0.53-21.03-0.76c-1.45-0.05-2.91,0.13-4.36,0.15
			c-2.05,0.02-4.1,0.14-6.14-0.04c-18.09-1.59-36.23-1.38-54.36-1.35c-4.39,0.01-8.78,0.13-13.16,0.03
			c-2.32-0.05-4.75-0.09-6.94-0.76c-4.88-1.48-9.8-1.38-14.78-1.1c-11.1,0.62-22.22,0.51-33.33,0.32
			c-3.83-0.07-7.56-0.45-11.17-1.86c-2.73-1.06-5.59-1.51-8.57-1.46c-6.14,0.09-12.27-0.09-18.41-0.06
			c-9.36,0.03-18.71,0.15-28.07,0.22c-2.34,0.02-4.68,0.12-7.02,0.04c-8.2-0.28-16.36-0.1-24.5,1.14c-2.3,0.35-4.67,0.33-7.01,0.31
			c-11.41-0.09-22.81-0.29-34.22-0.35c-9.36-0.05-18.71,0.1-28.07,0.06c-3.6-0.02-6.73,1.92-10.24,2.16
			c-1.89,1.36-3.74,2.78-5.68,4.07c-2.26,1.51-7.2-0.08-8.33-2.66c-0.34-0.79-0.62-1.65-0.7-2.5c-0.74-8.18-0.71-16.35,0.2-24.51
			c0.5-4.46,2.16-8.39,5.15-11.86c3.07-3.58,6.18-6.97,10.56-9.03c1.9-0.9,3.8-1.52,5.87-1.53c3.8-0.02,7.6,0.01,11.41,0.09
			c12.86,0.26,25.73,0.56,38.59,0.83c2.92,0.06,5.86-0.05,8.77,0.14c13.45,0.88,26.89,0.47,40.34-0.18
			C727.48,0.76,730.12,0.87,732.75,0.87z"/>
		<path d="M1165.41,659.56c0.69,1,1.17,1.73,1.7,2.42c0.58,0.76,0.86,1.66,0.3,2.4c-1.05,1.38-2.07,2.95-3.48,3.86
			c-3.41,2.19-6.97,4.18-10.6,5.98c-1.21,0.6-2.81,0.47-4.24,0.51c-0.49,0.02-1.24-0.33-1.42-0.72c-0.17-0.37,0.12-1.35,0.45-1.48
			c2.09-0.86,2.84-2.69,3.57-4.56c2.83-1.43,4.86-4.16,8.17-4.86C1161.84,662.7,1163.79,661.95,1165.41,659.56z"/>
		<path d="M1217.21,637.49c-0.2,0.51-0.26,1.26-0.64,1.49c-1.22,0.74-2.53,1.36-3.85,1.91c-1.17,0.48-3.2,0.03-3.03-0.52
			c0.32-1.07,0.66-2.33,1.44-3.01c1.05-0.92,2.48-1.41,3.8-1.99C1215.7,635.02,1217.2,636.47,1217.21,637.49z"/>
		<path d="M1176.16,650.65c2.2-0.43,4.03-2.23,6.48-1.75c0.25,0.05,0.59,0.19,0.67,0.38c0.1,0.23,0.06,0.62-0.09,0.82
			c-1.38,1.89-3.41,2.87-5.48,3.73c-0.38,0.16-1.25-0.11-1.45-0.45c-0.2-0.34,0.01-1.1,0.28-1.51c0.41-0.61,0.47-1.04-0.13-1.49
			C1176.41,650.41,1176.16,650.65,1176.16,650.65z"/>
		<path d="M1536.7,1068.23c0.65-0.33,1.34-0.59,1.92-1.02c0.54-0.39,0.96-0.96,1.41-1.48c-0.02-0.03-0.11-0.28-0.12-0.31
			c-0.06,0.82-0.08,1.68-0.17,2.52c-0.08,0.86-0.32,1.74-1.39,1.72c-0.94-0.02-1.47-0.64-1.48-1.61
			C1536.87,1068.06,1536.7,1068.23,1536.7,1068.23z"/>
		<polygon points="1204.03,641.86 1204.25,642.43 1203.7,642.36 		"/>
		<path d="M1536.87,1068.06c-0.76,0.13-1.06-0.11-0.81-0.69c0.02-0.05,0.54-0.01,0.6,0.1c0.1,0.21,0.03,0.5,0.04,0.76
			C1536.7,1068.23,1536.87,1068.06,1536.87,1068.06z"/>
		<path d="M1578.43,1125.21c-0.26-0.14,0.43,0.69-0.2,0.18C1578.21,1125.39,1578.43,1125.21,1578.43,1125.21z"/>
		<polygon points="476.68,812.88 476.53,812.43 476.97,812.51 		"/>
		<path d="M674.07,940.83c0.44-0.19,0.86-0.42,1.31-0.53c0.12-0.03,0.46,0.33,0.46,0.52c0,0.19-0.34,0.56-0.45,0.54
			C674.94,941.25,674.51,941.02,674.07,940.83z"/>
		<path d="M591.03,1000.52c0.08,0.54,0.18,1.07,0.21,1.61c0,0.06-0.43,0.26-0.47,0.21c-0.73-0.76,0.07-1.27,0.38-1.89
			C591.18,1000.42,591.03,1000.52,591.03,1000.52z"/>
		<path d="M1433.52,475.92c0.82,0.12,1.38,0.16,1.91,0.3c0.25,0.07,0.62,0.32,0.63,0.51c0.04,0.49,0.09,1.17-0.19,1.47
			c-1.38,1.5-3.03,1.67-4.44,0.59c-0.69-0.53-0.72-1.82-0.01-2.12C1432.18,476.34,1432.97,476.11,1433.52,475.92z"/>
	</g>
</g>
<g id="Livello_1">
</g>
</svg>
