<?xml version="1.0" encoding="utf-8"?>
<!-- Generator: Adobe Illustrator 25.2.0, SVG Export Plug-In . SVG Version: 6.00 Build 0)  -->
<svg version="1.1" xmlns="http://www.w3.org/2000/svg" xmlns:xlink="http://www.w3.org/1999/xlink" x="0px" y="0px"
	 viewBox="0 0 2878.3 2250.17" style="enable-background:new 0 0 2878.3 2250.17;" xml:space="preserve">
<style type="text/css">
	.st0{fill:#FF0000;}
	.st1{fill:#FFFFFF;stroke:#FFFFFF;stroke-width:20;stroke-linecap:round;stroke-linejoin:round;stroke-miterlimit:10;}
</style>
<g id="bg">
	<circle class="st0" cx="1459.5" cy="1129.29" r="1043.92"/>
	<g>
		<path class="st1" d="M1944.16,1403.42c-0.57-1.41-1.15-2.83-1.69-4.16c0.24-0.29,0.36-0.46,0.5-0.59
			c0.46-0.41,1.39-0.57,1.04-1.44c-0.23-0.57-0.68-1.12-1.17-1.5c-0.3-0.23-0.87-0.15-1.31-0.14c-1.33,0.04-2.04-0.69-2.44-1.86
			c-0.07-0.21-0.2-0.44-0.17-0.64c0.66-4.74-2.14-8.23-4.74-11.48c-2.84-3.54-4.93-7.48-7.27-11.28c-1.29-2.09-2.26-4.36-4.12-6.08
			c-0.8-0.74-1.37-1.78-1.93-2.74c-1.83-3.11-4.08-5.87-6.55-8.48c-1.07-1.13-2-2.41-2.8-3.75c-2.53-4.24-4.97-8.52-7.42-12.8
			c-1-1.75-1.89-3.57-2.89-5.32c-1-1.75-1.99-3.52-3.16-5.15c-1.57-2.2-3.02-4.46-4.09-6.94c-0.8-1.85-1.68-3.67-2.44-5.53
			c-0.8-1.96-2.79-2.9-3.81-4.66c-0.79-1.36-1.67-2.66-2.46-4.02c-1.57-2.7-2.98-5.44-5.39-7.63c-1.62-1.47-2.64-3.6-3.87-5.48
			c-4.41-6.76-8.81-13.52-13.19-20.31c-0.72-1.12-1.29-2.34-1.93-3.5c-0.32-0.57-0.52-1.32-1.01-1.66
			c-2.49-1.72-3.94-4.29-5.51-6.73c-3.64-5.66-7.04-11.48-10.8-17.06c-5.14-7.63-9.62-15.66-14.93-23.19
			c-4.39-6.23-8.34-12.77-12.6-19.1c-2.25-3.33-4.38-6.75-6.87-9.92c-1.66-2.11-3.02-4.45-4.58-6.64
			c-6.78-9.51-12.86-19.46-18.51-29.67c-1.52-2.74-2.73-5.66-4.35-8.34c-1.5-2.49-3.47-4.7-5.03-7.16
			c-3.25-5.11-6.36-10.31-9.53-15.48c-7.26-11.86-14.56-23.7-21.76-35.6c-3.83-6.33-7.51-12.76-11.19-19.18
			c-1.12-1.96-2.37-3.74-4.04-5.31c-2.11-1.98-4.47-2.89-7.64-2.66c-0.58,0.62-1.25,1.49-2.07,2.19c-0.85,0.72-1.81,1.32-2.76,1.9
			c-0.75,0.45-1.58,1.13-2.36,1.12c-2.09-0.02-3.22,1.18-4.42,2.6c-0.85,1.01-1.89,2.13-3.07,2.52c-1.86,0.62-3.91,0.68-5.89,0.96
			c-0.19,0.03-0.41-0.15-0.62-0.22c-0.93-0.27-1.44-1.41-0.89-2.11c1.09-1.42,2.22-2.81,3.43-4.34c-0.42-0.45-0.86-1.3-1.26-1.29
			c-2.2,0.09-4.56-0.03-6.11,2.03c-0.85,1.13-2,2.04-3.25,2.26c-3.74,0.64-6.17,3.54-9.36,5.09c-0.8,1.56-2.49,1.81-3.84,2.52
			c-1.97,1.04-4,1.94-5.75,3.39c-0.83,0.68-1.92,1.14-2.97,1.43c-2.71,0.74-4.84,2.23-6.48,4.47l0.19-0.19
			c-0.43,0.02-0.95-0.11-1.26,0.08c-0.55,0.35-0.9,1.02-1.46,1.34c-2.9,1.64-5.83,3.24-8.78,4.8c-3.96,2.1-7.71,4.49-11.14,7.38
			c-1.18,0.99-2.53,1.84-3.93,2.5c-0.91,0.43-1.31,1.05-1.74,1.85c-1.38,2.59-3.61,3.9-6.54,3.93c-2.53,0.03-4.84,0.63-6.94,2.11
			c-0.9,0.63-1.92,1.13-2.95,1.52c-1.48,0.55-2.93,1.12-4.1,2.24c-0.32,0.31-0.65,0.71-1.04,0.84c-4.81,1.53-8.4,5.11-12.64,7.6
			c-2.69,1.58-5.85,2.35-8.14,4.62c-5.2,2.7-9.77,6.34-14.44,9.81c-7.76,5.77-15.82,11.08-23.93,16.33
			c-2.44,1.58-5.03,2.92-7.51,4.43c-1.14,0.7-2.28,1.45-3.23,2.38c-2.6,2.51-5.51,4.6-8.5,6.59c-7.67,5.1-15.23,10.37-22.98,15.33
			c-7.37,4.72-14.69,9.52-22.06,14.24c-2.83,1.81-5.84,3.41-8.96,4.65c-2.89,1.15-5.41,3.19-8.59,3.63
			c-0.4,0.06-0.95,0.32-1.12,0.64c-1.2,2.36-4.38,2.31-5.58,4.64c-4.27,3.28-8.67,6.4-12.77,9.88c-5.84,4.96-12.29,9.03-18.49,13.48
			c-5.83,4.19-11.59,8.47-17.04,13.15c-2.72,2.34-5.52,4.59-8.31,6.85c-0.69,0.56-1.41,1.25-2.22,1.5c-2.92,0.9-4.9,3.02-7.02,5.02
			c-1.46,1.38-3.05,2.66-4.72,3.76c-2.64,1.74-5.08,3.68-7.38,5.84c-1.47,1.38-3.06,2.69-4.78,3.71c-1.89,1.12-3.82,2.14-6.22,2.28
			c-2.45,0.14-4.81,1.1-6.39,3.26c-3.23,2.08-5.88,4.83-8.7,7.38c-2,1.81-4.1,3.51-6.26,5.11c-1.44,1.07-2.94,2.03-4.16,3.39
			c-0.74,0.83-1.59,1.68-2.56,2.17c-4.28,2.19-7.41,5.79-11.04,8.77c-2.08,1.7-3.91,3.69-6.46,4.77c-0.6,0.26-1.17,0.71-1.6,1.21
			c-3.76,4.24-8.74,6.99-12.99,10.65c-4.75,4.09-9.81,7.83-14.88,11.53c-10.17,7.44-19.62,15.73-28.94,24.17
			c-5.15,4.67-10.03,9.66-16.11,13.2c-2.04,2.14-4.41,3.76-7.14,4.9c-0.79,0.33-1.48,1.01-2.09,1.66c-3.87,4.1-8.3,7.51-12.99,10.61
			c-1.49,0.99-2.77,2.31-4.29,3.26c-1.51,0.94-3.19,1.58-4.17,3.22c-0.21,0.35-0.67,0.62-1.07,0.8c-4.59,2.04-7.94,5.81-11.99,8.59
			c-0.37,0.25-0.85,0.44-1.08,0.79c-2.96,4.37-7.79,6.74-11.3,10.52c-0.91,0.98-1.94,1.94-3.09,2.59
			c-5.67,3.19-10.51,7.68-16.39,10.53c-1.45,0.7-2.64,1.64-3.8,2.72c-3.14,2.89-6.29,5.76-9.5,8.57c-3.2,2.81-6.44,5.57-9.2,8.84
			c-0.86,1.02-1.9,1.91-2.91,2.8c-3.53,3.12-7.07,6.23-10.64,9.3c-1.36,1.17-2.73,2.37-4.25,3.3c-1.74,1.08-3.34,2.26-4.56,3.91
			c-0.26,0.36-0.56,0.75-0.93,0.96c-6.32,3.58-10.58,9.65-16.58,13.67c-3.32,2.22-5.91,5.5-9.55,7.38
			c-1.24,1.57-3.18,2.43-4.13,4.34c-0.48,0.96-1.4,1.75-2.23,2.49c-9.22,8.21-18.3,16.59-27.76,24.52
			c-6.72,5.64-12.97,11.69-18.78,18.23c-1.49,1.67-3.11,3.24-4.78,4.74c-4.33,3.89-7.96,8.46-12.28,12.36
			c-1.66,1.5-3.24,3.1-4.88,4.62c-3.78,3.51-7.75,6.82-11.24,10.65c-1.06,1.16-2.13,2.37-3.4,3.25c-3.16,2.2-5.69,5.05-8.41,7.71
			c-3.05,2.99-6.09,5.98-9.09,9c-2.21,2.23-4,4.85-6.56,6.75c-1.43,1.07-2.67,2.41-4.12,3.45c-3.32,2.36-6.09,5.26-8.64,8.41
			c-6.1,7.52-12.71,14.52-20.18,20.7c-2.42,2-4.62,4.27-6.84,6.5c-6.18,6.21-12.25,12.53-18.49,18.68
			c-2.57,2.54-4.79,5.35-7.13,8.07c-1.75,2.05-3.42,4.18-5.35,6.05c-4.15,4.03-9.23,5.48-14.88,4.45
			c-7.63-1.39-14.46-4.72-20.78-9.13c-0.91-0.63-1.78-1.41-2.43-2.3c-3.28-4.48-5.15-9.44-4.84-15.08
			c0.39-6.96,2.8-13.14,7.33-18.43c1.6-1.87,3.43-3.56,5.27-5.2c6.41-5.73,11.91-12.21,16.4-19.55c3.51-5.74,7.1-11.44,10.59-17.2
			c1.04-1.72,1.97-3.54,2.79-5.38c5.19-11.7,10.68-23.26,15.55-35.1c3.93-9.54,8.46-18.85,13.13-28.05
			c2.13-4.2,4.11-8.47,6.21-12.68c3.11-6.23,6.3-12.41,9.45-18.62c2.34-4.6,4.69-9.2,7.03-13.81c0.2-0.4,0.31-0.86,0.56-1.22
			c4.09-5.96,6.47-12.79,9.7-19.18c2.03-4.01,4.06-8.01,6.05-12.04c3.19-6.43,6.36-12.87,9.55-19.31c0.8-1.61,1.58-3.23,2.46-4.79
			c4.63-8.23,8.08-17.02,12.18-25.5c1.07-2.21,1.95-4.47,3.32-6.57c1.29-1.98,1.24-4.73,2.88-6.69c1.58-4.69,3.6-9.16,5.98-13.51
			c1.93-3.53,3.08-7.47,4.87-11.09c4.78-9.66,9.69-19.26,14.59-28.86c5.72-11.21,11.08-22.56,14.71-34.67
			c1.61-5.38,3.83-10.53,6.5-15.5c2.96-5.52,5.51-11.26,7.89-17.06c0.94-2.28,1.88-4.57,2.98-6.78c0.99-2,2.28-3.85,2.65-6.15
			c0.13-0.84,0.76-1.6,1.2-2.38c0.22-0.38,0.73-0.7,0.76-1.08c0.24-3.44,2.25-6.25,3.31-9.4c0.64-1.91,1.34-3.8,2.16-5.64
			c1.64-3.69,3.27-7.4,5.12-10.98c1.55-3,2.85-6.08,3.89-9.27c1.19-3.63,3.24-6.87,4.39-10.53c1.42-4.49,3.21-8.86,4.9-13.25
			c0.64-1.67,1.37-3.33,2.23-4.9c2.07-3.75,3.59-7.71,4.92-11.78c2.77-8.54,5.68-17.04,9.77-25.08c1.31-2.59,2.18-5.4,3.19-8.14
			c1.01-2.75,2.17-5.38,4.05-7.7c1.26-1.56,2.32-3.33,3.18-5.14c0.86-1.81,1.75-3.75,1.92-5.7c0.34-3.9,1.82-7.4,3.09-10.98
			c0.68-1.9,1.55-3.73,2.37-5.58c1.74-3.9,3.48-7.79,4.64-11.92c0.3-1.08,0.75-2.12,1.19-3.15c3.22-7.66,6.44-15.31,9.68-22.96
			c2.8-6.61,5.8-13.15,8.42-19.83c4.85-12.36,10.69-24.24,16.78-36.01c3.51-6.78,6.88-13.61,9.67-20.74
			c3.44-8.78,7.42-17.33,10.6-26.22c3.18-8.87,6.49-17.7,9.74-26.55c3.25-8.86,7.18-17.43,10.96-26.07c1.8-4.11,3.54-8.25,5.3-12.38
			c1.32-3.11,2.28-6.33,3.05-9.61c1.53-6.58,4-12.86,6.33-19.18c1.79-4.84,3.68-9.65,5.77-14.36c4.01-9.03,8.29-17.95,12.28-26.99
			c4.44-10.07,8.97-20.09,14.1-29.83c0.62-1.18,0.91-2.54,1.52-3.73c0.9-1.76,0.74-3.39-0.05-5.15c-0.8-1.78-1.83-2.89-3.91-3.19
			c-4.23-0.6-8.45-1.07-12.74-1.1c-7.86-0.07-15.73-0.72-23.57-0.4c-8.3,0.33-16.61-0.05-24.91,0.8c-6.47,0.66-13,0.86-19.52,0.48
			c-2.91-0.17-5.84-0.08-8.75,0.05c-6.06,0.28-12.12,0.37-18.15-0.5c-12.57-0.03-25.14-1.28-37.72,0.17
			c-4.01,0.46-8.07,0.53-12.12,0.54c-13.26,0.02-26.52-0.03-39.77-0.13c-4.72-0.03-9.43-0.3-14.15-0.41
			c-5.38-0.12-10.73-0.34-16.14-0.04c-7.39,0.42-14.83,0.15-22.24,0.03c-13.25-0.21-26.51-0.52-39.76-0.79
			c-1.12-0.02-2.28,0.05-3.35-0.21c-3.77-0.94-7.55-0.98-11.38-0.62c-1.11,0.11-2.25,0.04-3.37-0.03
			c-4.05-0.25-8.08-0.27-12.11,0.26c-2.31,0.31-4.47,0.11-6.32-1.54c-0.32-0.28-0.79-0.41-1.22-0.55c-1.83-0.61-3.76-0.61-4.97,0.93
			c-1.89,2.39-4.3,3.06-7.11,3.1c-5.17,0.07-10.36,0.24-15.48-0.6c-6.03-0.99-12.09-0.83-18.14-0.68
			c-5.38,0.13-10.75,0.63-16.13,0.91c-2.47,0.13-4.94,0.05-7.41,0.15c-4.04,0.16-8.08,0.4-12.11,0.59
			c-6.06,0.29-12.12,0.74-18.18,0.79c-5.16,0.04-10.33,0.09-15.46,0.58c-6.95,0.66-13.91,0.75-20.87,0.93
			c-3.14,0.08-6.29,0-9.36,0.91c-0.85,0.25-1.77,0.32-2.67,0.36c-6.52,0.3-12.93,1.37-19.36,2.38c-1.54,0.24-3.14,0.31-4.7,0.2
			c-1.08-0.08-2.28-0.36-3.16-0.95c-2.62-1.78-4.83-3.98-5.47-7.29c-0.34-1.76-0.8-3.51-1.04-5.28c-0.25-1.85,0.15-3.63,1.6-4.94
			c2.72-2.45,4.68-5.37,6.14-8.73c0.8-1.83,2.14-3.42,3.19-5.15c1.14-1.86,2.88-2.85,4.93-3.2c1.76-0.31,3.57-0.4,5.36-0.42
			c6.29-0.07,12.58-0.07,18.88-0.08c3.14,0,6.31,0.18,9.27-1.2c4.68-0.53,9.35-1.15,14.04-1.56c2.91-0.25,5.84-0.16,8.7-0.86
			c0.65-0.16,1.33-0.22,2-0.27c6.48-0.51,12.97-1.01,19.45-1.52c7.61-0.59,15.22-1.07,22.76-2.37c1.54-0.27,3.14-0.18,4.71-0.26
			c4.26-0.22,8.52-0.45,12.78-0.68c4.71-0.25,9.41-0.49,14.12-0.75c3.14-0.18,6.28-0.4,9.42-0.59c4.48-0.26,8.97-0.49,13.45-0.76
			c2.47-0.14,4.96-0.14,7.39-0.53c4.01-0.65,8.04-0.77,12.09-0.86c4.71-0.1,9.44-0.21,14.13-0.64c6.51-0.59,13.01-0.62,19.53-0.64
			c4.04-0.01,8.09-0.08,12.13-0.14c1.12-0.02,2.27,0.03,3.36-0.2c4.87-1.03,9.83-1,14.76-1.23c8.08-0.38,16.15-0.81,24.24-1.11
			c6.73-0.26,13.47-0.44,20.21-0.51c4.26-0.05,8.53,0.2,12.79,0.27c1.57,0.02,3.17,0.08,4.71-0.17c6.05-1,12.11-0.75,18.15-0.2
			c6.28,0.58,12.56,0.45,18.85,0.47c5.62,0.02,11.22,0.21,16.83,0.63c5.37,0.41,10.79,0.28,16.15,0.79
			c5.36,0.51,10.72,1.08,16.09,1.59c14.78,1.38,29.61,1.52,44.4,2.46c2.24,0.14,4.47,0.41,6.71,0.58c3.13,0.25,6.27,0.47,9.41,0.69
			c4.48,0.31,8.96,0.61,13.44,0.92c0.9,0.06,1.79,0.18,2.69,0.23c6.06,0.28,12.12,0.44,18.17,0.85c9.2,0.63,18.41,0.44,27.61,0.68
			c4.49,0.12,8.97,0.18,13.4,1.12c2.61,0.56,5.32,0.29,7.96,1.18c4.59,1.55,8.58,3.8,11.65,7.63c1.12,1.39,2.51,2.55,3.81,3.79
			c3.24,3.1,5.1,6.8,4.96,11.36c-0.07,2.24-0.15,4.49-0.26,6.73c-0.05,1.13-0.27,2.21-0.86,3.22c-0.32,0.55-0.74,1.3-0.6,1.82
			c0.78,2.82-0.44,5.29-1.17,7.86c-1.85,6.5-4.5,12.65-7.73,18.59c-2.57,4.73-4.86,9.62-7.09,14.52c-1.21,2.65-2.09,5.45-3.03,8.21
			c-1.66,4.89-3.49,9.71-6.19,14.15c-0.46,0.75-0.84,1.63-0.94,2.49c-0.24,2.06-1.01,3.9-1.94,5.71c-2.36,4.6-3.58,9.64-5.56,14.38
			c-0.26,0.62-0.28,1.37-0.64,1.9c-2.79,4.13-3.83,9.09-6.34,13.36c-0.79,1.34-1.5,2.79-1.93,4.28c-0.76,2.6-1.6,5.12-3.17,7.36
			c-0.38,0.54-0.64,1.21-0.76,1.86c-1.01,5.15-3.79,9.55-6.05,14.16c-0.3,0.6-0.74,1.17-0.88,1.8c-1.11,5.09-3.73,9.61-5.49,14.44
			c-1,2.74-2.86,5.01-3.55,7.94c-0.66,2.8-2.07,5.44-3.24,8.11c-1.17,2.67-2.35,5.35-3.67,7.95c-2.55,5.01-4.79,10.13-6.39,15.52
			c-0.26,0.86-0.56,1.72-0.98,2.51c-4.46,8.32-7.41,17.27-10.94,25.98c-1.76,4.35-3.46,8.73-5.2,13.08
			c-0.73,1.83-1.34,3.81-2.83,5.31c-0.44,0.45-0.87,1.14-0.89,1.73c-0.09,2.6-1.65,4.58-2.52,6.85c-1.06,2.74-2.06,5.41-3.94,7.7
			c-0.39,0.48-0.59,1.24-0.59,1.87c0.01,1.44-0.73,2.59-1.32,3.77c-0.71,1.4-1.32,2.76-1.68,4.33c-0.44,1.94-1.45,3.75-2.24,5.6
			c-1.76,4.11-4.12,7.93-5.48,12.27c-1.34,4.26-3.41,8.28-5.14,12.41c-1.03,2.46-2.23,4.85-2.96,7.44c-0.73,2.59-1.7,5.11-2.61,7.64
			c-0.91,2.53-1.88,5.05-2.8,7.58c-1.99,5.49-3.96,10.98-5.95,16.47c-0.38,1.05-0.78,2.11-1.28,3.11
			c-4.16,8.22-7.17,16.94-11.05,25.28c-1.5,3.23-2.49,6.73-3.49,10.17c-1.01,3.46-2.11,6.85-3.96,9.97
			c-0.23,0.38-0.54,0.76-0.63,1.18c-0.9,4.21-3.11,7.94-4.37,11.99c-1.53,4.94-4.27,9.4-5.52,14.43c-0.05,0.22-0.1,0.46-0.24,0.63
			c-2.46,3.03-3.74,6.57-4.49,10.35c-0.08,0.4-0.47,0.75-0.78,1.08c-0.62,0.67-1.3,1.38-1.18,2.32c0.36,2.93-1.2,5.19-2.53,7.51
			c-3.38,5.88-4.22,7.88-6.25,14.74c-0.5,1.71-1.33,3.33-2.07,4.96c-1.48,3.25-3.51,6.23-4.54,9.72c-0.44,1.47-1.55,2.72-2.22,4.14
			c-1.24,2.61-3.08,4.97-3.42,7.99c-0.07,0.63-0.44,1.26-0.8,1.8c-1.74,2.63-2.96,5.48-3.88,8.47c-0.26,0.86-0.47,1.75-0.84,2.55
			c-2.55,5.48-5.17,10.93-7.7,16.42c-0.83,1.81-1.35,3.76-2.15,5.59c-0.81,1.85-1.84,3.59-2.68,5.43c-1.11,2.42-1.45,5.18-3.54,7.16
			c-0.57,0.54-0.53,1.68-0.86,2.51c-1.61,3.91-2.39,8.18-5.45,11.44c-0.87,0.93-1.59,2.35-1.67,3.6c-0.17,2.4-1.5,4.19-2.5,6.17
			c-1,1.99-2.42,3.72-3.02,5.97c-0.33,1.22-1.43,2.24-2.16,3.36c-0.36,0.55-0.88,1.11-0.97,1.72c-0.54,3.66-2.59,6.67-4.23,9.83
			c-4.34,8.36-8.33,16.88-12.38,25.38c-0.87,1.82-1.62,3.66-3.25,5.04c-0.59,0.5-0.72,1.58-0.98,2.41c-0.46,1.49-0.69,3.08-1.32,4.5
			c-1.35,3.04-3.32,5.73-4.26,9.06c-0.9,3.18-2.72,6.12-4.27,9.1c-1.76,3.38-3.76,6.64-5.5,10.04c-4.19,8.18-8.34,16.39-12.37,24.65
			c-1.26,2.59-2.92,4.94-3.84,7.77c-0.88,2.74-2.58,5.21-3.93,7.8c-1.25,2.38-2.44,4.77-3.94,7.03c-1.46,2.21-2.2,4.85-3.69,7.13
			c-1.71,2.61-3.02,5.5-4.35,8.34c-1.52,3.27-3.01,6.52-5.4,9.28c-0.29,0.33-0.55,0.73-0.69,1.15c-1.54,4.74-4.54,8.74-6.72,13.15
			c-1.29,2.6-2.91,5.04-4.41,7.53c-2.42,4.03-5.02,7.97-7.25,12.11c-1.37,2.53-2.25,5.34-2.65,8.25c-0.06,0.45,1.01,1.35,1.42,1.16
			c1.21-0.57,2.51-1.02,3.57-1.8c1.98-1.47,3.93-3.02,5.69-4.74c3.54-3.44,6.96-7.02,10.41-10.55c3.77-3.85,7.4-7.85,11.32-11.54
			c6.87-6.47,13.92-12.74,20.87-19.13c3.3-3.04,6.65-6.02,10.12-8.87c4.17-3.42,8.04-7.17,11.74-11.11
			c6.17-6.56,13.08-12.31,19.92-18.15c14-11.97,27.96-23.98,41.96-35.95c2.05-1.75,4.24-3.33,6.3-5.06
			c7.4-6.2,14.83-12.38,22.15-18.67c4.77-4.1,9.78-7.89,14.79-11.69c7.5-5.68,14.88-11.53,21.92-17.81
			c5.02-4.48,10.2-8.78,15.55-12.9c7.83-6.02,15.41-12.38,23.09-18.58c6.64-5.36,13.25-10.75,19.94-16.05
			c4.05-3.21,8.27-6.19,12.31-9.41c7.2-5.74,14.33-11.57,21.49-17.37c1.4-1.13,2.83-2.22,4.2-3.38c5.65-4.79,11.43-9.45,16.89-14.46
			c5.64-5.17,11.68-9.84,17.55-14.73c3.45-2.87,7.06-5.56,10.54-8.38c6.46-5.23,12.86-10.52,19.32-15.74c2.27-1.83,4.66-3.52,7-5.26
			c5.76-4.3,11.43-8.71,16.85-13.44c4.91-4.28,10.09-8.22,15.27-12.17c10.18-7.76,20.12-15.84,30.3-23.59
			c9.46-7.21,19.12-14.17,28.68-21.26c3.06-2.27,6.02-4.7,9.12-6.92c7.66-5.49,14.88-11.6,23.14-16.25
			c2.15-1.21,4.16-2.67,6.22-4.03c10.86-7.19,21.72-14.38,32.59-21.57c5.8-3.84,11.54-7.78,17.44-11.46
			c5.71-3.56,11.58-6.87,17.4-10.26c17.46-10.17,34.93-20.33,52.39-30.5c8.15-4.74,16.19-9.67,24.47-14.18
			c9.08-4.94,18-10.13,26.9-15.38c1.93-1.14,3.99-2.06,5.97-3.1c2.38-1.25,4.79-2.47,7.12-3.83c1.55-0.9,3.01-1.97,3.98-3.99
			c-0.34-1.95-1.19-3.96-2.35-5.89c-4.4-7.31-8.95-14.54-13.08-22c-3.04-5.5-6.52-10.73-9.34-16.38c-2.6-5.2-5.95-10.03-8.92-15.05
			c-2.75-4.64-5.42-9.32-8.15-13.96c-2.61-4.46-5.23-8.91-7.88-13.35c-2.07-3.47-4.26-6.87-6.27-10.37
			c-5.59-9.74-11.37-19.36-16.7-29.26c-2.44-4.53-5.52-8.73-8.3-13.08c-3.75-5.87-7.48-11.75-11.25-17.6
			c-2.8-4.34-5.8-8.55-8.44-12.99c-4.6-7.71-9.09-15.49-13.03-23.58c-1.67-3.43-3.5-6.78-5.37-10.11c-1.73-3.08-2.26-6.3-1.68-9.75
			c0.18-1.11,0.33-2.23,0.59-3.31c0.67-2.74,0.33-5.35-0.89-7.86c-0.78-1.61-1.41-3.29-2.74-4.6c-1.21-1.18-1.5-2.75-1.38-4.36
			c0.44-5.85,2.89-10.78,6.97-14.92c0.62-0.63,1.4-1.26,2.21-1.48c4.33-1.17,8.42-3.07,12.88-3.85c3.62-0.63,7.15-0.77,10.64,0.48
			c4.06,1.46,8.35,1.71,12.55,2.41c10.24,1.71,20.54,2.12,30.89,1.34c0.9-0.07,1.8-0.14,2.69-0.12c9.45,0.23,18.85-0.8,28.28-0.96
			c1.79-0.03,3.58-0.35,5.36-0.51c1.57-0.15,3.15-0.49,4.7-0.36c5.4,0.46,10.76-0.27,16.15-0.27c7.18,0,14.37-0.61,21.55-0.6
			c3.81,0.01,7.59-0.2,11.38-0.44c3.58-0.22,7.18-0.15,10.78-0.22c0.9-0.02,1.81-0.02,2.68-0.21c4.44-0.98,8.94-0.76,13.43-0.76
			c1.57,0,3.14-0.05,4.71-0.09c2.7-0.07,5.39-0.24,8.08-0.23c6.49,0.01,12.97,0.51,19.49-0.03c6.26-0.51,12.58-0.25,18.87-0.29
			c6.52-0.03,13.03-0.01,19.55-0.02c6.52,0,13.03,0,19.55,0c6.29,0,12.58,0,18.88,0c6.52,0,13.03-0.03,19.55,0.01
			c22.24,0.14,44.49,0.31,66.74,0.46c5.61,0.04,11.22,0.67,16.84,0.27c0.67-0.05,1.38-0.07,2.01,0.11c3.74,1.09,7.59,0.7,11.39,0.82
			c3.36,0.1,6.71-0.1,10.04,0.81c1.69,0.46,3.57,0.27,5.36,0.33c5.61,0.19,11.22,0.29,16.82,0.97c2.89,0.35,5.83,0.21,8.75,0.33
			c9.65,0.38,19.31,0.76,28.96,1.17c7.41,0.31,14.82,0.51,22.19,1.44c2,0.25,4.04,0.2,6.06,0.21c8.99,0.07,17.96,0.05,26.93,0.91
			c4.89,0.46,9.86,0.04,14.79,0.09c6.74,0.07,13.48,0.28,20.22,0.3c3.59,0.01,6.6,1.13,8.92,3.91c1.44,1.72,3.04,3.34,4.22,5.22
			c2.04,3.26,1.7,6.44-1.25,9.12c-1.68,1.53-2.38,3.17-2.43,5.26c-0.02,0.89,0.14,1.79,0.16,2.69c0.08,3.47-2.16,6.01-5.57,6.29
			c-2.71,0.22-5.43,0.1-8.03-0.63c-2.87-0.79-5.73-0.87-8.67-0.86c-4.49,0.02-8.98-0.22-13.47-0.31c-2.92-0.06-5.83-0.06-8.75-0.07
			c-7.41-0.01-14.81,0.1-22.22-0.03c-10.56-0.18-21.12-0.37-31.66-0.85c-11.22-0.51-22.45-0.34-33.67-0.39
			c-1.12,0-2.25-0.02-3.37-0.04c-4.48-0.08-8.9-1.03-13.42-0.83c-4.26,0.19-8.54,0.14-12.8,0.04c-6.06-0.13-12.13-0.26-18.17-0.67
			c-3.56-0.24-7.14-0.8-10.61-1.62c-2.24-0.53-4.39-0.61-6.65-0.48c-5.38,0.33-10.77,0.76-16.15,0.69
			c-6.05-0.07-12.1-0.63-18.15-1.02c-1.34-0.09-2.71-0.23-3.98-0.63c-1.99-0.63-4.01-0.63-6.01-0.41c-2.93,0.33-5.83,0.24-8.74-0.05
			c-0.89-0.09-1.79-0.14-2.69-0.12c-6.73,0.16-13.46,0.33-20.2,0.52c-4.03,0.12-8.07,0.39-12.05-0.34c-2.85-0.52-5.88,0.54-8.62-1
			c-0.31-0.17-0.9,0.01-1.3,0.18c-1.73,0.74-3.54,0.68-5.31,0.39c-2.9-0.46-5.8-0.34-8.71-0.37c-2.69-0.03-5.37-0.27-8.06-0.39
			c-2.01-0.09-4.03-0.24-6.04-0.18c-3.13,0.1-6.28,0.72-9.37,0.46c-2.96-0.25-5.79,0.09-8.69,0.33c-2.66,0.22-5.38-0.1-8.05-0.38
			c-1.36-0.14-2.62-0.21-3.98,0.09c-1.05,0.23-2.2-0.03-3.31-0.07c-0.89-0.03-1.81-0.22-2.65-0.05c-5.32,1.07-10.68,1.04-16.08,0.93
			c-8.98-0.19-17.97-0.11-26.96-0.13c-2.92-0.01-5.82,0.06-8.67-0.87c-1.24-0.41-2.66-0.41-3.99-0.4
			c-9.43,0.04-18.87-0.22-28.29,0.42c-0.67,0.05-1.37,0.15-2.02,0.04c-6.29-1.07-12.54,0.22-18.81,0.35
			c-2.69,0.06-5.38,0.44-8.07-0.09c-0.44-0.09-0.89-0.18-1.33-0.15c-5.14,0.43-10.31,0.73-15.42,1.39
			c-3.36,0.43-6.69,0.62-10.07,0.61c-6.96-0.02-13.92,0.12-20.84,1.03c-2,0.26-4.03,0.24-6.05,0.34c-0.9,0.04-1.81-0.08-2.69,0.07
			c-4.26,0.76-5.64,2.84-4.18,6.58c1.88,4.8,4.02,9.5,6.56,14.02c6.06,10.76,11.92,21.64,17.98,32.4
			c2.97,5.27,6.25,10.38,9.36,15.57c4.49,7.52,8.94,15.07,13.45,22.58c1.62,2.7,3.32,5.34,5.04,7.98c3.43,5.27,6.76,10.6,9.82,16.1
			c2.51,4.51,5.45,8.78,8.07,13.22c5.71,9.66,11.34,19.37,17.03,29.05c5.92,10.07,11.81,20.15,17.84,30.15
			c1.73,2.87,3.81,5.55,5.89,8.2c2.14,2.72,3.73,3.11,7.11,1.86c3.58-1.31,7.13-2.71,10.66-4.16c2.7-1.11,5.32-2.39,8.01-3.53
			c3.31-1.4,6.6-2.83,9.71-4.66c1.54-0.91,3.2-1.63,4.85-2.33c10.52-4.48,20.96-9.21,31.62-13.33c10.24-3.96,20.57-7.74,31.22-10.56
			c3.23-0.85,6.34-2.14,9.56-3.11c5.15-1.56,10.3-3.1,15.55-4.32c7.2-1.68,14.26-3.91,21.53-5.24c3.53-0.65,7.06-1.25,10.6-1.86
			c6.86-1.18,13.72-2.32,20.57-3.53c9.77-1.72,19.6-2.59,29.51-2.34c4.04,0.1,8.07,0.37,12.08-0.52c1.07-0.24,2.24-0.14,3.36-0.08
			c13.02,0.61,26.03,1.29,39.05,1.86c5.86,0.26,11.59,1.38,17.35,2.26c4.88,0.75,9.71,1.77,14.64,2.2c2.23,0.2,4.46,0.61,6.64,1.14
			c6.32,1.55,12.62,3.15,18.9,4.84c4.75,1.28,16.67,6.21,21.18,8.56c2.19,1.14,4.46,2.11,6.59,3.35c1.93,1.12,3.81,2.38,5.53,3.8
			c4.01,3.31,7.4,7.22,10.2,11.6c1.84,2.88,4.07,5.17,6.96,7.14c5,3.41,9.66,7.35,13.51,12.09c1.12,1.38,2.19,2.86,3,4.44
			c0.92,1.78,1.34,3.83,2.32,5.57c0.88,1.55,1.86,2.98,2.43,4.73c0.9,2.78,2.42,5.32,4.27,7.58c2.06,2.51,3.1,5.44,3.89,8.47
			c0.91,3.47,1.65,6.99,2.34,10.51c0.3,1.53,0.35,3.12,0.39,4.69c0.13,4.72,0.31,9.43,0.25,14.15c-0.05,4.25-0.38,8.5-0.64,12.75
			c-0.04,0.65-0.28,1.33-0.55,1.93c-0.67,1.48-0.8,3.01-0.69,4.6c0.17,2.28-0.43,4.46-0.95,6.65c-0.27,1.11-0.79,2.05-1.5,2.96
			c-0.82,1.04-1.47,2.23-2.11,3.4c-1.39,2.55-3.4,4.09-6.39,4.27c-1.56,0.09-3.11,0.41-4.67,0.55c-2.18,0.2-4.61-1.31-5.36-3.33
			c-0.31-0.84-0.46-1.73-0.7-2.59c-0.49-1.72-0.88-3.49-1.55-5.15c-0.58-1.44-1.89-2.66-2.16-4.12c-0.66-3.52-1.05-7.11-1.26-10.68
			c-0.21-3.59-0.33-7.17-0.82-10.74c-0.36-2.65-0.27-5.38-0.25-8.07c0.04-6.53-0.31-13.03-1.79-19.41c-0.66-2.83-1.58-5.6-2.44-8.38
			c-0.61-1.96-1.77-3.6-3.16-5.11c-1.71-1.86-3.61-3.18-6.16-3.84c-6.95-1.79-13.86-3.64-20.93-4.98
			c-5.51-1.04-11.01-1.88-16.59-2.28c-2.24-0.16-4.52-0.27-6.67-0.83c-3.51-0.92-7.08-1.17-10.64-1.59
			c-5.58-0.65-11.13-1.49-16.73-1.95c-4.46-0.37-8.97-0.33-13.45-0.4c-4.03-0.06-8.08,0.41-12.09-0.45
			c-0.43-0.09-0.9-0.17-1.31-0.08c-4.66,1.06-9.41,0.45-14.1,0.81c-1.34,0.1-2.68,0.24-4.01,0.38c-2.23,0.23-4.46,0.65-6.69,0.68
			c-6.54,0.1-12.98,0.99-19.38,2.18c-5.29,0.98-10.7,1.33-15.85,3.03c-8.97,0.76-17.54,3.85-26.5,4.66
			c-0.66,0.06-1.32,0.27-1.96,0.45c-6.46,1.82-12.92,3.66-19.38,5.48c-0.86,0.24-1.77,0.66-2.61,0.58c-3.33-0.31-6.1,1.19-8.93,2.54
			c-4.48,2.13-9.08,3.78-14.12,3.99c-1.3,0.05-2.8,0.36-3.81,1.09c-2.45,1.75-5.27,2.35-8.02,3.23c-2.98,0.96-6.03,1.77-8.92,2.94
			c-2.08,0.84-4.09,1.79-6.24,2.48c-2.11,0.67-4.16,1.67-6.1,2.77c-2.16,1.22-4.21,2.51-6.81,2.69c-1.06,0.07-2.1,0.76-3.11,1.23
			c-5.47,2.57-10.89,5.24-16.69,7.03c-0.21,0.07-0.41,0.18-0.6,0.3c-6.51,4.08-13.98,6.06-20.84,9.37
			c-2.22,1.07-4.49,2.07-6.66,3.23c-2.17,1.16-2.95,3.45-2.03,5.76c0.49,1.24,1.13,2.44,1.82,3.58c3.73,6.14,7.49,12.26,11.26,18.38
			c4.6,7.46,9.23,14.89,13.81,22.36c3.17,5.16,6.29,10.36,9.43,15.54c0.47,0.77,0.87,1.58,1.39,2.31
			c8.5,11.87,15.62,24.6,23.3,36.98c4.85,7.82,9.78,15.58,14.78,23.31c1.7,2.64,3.97,4.93,5.5,7.65c3.86,6.85,9.39,12.6,12.8,19.72
			c8,10.56,15,21.83,22.93,32.45c4.02,5.4,7.63,11.11,11.44,16.66c2.03,2.96,4.09,5.91,6.19,8.82c3.03,4.2,5.55,8.7,7.91,13.3
			c0.71,1.39,1.27,2.82,2.29,4.06c0.99,1.2,1.78,2.59,2.6,3.92c3.17,5.17,6.47,10.23,10.14,15.08c3.52,4.65,6.62,9.61,9.89,14.45
			c4.27,6.31,8.32,12.76,12.28,19.28c0.7,1.15,1.48,2.25,2.28,3.34c2.78,3.8,5.88,7.4,8.3,11.42c3.26,5.39,7.2,10.28,10.56,15.59
			c3.24,5.12,6.7,10.1,10.03,15.16c5.42,8.25,10.8,16.53,16.22,24.78c1.11,1.69,2.31,3.32,3.47,4.98
			c5.54,7.89,10.49,16.15,15.42,24.43c4.83,8.09,8.96,16.61,14.51,24.27c0.79,1.09,1.38,2.31,2.08,3.46
			c3.5,5.75,6.92,11.54,10.89,17c2.63,3.62,5.08,7.42,7.28,11.32c4.51,8.02,9.53,15.75,13.58,24.02c0.59,1.21,1.2,2.41,1.78,3.62
			c1.48,3.09,1.16,6.09-0.44,9.04c-0.67,1.22-1.57,2.16-2.89,2.69c-1.04,0.42-2.03,0.98-3.08,1.34c-1.17,0.41-1.9,1.11-2.14,2.33
			c-0.04,0.22-0.08,0.5-0.23,0.63c-3.67,3.23-6.78,7.18-11.94,8.4c-1.96,0.46-3.49,0.43-4.91-1.03c-0.3-0.31-0.73-0.58-1.14-0.66
			c-0.4-0.08-1-0.04-1.27,0.21c-1.3,1.22-2.49,2.56-3.78,3.8c-2.99,2.88-6.5,3.91-10.52,2.68c-5.39-1.66-9.72-4.79-12.1-9.99
			c-3.94-8.61-9.26-16.43-13.78-24.71c-5.06-9.27-10.77-18.13-16.87-26.75c-1.02-1.45-1.79-3.09-2.56-4.7
			c-0.53-1.11,0.04-2.72,1.1-3.61c0.84-0.7,1.7-1.37,2.52-2.09c0.1-0.09-0.01-0.43-0.03-0.77c-2.23,0.09-4.47,0.21-6.71,0.25
			c-1.76,0.03-3.64-1.43-3.78-3.21c-0.12-1.52,0.18-3.08,0.33-4.62c0.01-0.14,0.34-0.24,0.48-0.39c1.45-1.65,1.45-1.65-0.01-3.67
			l-0.17,0.14c0.21-0.39,0.56-0.77,0.57-1.16c0.01-0.33-0.49-0.99-0.59-0.95c-1.04,0.33-2.07,0.71-3.05,1.19
			c-2.23,1.09-3.55,1.54-4.99-2.16c-0.42-1.07-0.91-2.06-0.59-3.2c0.43-1.49,0.03-2.65-1.27-3.46c-0.96-0.6-1.83-1.23-2.29-2.35
			c-0.69-1.71-1.87-2.99-3.44-4.02c-1.52-1-1.49-2.65-1.23-4.25c0.23-1.41,1.58-2.17,2.99-1.66c0.59,0.21,1.08,0.75,1.77,0.44
			c0.16-0.07,0.36-0.35,0.34-0.51c-0.22-1.63-2.57-1.83-2.49-3.68c-0.41,0-0.9-0.15-1.21,0.02c-0.78,0.43-1.43,1.08-2.22,1.49
			c-0.59,0.31-1.31,0.39-1.81-0.25c-0.55-0.7-1.39-1.38-1.5-2.16c-0.25-1.82-1.32-2.74-2.84-3.38c-1.03-0.44-2.06-0.88-3.07-1.35
			c-0.54-0.25-0.71-1.3-0.31-1.71c1.57-1.58,3.19-3.13,4.71-4.76c0.96-1.03,0.4-2.74-1-3.22c-0.42-0.15-0.88-0.15-1.31-0.26
			c-1.84-0.47-2.17-0.93-1.92-2.75c0.06-0.44,0.18-0.87,0.21-1.31c0.08-1.14-0.36-1.4-1.59-1.02c-0.43,0.13-0.86,0.25-1.28,0.4
			C1944.09,1403.23,1944.16,1403.42,1944.16,1403.42z M2026.92,931.77l-0.33,0.09l0.51,0.01l-0.12,0.24
			C2026.98,932.11,2026.92,931.76,2026.92,931.77z M1179.79,1392.4c0.93-1.09,2.45-1.61,2.99-3.08c1.09-0.21,2.24-0.24,3.14-1.04
			c3.52-3.13,7.07-6.22,10.55-9.4c1.11-1.01,1.29-2.3,0.35-3.61c-0.13-0.18-0.22-0.4-0.27-0.61c-0.05-0.21-0.06-0.44,0-0.64
			c0.11-0.37,0.51-0.44,0.96-0.06c0.97,0.81,2,0.89,3.13,0.45c2.09-0.81,4.22-1.57,5.23-3.85c4.01-3.6,8.06-7.14,12.8-9.76
			c1.79-0.99,3.39-2.16,4.92-3.49c2.87-2.49,5.64-5.14,8.73-7.35c3.07-2.19,5.3-5.48,8.99-6.85c0.58-0.22,1-0.88,1.49-1.33
			c1.31-1.22,2.87-2.26,3.88-3.69c1.17-1.66,3.09-1.69,4.52-2.74c4.72-3.48,8.6-7.79,12.44-12.15c0.93-1.05,1.13-2.4,0.57-3.8
			c-0.14-0.36-0.02-0.82-0.02-1.5c1.21-0.71,2.59-1.44,3.88-2.31c0.72-0.48,1.48-1.08,1.87-1.82c0.59-1.12,1.41-1.81,2.58-1.82
			c3.51-0.03,6.43-1.8,9.54-3.04c2.63-2.84,6.05-4.59,9.18-6.76c0.98-0.68,1.29-1.75,0.89-2.98c-0.13-0.4-0.02-0.87-0.02-1.56
			c1.11-0.52,2.3-1.08,3.51-1.63c0.88-0.4,1.42-1.09,1.6-2.02c0.37-1.93,1.45-2.65,3.35-2.12c0.92,0.26,1.73-0.08,2.6-0.35
			c2.86-0.9,5.18-2.67,7.35-4.62c3.17-2.84,6.23-5.8,9.36-8.68c2.13-1.96,4.2-4.01,6.47-5.79c3.34-2.62,6.67-5.31,10.71-6.87
			c0.41-0.16,0.82-0.38,1.18-0.64c1.19-0.85,1.69-2.04,1.64-3.48c-0.02-0.75-0.35-1.22-1.12-1.36c-0.44-0.08-0.87-0.22-1.28-0.39
			c-0.63-0.27-0.85-1.36-0.31-1.57c3.21-1.21,5.35-3.99,8.25-5.61c1.32-0.74,1.37-2.36,2.54-2.99c1.16-0.63,2.52-0.87,3.71-1.46
			c0.79-0.39,1.51-1,2.1-1.66c1.28-1.43,1.73-3.06,0.74-4.9c-0.96,0.53-1.19,1.83-2.51,1.97c-1.33,0.14-2.63,0.55-3.93,0.9
			c-1.11,0.3-2.02,0.84-2.62,1.92c-0.82,1.48-2.25,2.13-3.84,2.48c-1.79,0.39-3.74,0.98-4.66,2.45c-1.49,2.36-4.51,3.02-5.65,5.65
			c-0.24,0.54-0.95,1.09-1.53,1.22c-1.69,0.36-2.5,1.8-3.76,2.67c-1.53,1.06-2.34,2.85-3.78,3.74c-1.6,0.99-2.47,2.44-3.69,3.67
			c-1.86,1.88-3.29,4.33-6.07,5.16c-0.4,0.12-0.85,0.43-1.06,0.78c-1.5,2.47-3.88,3.64-6.44,4.6c-0.61,0.23-1.32,0.61-1.64,1.13
			c-1.52,2.49-4.03,3.44-6.53,4.47c-0.61,0.25-1.26,0.62-1.67,1.12c-2.29,2.82-5.46,4.64-8.06,7.07c-3.14,2.93-6.36,5.65-10.29,7.44
			c-1.07,0.49-1.88,1.34-2.12,2.47c-0.36,1.72-1.48,2.73-2.92,3.43c-1.61,0.78-3.26,1.46-4.62,2.71c-1.63,1.5-3.57,2.56-5,4.43
			c-1.31,1.7-3.49,2.73-5.29,4.07c-0.72,0.53-1.47,1.05-1.61,2.04c-0.17,1.2-0.71,2.16-1.93,2.48c-2.04,0.54-3.54,1.96-5.05,3.23
			c-1.75,1.47-3.54,2.7-5.72,3.4c-0.61,0.2-1.42,0.53-1.63,1.03c-1.13,2.66-3.38,4.02-5.76,5.25c-1.44,0.74-2.64,1.61-3.02,3.35
			c-0.13,0.59-0.68,1.13-1.15,1.58c-1.3,1.23-2.72,2.28-4.28,3.21c-2.67,1.59-5.44,3.13-7.11,5.99c-0.4,0.68-1.42,1.02-2.18,1.47
			c-1.27,0.75-1.83,1.87-1.78,3.32l0.12-0.08c-0.47,0.48-1.11,0.88-1.37,1.45c-0.91,2.04-2.42,3.05-4.61,3.32
			c-1.61,0.2-3.17,1.1-3.85,2.4c-1.3,2.47-3.57,3.91-5.3,5.9c-1.6,1.84-3.26,3.64-4.94,5.41c-0.65,0.68-0.84,1.47-1.08,2.35
			c-0.93,3.38-2.98,5.92-6.16,7.48c-1.38,0.68-2.78,1.33-4.43,2.11c0.37,2.08-1.1,3.73-1.07,5.74c-0.39-0.1-0.8-0.31-1.18-0.29
			c-1.29,0.08-1.79,0.6-1.85,1.9c-0.02,0.4,0.11,0.81,0.19,1.18c-0.53,0.02-0.58-0.06-0.14-0.22
			C1179.88,1392.15,1179.83,1392.28,1179.79,1392.4z M1818.99,989.27c0.39,0.47,0.34,0.6-0.15,0.38c0.14-0.11,0.28-0.22,0.42-0.33
			c0.04,1.32-0.49,2.73,0.55,3.91l-0.49-0.17l0.42,0.23c0.88-1.35,0.92-1.71,0.18-2.52
			C1819.51,990.32,1818.93,989.99,1818.99,989.27z M1511.73,1153.33c1.73-0.92,3.47-1.81,5.17-2.78c0.24-0.14,0.26-0.7,0.31-1.08
			c0.01-0.05-0.37-0.22-0.58-0.23c-1.64-0.14-2.97,0.78-4.29,1.49c-1.08,0.58-1.21,1.71-0.49,2.77c-0.5-0.33-1.02-0.75-1.03,0.35
			C1511.12,1153.67,1511.43,1153.5,1511.73,1153.33z M1345.79,1274.61c-2.12-0.36-4.07-0.01-5.18,1.97
			c-0.69,1.22-1.57,2.12-2.62,2.95c-0.86,0.68-1.66,1.44-2.45,2.14c1.13,2.21,1.74,2.44,2.8,1.1c0.84-1.05,1.54-2.13,2.98-2.48
			c2.11-0.51,3.27-2.25,4.42-3.88c0.29-0.42-0.03-1.27-0.07-1.92c0.88-0.61,1.77-1.21,2.63-1.85c0.07-0.05,0.06-0.4-0.03-0.47
			c-0.16-0.13-0.4-0.21-0.61-0.21c-1.32,0.02-1.62,0.2-1.89,1.34C1345.66,1273.72,1345.77,1274.18,1345.79,1274.61z
			 M1369.53,1233.37c0.95-0.92,2.01-1.75,2.83-2.78c0.78-0.99,2.19-0.62,2.85-1.48c0.66-0.86,0.97-1.98,1.52-2.93
			c0.42-0.73,1.2-1.3,0.99-2.28c-0.04-0.19-0.39-0.5-0.41-0.48c-1.99,1.35-4.19,2.3-6.33,3.37c-0.7,0.35-1.32,1.28-1.56,2.08
			c-0.45,1.46-0.82,3.02,0.12,4.49c-0.99-0.15-1.98-0.31-2.97-0.44c-0.06-0.01-0.22,0.26-0.22,0.4c0,0.15,0.15,0.43,0.21,0.42
			C1367.56,1233.63,1368.55,1233.5,1369.53,1233.37z M1500.82,1159.93c-2.32-0.67-4.37-0.35-6.05,1.54
			c-0.73,0.83-1.51,1.63-2.34,2.37c-0.96,0.84-2.44,1.01-3.06,2.29c0.06,1.02,0.72,1.59,1.47,2.11c0.96,0.67,1.91,0.5,1.99-0.53
			c0.11-1.48,0.59-2.51,2.03-3.06c1.66-0.63,3.33-1.25,4.93-2.02c1.18-0.57,1.33-1.65,0.92-2.83c0.66,0.08,1.3,0.05,0.47-0.71
			C1500.96,1158.92,1500.58,1159.48,1500.82,1159.93z M1921.69,927.27c-0.11-0.11-0.23-0.23-0.34-0.34c0.11-0.09,0.3-0.27,0.31-0.26
			c0.32,0.33,0.24,0.52-0.22,0.55c-0.2-0.73,0.16-1.25,0.59-1.78c0.41-0.51,0.84-1.06,1.06-1.66c0.11-0.31-0.17-0.79-0.35-1.16
			c-0.08-0.17-0.35-0.34-0.53-0.34c-0.44,0.01-0.9,0.07-1.32,0.2c-2.77,0.85-5.51,1.9-8.49,0.99c-1.97,0.33-3.94,0.62-5.9,1.03
			c-0.25,0.05-0.43,0.69-0.54,1.08c-0.04,0.16,0.15,0.42,0.3,0.58c0.14,0.15,0.37,0.29,0.56,0.3c2.12,0.1,3.73,1.37,5.46,2.37
			c0.78,0.45,1.07,0.22,1.64-1.22c0.08-0.2,0.06-0.47,0.2-0.61c0.3-0.3,0.62-0.64,1-0.76c0.49-0.16,0.79,0.18,0.98,0.69
			c0.3,0.83,0.65,1.65,1.03,2.45c0.32,0.66,0.9,0.99,1.62,0.75c0.4-0.14,0.78-0.42,1.08-0.73c0.58-0.61,0.12-1.19-0.16-1.76
			c-0.09-0.2-0.13-0.42-0.2-0.62C1920.74,926.66,1920.74,926.66,1921.69,927.27z M1889.87,985.35c0.89-0.02,1.81,0.1,2.65-0.1
			c1.3-0.31,2.52-0.98,3.83-1.23c2.18-0.42,4.67,0.04,6.44-1.55c1.95-1.74,4.39-0.26,6.41-1.42c1.11-0.64,2.68-0.48,3.8-1.12
			c2.25-1.3,4.64-1.53,7.13-1.65c2.01-0.1,4.02-0.36,5.96-0.54c1.34-1.16,2.62-2.26,3.94-3.41c-0.53-0.13-0.98-0.4-1.36-0.32
			c-4.82,1.05-9.76,1.37-14.59,2.31c-3.93-0.36-7.53,1.11-11.09,2.32c-3.02,1.03-6,1.76-9.16,1.88c-0.9,0.03-1.79,0.07-2.69,0.15
			c-1.04,0.09-1.88,1.08-2.02,2.34c-0.11,0.95,0.23,1.75,0.79,2.38c-1.43-0.61-2.86-1.22-4.02-1.71c-1.82,0.4-3.36,0.7-4.86,1.1
			c-0.63,0.17-1.22,0.53-1.8,0.84c-0.75,0.39-0.8,1.53-0.13,2.77C1882.75,987.67,1886.34,986.62,1889.87,985.35z M1669.25,1024.03
			c-0.47-0.08-0.53-0.25-0.18-0.5c0.01,0.14,0.03,0.28,0.04,0.41c-0.42,1.49-0.84,2.99-1.26,4.49c-1.63,0.48-3.11,0.91-4.58,1.37
			c-1.48,0.46-2.96,0.94-4.46,1.43c-0.69,2.04-1.27,3.98-2.04,5.83c-0.21,0.49-1,0.93-1.58,1.04c-1.31,0.24-2.64,0.32-3.94-0.31
			c-0.86-0.41-1.85-0.16-2.48,0.52c-1.73,1.85-3.73,3.13-6.21,3.77c-1.54,0.39-2.68,1.52-3.9,2.53c-1.34,1.11-2.69,2.46-4.7,2.33
			c-3.49,1.44-7.1,2.63-9.84,5.46c-0.86,0.89-1.13,1.79-1.07,2.99c0.03,0.55-0.37,1.42-0.83,1.65c-1.77,0.92-3.97,0.43-5.72,1.66
			c-0.45,0.31-1.3,0.02-1.96,0.07c-1.13,0.08-1.57,0.36-1.71,1.6c-0.22,1.94-1.02,3.39-2.67,4.42c-0.93,0.58-1.79,1.27-2.6,1.85
			c-0.87-0.27-1.51-0.46-2.15-0.67c-2.71-0.88-5.27-0.84-7.66,0.96c-0.69,0.52-1.6,0.75-2.5,1.15c-1.54,3.88-5.17,6.1-7.37,9.47
			c-0.24,0.36-0.62,0.67-1,0.89c-2.51,1.47-5.04,2.91-7.56,4.35c-2.23,0.06-4.46,0.11-6.7,0.18c-0.45,0.01-0.89,0.08-1.34,0.12
			c-1.19,0.1-2.17,0.72-2.89,1.56c-1.02,1.18-1.89,2.5-2.77,3.79c-1.25,1.85-2.42,3.75-3.69,5.59c-0.36,0.52-0.87,1.05-1.43,1.31
			c-3.04,1.4-6.12,2.72-9.18,4.07c-1.42,0.63-2.83,1.28-4.24,1.92c-0.38,1.39-0.73,2.68-1.09,3.97c1.08,1.34,0.65,2.99,0.93,4.5
			c0.14,0.76,0.69,1.18,1.37,1.24c1.11,0.09,2.24,0.08,3.35,0.01c1.19-0.07,2-1.24,1.67-2.37c-0.18-0.64-0.51-1.23-0.81-1.83
			c-0.29-0.6-0.74-1.38-0.08-1.74c0.38-0.21,1.22,0.3,1.8,0.58c0.6,0.29,1.14,0.71,1.66,1.04c7.14-1.46,7.09-1.51,11.83-5.59
			c1.85-1.59,3.89-3.04,6.03-4.21c1.14-0.62,2.57-0.73,3.49-1.83c0.83-0.98,2.26-1.55,2.1-3.22c-0.02-0.19,0.66-0.54,1.06-0.63
			c0.42-0.1,0.89-0.02,1.32,0.07c1.92,0.4,3.54,0.02,4.81-1.58c1.01-1.27,2.48-1.87,3.88-2.6c3.95-2.08,8.1-3.89,11.7-6.47
			c3.69-2.65,7.64-4.71,11.63-6.73c2.21-1.12,4.31-2.31,6.33-3.76c2.17-1.55,4.73-2.56,6.91-4.1c1.84-1.31,3.72-2.48,5.76-3.43
			c1.21-0.57,2.47-1.16,3.49-2.01c3.26-2.72,7.21-4.43,10.4-7.28c1.66-1.48,3.62-2.65,5.48-3.9c0.73-0.49,1.54-1.06,2.37-1.18
			c2.05-0.3,3.88-0.93,5.56-2.2c1.61-1.21,4-0.74,5.5-2.34c3.36-1.23,5.92-3.99,9.41-4.98c3.03-2.25,6.63-3.78,9-6.88
			c0.8-1.05,1.75-1.31,2.93-1.06c1.86,0.4,3.57-0.03,5.18-0.91c3.14-1.7,6.27-3.43,9.37-5.21c0.77-0.44,1.46-1.05,2.08-1.68
			c0.66-0.67,0.93-1.56,0.57-2.47c-0.58-1.44-1.51-2.74-1.5-4.41c0-0.37-0.34-0.9-0.68-1.08c-1.55-0.87-3.12-1.73-4.75-2.43
			c-1.13-0.48-2.77,0.26-3.49,1.41c-0.83,1.33-1.5,2.79-2.48,4c-1.14,1.42-2.68,2.46-4.64,2.02c-3.53-0.79-6.61,0.44-9.54,2.07
			c-1.41,0.79-2.82,1.35-4.4,1.52C1671.45,1023.79,1670.34,1023.91,1669.25,1024.03z M1124.35,1215.34
			c0.03-0.42,0.11-0.85,0.07-1.27c-0.01-0.16-0.32-0.44-0.46-0.42c-0.51,0.08-0.82,0.52-0.57,0.96c0.17,0.31,0.71,0.4,1.08,0.59
			c-1.16,1.02-2.32,2.03-3.48,3.04c-0.04,0.21-0.15,0.44-0.09,0.61c0.42,1.29,0.99,2.48-1.05,3.07c-0.82,0.24-0.92,1.57-0.21,2.27
			c0.66,0.64,1.35,1.06,0.87,2.14c-0.63,1.41-1.18,2.86-1.81,4.42c-1.42,0.56-3.56,0.11-4.44,2.64c0.45,1.59,0.99,3.5,1.45,5.13
			c-0.79,2.66-2.79,4.37-3.44,6.84c-0.28,1.08-1.25,1.85-2.36,2.25c-1.66,0.59-2.64,1.91-2.81,3.48c-0.37,3.43-1.66,6.43-3.52,9.27
			c-0.73,1.11-1.18,2.41-1.79,3.61c-0.48,0.95-2.21,1.11-1.89,2.49c0.33,1.4,0.05,2.68-0.32,3.95c-0.31,1.06-0.77,2.07-1.26,3.07
			c-1.06,2.18-2.51,4.23-3.17,6.52c-0.46,1.6-1.07,2.88-2.17,4.02c-0.94,0.97-1.9,1.91-2.8,2.91c-0.93,1.03-1.41,2.16-1.18,3.67
			c0.3,2.03,0.02,3.97-1.52,5.62c-0.55,0.59-0.74,1.61-0.87,2.46c-0.18,1.19-0.75,2.03-1.61,2.83c-0.43,0.4-0.73,1.13-0.78,1.74
			c-0.21,2.3-1.79,4.06-2.37,6.22c-0.2,0.75-1.05,1.49-1.79,1.88c-1.66,0.89-2.26,2.07-1.62,3.85c-0.55,2.14-0.62,4.58-2.84,5.81
			c-1.98,1.09-2.26,3.28-3.52,4.81c-0.89,1.07-1.35,2.31-1.4,3.71c-0.05,1.4-0.5,2.67-1.39,3.72c-1.21,1.43-1.79,3.15-2.14,4.88
			c-0.46,2.31-1.57,4.25-3.08,5.88c-1.93,2.09-2.5,4.59-2.94,7.23c-0.14,0.86-0.2,1.81-0.61,2.55c-1.7,3.13-2.99,6.48-5.15,9.36
			c-0.66,0.89-1.43,1.92-1.53,2.96c-0.27,2.64-1.88,4.53-3.21,6.57c-1.74,2.67-2.9,5.48-2.97,8.71c-0.01,0.64-0.15,1.54-0.57,1.87
			c-2.22,1.71-2.8,4.55-4.66,6.5c-0.59,0.62-1.19,1.51-1.24,2.31c-0.14,2.26-1.53,3.63-2.99,5.05c-1.93,1.87-3.72,3.82-3.44,6.87
			c0.05,0.55-0.45,1.28-0.89,1.72c-1.2,1.21-1.7,2.55-1.43,4.25c0.15,0.91-0.15,1.75-1.16,2.13c-1.1,0.42-2.01,1.12-2.24,2.31
			c-0.38,2.04-1.15,4.05-2.46,5.47c-1.9,2.05-1.63,4.51-2.15,6.83c-0.33,1.46-0.74,2.69-1.66,4.13c-0.24,0.37-0.51,0.73-0.72,1.12
			c-2.21,4.16-4.43,8.31-6.58,12.5c-0.52,1.01-1.06,1.86-1.96,2.62c-1.73,1.45-2.86,3.51-3.5,5.59c-0.47,1.53-1.19,2.83-1.89,4.22
			c-0.8,1.58-1.39,3.22-2.44,4.73c-1.38,1.98-2.69,4.06-3.83,6.17c-1.81,3.32-2.84,7.04-4.75,10.35c-0.54,3.43-2.62,6.18-4.17,9.14
			c-1.46,2.78-3.11,5.43-3.54,8.65c-0.15,1.12-0.99,1.98-2.21,2.29c-0.21,0.05-0.47,0.14-0.59,0.29c-0.26,0.32-0.56,0.68-0.64,1.07
			c-1.11,5.37-1.21,5.65-3.12,7.74c-0.75,0.82-1.53,1.6-2.37,2.48c0,1.17-0.04,2.29,0.01,3.4c0.07,1.69-0.49,2.93-1.94,4
			c-1.23,0.9-2.1,2.28-3.14,3.45c-0.28,2.53-2.17,4.46-2.68,6.82c-0.59,2.72-1.72,5.08-3.39,7.2c-1.02,1.3-1.72,2.74-1.69,4.3
			c0.02,1.83-0.67,2.94-2.24,3.7c-0.37,0.18-0.81,0.57-0.88,0.92c-0.49,2.73-2.35,4.81-3.4,7.28c-0.55,1.3-0.57,2.61-0.65,3.95
			c-0.03,0.6,0.73,1.21,1.34,1.1c0.44-0.07,0.95-0.02,1.3-0.24c1.51-0.95,3.09-1.83,4.42-3c1.67-1.47,3.11-3.19,4.66-4.8
			c1.14-1.18,1.41-2.77,2.01-4.21c0.17-0.41,0.31-0.93,0.64-1.17c1.59-1.2,2.36-2.6,1.42-4.56c0.44-1.01,0.64-2.29,1.38-2.97
			c1.86-1.68,2.06-4.49,4.26-5.89c0.32-0.2,0.57-0.78,0.56-1.17c-0.08-2.74,2.17-4.28,3.23-6.42c0.39-0.78,1.24-1.38,1.47-2.18
			c0.74-2.66,1.98-4.96,4.09-6.78c0.56-0.49,0.52-1.19,0.29-1.85c-0.32-0.92-0.21-1.76,0.39-2.52c1.12-1.43,2.05-2.91,2.07-4.84
			c0.01-1.04,1.26-1.1,1.79-1.78c-0.43-1.48-1.25-3.09,1.31-3.52c0.35-0.06,0.68-0.55,0.9-0.92c1.37-2.29,2.99-4.43,3.85-7.02
			c0.49-1.47,1.01-3.01,1.9-4.23c0.96-1.32,1.14-2.81,1.68-4.23c0.56-1.47,0.96-3.09,1.89-4.29c1.02-1.32,1.25-2.78,1.74-4.24
			c0.41-1.22,1.04-2.52,2.29-3.22c1.64-0.92,2.74-2.21,3.37-4.02c0.27-0.78,1.01-1.45,1.65-2.03c0.68-0.61,1.22-1.19,1.44-2.15
			c0.19-0.83,0.59-1.71,1.16-2.34c0.9-0.99,0.2-2.18,0.67-3.16c0.28-0.59,0.69-1.15,1.17-1.59c0.64-0.59,1.39-1.06,2.14-1.61
			c0.11-1.13,0.1-2.27,0.36-3.34c0.34-1.46,1.82-1.86,2.85-2.67c0.17-0.14,0.39-0.29,0.46-0.48c0.14-0.4,0.31-0.85,0.24-1.24
			c-0.12-0.65-0.42-1.26-0.76-2.22c3.66-3.75,5.67-8.83,9.19-12.68c-0.05-0.64,0.02-1.12-0.13-1.51c-0.32-0.84-0.84-1.85,0.09-2.38
			c1.73-0.98,1.52-3.19,2.98-4.27c-0.39-2.25,1.67-3.51,2.15-5.4c0.16-0.61-0.15-1.52,0.58-1.75c1.52-0.47,1.42-2.29,2.61-2.92
			c1.87-0.98,0.97-2.78,1.39-4.18c0.18-0.59,0.62-1.2,1.11-1.59c1.37-1.09,1.85-2.43,1.67-4.14c-0.12-1.1-0.02-2.23-0.02-2.99
			c0.45-0.73,0.61-1.18,0.92-1.48c2.89-2.72,4.47-6.08,5.06-9.97c0.17-1.09,0.5-2.16,0.8-3.23c0.25-0.91,0.87-1.54,1.71-1.96
			c0.59-0.29,1.52-0.44,1.72-0.91c0.73-1.7,2.15-2.81,3.2-4.23c1.64-2.21,2.37-4.79,2.11-7.53c-0.11-1.12-0.51-1.8,0.92-2.6
			c1.69-0.94,3-2.61,4.39-4.05c0.44-0.46,0.8-1.16,0.86-1.78c0.13-1.4,0.75-2.55,1.37-3.76c0.4-0.78,0.87-1.72,0.75-2.52
			c-0.42-2.96,1-5.17,2.59-7.38c1.04-1.44,2.35-2.83,2.92-4.46c2.07-5.87,4.72-11.5,7.02-17.27c0.05-2.41,2.65-3.58,2.89-5.96
			c0.05-0.52,0.86-0.94,1.28-1.45c0.26-0.32,0.64-0.73,0.61-1.07c-0.15-1.45,0.62-2.44,1.26-3.63c0.84-1.57,2.46-2.74,2.57-4.66
			c0.11-1.9,0.85-3.41,2.22-4.7c0.22-0.21,0.02-0.85,0.04-1.3c0.03-0.92,0.27-1.71,1.09-2.3c1.91-1.36,3.19-3.06,3.1-5.61
			c-0.03-0.83,0.83-1.71,0.76-2.52c-0.21-2.51,0.95-4.53,2.69-5.8c1.7-1.24,1.93-2.1,0.85-3.75c-0.27-0.42,0.02-1.28,0.2-1.89
			c0.44-1.55,1.33-2.79,2.59-3.82c1.07-0.88,1.7-1.98,1.44-3.53c-0.23-1.39,0.49-2.69,1.31-3.71c1.11-1.38,2.54-2.51,3.77-3.79
			c1.52-1.58,0.42-3.94,1.69-5.69c1.13-1.55,0.7-4,2.77-5.09c0.26-2.06,1.48-3.72,2.44-5.45c1.71-3.1,3.65-6.07,4.05-9.7
			c1.5-1.23,0.48-3.5,1.92-4.73c1.25-1.06,2-2.25,2.19-3.97c0.17-1.52,0.71-3.06,1.38-4.46c0.96-2.02,2.33-3.85,3.24-5.9
			c0.89-2,0.8-4.42,2.72-5.99c0.26-0.21,0.38-0.87,0.27-1.24c-0.49-1.67-0.06-3.09,0.99-4.37c1.61-1.96,2.78-4.04,2.26-6.73
			c-0.07-0.39,0.14-0.91,0.37-1.28c1.56-2.51,1.98-5.4,2.87-8.14c1.03-3.15,3.95-5.43,4.44-8.92c0.05-0.36,0.56-0.69,0.9-0.97
			c1.67-1.39,2.37-3.15,2.44-5.31c0.05-1.55,0.66-3.1-0.35-4.55c0.75-1.86,1.18-3.97,2.36-5.49c1.02-1.3,1.46-2.69,2.1-4.09
			c0.65-1.42,1.63-2.67,2.39-4.04c0.32-0.57,0.59-1.24,0.64-1.89c0.11-1.36,0.24-2.66,1.1-3.81c1.07-1.43,0.03-3.09,0.44-4.58
			c0.23-0.85,0.57-1.69,0.99-2.47c0.51-0.96,1.68-1.67,1.41-2.92c-0.32-1.51,0.86-2.45,1.15-3.71c0.17-0.77-0.97-1.73-1.75-1.47
			c-0.42,0.14-0.93,0.21-1.22,0.49c-2.17,2.08-4.07,4.23-2.26,7.56c0.25,0.47,0.08,1.41-0.25,1.89c-0.76,1.1-1.68,2.11-2.64,3.04
			c-0.63,0.62-1.49,0.99-2.14,1.58c-1.01,0.91,0.06,2.14-0.36,3.15c-0.44,1.03-1.24,1.98-1.38,3.03c-0.32,2.3-2.51,3.76-2.55,6.14
			c-0.01,0.39-0.33,0.88-0.66,1.13c-1.54,1.19-1.14,2.67-0.88,4.25c0.19,1.17-0.48,2.18-1.46,2.85c-0.94,0.64-1.93,1.27-1.99,2.52
			c-0.09,1.77-1.14,2.85-2.41,3.84c-1.29,1-2.25,2.17-2.19,3.95c0.02,0.42-0.13,0.93-0.38,1.25c-1.25,1.6-2.44,3.16-1.88,5.44
			c0.12,0.49-0.41,1.3-0.85,1.75c-1.3,1.33-2.42,2.61-1.79,4.72c0.16,0.55-0.17,1.36-0.5,1.91c-1.04,1.72-2.26,3.3-2.56,5.4
			c-0.07,0.49-0.86,1.16-1.4,1.25c-2.05,0.32-2.51,1.55-2.26,3.34c0.03,0.22,0.01,0.47,0.1,0.66
			C1127.21,1213.04,1125.73,1214.17,1124.35,1215.34z M1849.23,1213.4c0.89,0.16,1.77,0.25,2.61,0.48c1.25,0.35,1.95,1.41,1.73,2.48
			c-0.05,0.22-0.1,0.44-0.2,0.64c-0.9,1.77-0.81,3.38,0.44,5.02c1.08,1.42,1.85,3.08,2.9,4.52c1.19,1.62,2.54,3.06,2.91,5.21
			c0.31,1.79,2.45,2.54,2.9,4.44c0.32,1.33,1.37,2.41,2.58,2.98c1.81,0.85,2.67,2.21,3.15,4.05c0.31,1.19,1.29,1.8,2.53,1.83
			c1.42,0.04,2.68,0.3,3.27,1.82c1.19,0.46,2.38,0.93,3.58,1.39c-0.02,0.45,0.01,0.9-0.08,1.33c-0.3,1.41-0.13,2.66,1.05,3.64
			c0.34,0.28,0.64,0.63,0.94,0.96c0.83,0.9,1.02,1.92,0.73,3.11c-0.21,0.86-0.36,1.76-0.37,2.64c0,0.27,0.53,0.72,0.89,0.8
			c1.14,0.25,1.79,0.76,2.46,1.87c1.72,2.85,3.8,5.48,5.81,8.15c1.2,1.6,2.39,3.27,4.24,4.22c0.31,0.16,0.88,0.09,1.22-0.09
			c1.23-0.65,1.72-1.75,1.09-2.74c-1.34-2.12-2.02-4.49-2.88-6.8c-0.78-2.09-1.59-4.21-2.73-6.11c-0.78-1.3-2.14-2.25-3.22-3.37
			c-0.31-0.32-0.5-0.77-0.85-1.04c-1.15-0.9-1.66-2.08-1.7-3.5c-0.06-1.73-1.06-2.92-2.26-3.97c-0.67-0.58-1.43-1.07-2.2-1.52
			c-0.65-0.38-0.97-0.95-1.01-1.62c-0.05-0.9-0.1-1.71-0.87-2.39c-1.78-1.58-2.39-3.71-2.69-6c-0.17-1.32-0.47-2.64-0.8-3.93
			c-0.22-0.88-0.7-1.63-1.57-2.07c-0.6-0.31-1.13-0.75-1.74-1.02c-1.82-0.77-2.76-2.22-3.23-4.05c-0.17-0.65-0.33-1.31-0.42-1.98
			c-0.24-1.73-1.4-2.8-2.75-3.63c-0.94-0.57-2.07-0.82-3.09-1.29c-1.35-0.62-2.03-1.67-1.96-3.2c0.04-0.88,0.25-1.89-0.08-2.64
			c-0.8-1.82-1.49-3.69-3.05-5.16c-2.94-2.78-5.7-5.88-6.96-9.74c-1.06-3.23-3.34-5.79-4.22-9.06c-0.28-1.02-1.11-1.93-1.81-2.8
			c-1.4-1.75-2.84-3.47-4.35-5.12c-2.16-2.36-3.96-5.02-4.57-8.12c-0.56-2.83-1.95-5.02-3.93-6.87c-1.52-1.42-2.56-3.07-3.58-4.83
			c-2.48-4.26-4.72-8.64-7.62-12.67c-1.67-2.32-3.46-4.74-4.1-7.68c-0.35-1.58-1.36-2.69-2.28-3.97
			c-4.42-6.21-8.79-12.5-11.96-19.46c-1.41-3.1-3.21-5.96-5.29-8.55c-2.13-2.66-3.93-5.47-5.45-8.46c-1.63-3.22-3.62-6.19-5.63-9.15
			c-3.63-5.36-7.79-10.4-9.99-16.61c-0.07-0.21-0.24-0.38-0.35-0.58c-1.44-2.53-3-5.01-4.28-7.62c-1.49-3.04-3.35-5.8-5.42-8.45
			c-1.93-2.47-3.98-4.85-5.48-7.64c-0.52-0.97-1.38-1.76-2.1-2.62c-0.45-0.54-1.33-0.71-1.79-0.33c-1.52,1.25-3.02,2.52-4.63,3.87
			c0.97,1.44,1.94,2.66,2.66,4.01c0.73,1.38,1.2,2.89,1.8,4.33c0.77,1.86,1.38,3.82,2.38,5.55c2.24,3.88,4.7,7.64,7.03,11.47
			c0.93,1.52,1.86,3.06,2.6,4.68c1.49,3.28,3.56,6.16,5.59,9.12c3.42,4.98,7.16,9.75,9.83,15.24c2.15,4.42,4.55,8.73,6.87,13.07
			c1.66,3.12,3.12,6.4,5.37,9.23c2.22,2.8,4.26,5.76,6.18,8.78c2.89,4.53,5.67,9.14,8.38,13.79c1.66,2.85,4.5,5.09,4.58,8.78
			c0.01,0.39,0.35,0.83,0.65,1.15c5.06,5.46,7.75,12.6,12.88,18.02c0.75,0.79,1.23,1.88,1.7,2.89c0.69,1.46,1.73,2.6,2.96,3.6
			c1.22,0.99,2.7,1.8,3.56,3.04c1,1.42,1.45,3.23,2.15,4.87c0.26,0.62,0.6,1.21,0.81,1.84c0.58,1.77,1.51,3.18,3.24,4.09
			c1.73,0.91,2.26,2.64,2.73,4.43c0.38,1.42-0.79,1.91-1.23,2.84c-0.58,1.24,0.38,2.07,1.08,2.92c0.63,0.77,1.41,1.05,2.36,0.56
			c0.39-0.21,0.78-0.46,1.19-0.6c1-0.34,1.7,0.22,1.98,1.2C1850.44,1210.78,1849.63,1211.93,1849.23,1213.4z M1797.94,964.79
			c-2.76,1.25-5.6,2.53-8.45,3.81c-0.89,0.4-1.48,1.15-1.53,2.05c-0.09,1.52-0.81,2.44-2.06,3.2c-1.33,0.82-2.52,2.02-4.26,1.54
			c-2.74-0.75-5.21,1.08-7.94,0.7c-0.72-0.1-1.88,0.52-2.3,1.16c-1.28,1.97-2.97,2.23-5.1,2.01c-1.99-0.2-4.02-0.04-6.51-0.04
			c-0.79,1-1.75,2.21-2.69,3.39c0.12,0.08,0.47,0.53,0.79,0.51c1.33-0.1,2.64-0.36,3.97-0.52c0.14-0.02,0.44,0.21,0.44,0.33
			c0.01,0.4,0.07,0.97-0.16,1.18c-1.36,1.26-2.98,1.86-4.88,1.88c-2.67,0.02-5.42-0.18-7.48,2.15c-0.35,0.39-1.28,0.23-1.91,0.41
			c-2.01,0.59-3.06,1.87-3.15,3.79c-0.02,0.45-0.03,0.9-0.01,1.35c0.07,1.83,0.91,2.81,2.7,3.37c1.13,0.36,2.24,0.29,3.28-0.14
			c1.02-0.42,1.93-1.11,2.95-1.54c0.3-0.13,0.82,0.16,1.19,0.35c0.43,0.23,0.19,1.25-0.43,1.59c-0.77,0.42-1.57,0.78-2.38,1.1
			c-0.82,0.32-1.68,0.55-2.5,0.87c-0.13,0.05-0.16,0.38-0.23,0.58c-0.14,0.46,0.07,0.77,0.62,0.95c1.4,0.47,2.71,0.06,3.84-0.64
			c2.28-1.42,4.5-2.89,7-3.95c1.26-0.53,2.04-1.8,1.33-3.34c-0.22-0.48-0.3-0.86,0.17-1.18c0.73-0.51,2.67-0.52,3.16,0.13
			c0.34,0.45,0.31,1.18,0.48,1.98c2.68-0.58,5.4-0.95,7.54-2.64c2.48-1.95,4.79-4.04,8.19-4.17c0.61-0.02,1.24-0.52,1.78-0.9
			c1.68-1.18,3.56-1.94,5.51-2.41c2.03-0.5,3.85-1.35,5.28-2.79c1.24-1.24,2.6-1.62,4.25-1.56c0.66,0.02,1.35-0.1,1.98-0.3
			c2.76-0.91,5.62-1.61,8.21-2.88c2.99-1.47,6.23-2.54,8.88-4.65c0.48-0.38,1-0.88,0.47-1.67c-0.57-0.85-0.44-1.73,0.3-2.4
			c0.66-0.6,1.47-1.03,2.12-1.64c1.5-1.4,3.26-1.21,5.07-1.04c1.07,0.1,1.27,1.16,1.93,1.57c1.38,0.84,3.18,0.99,4.52,0.23
			c3.39-1.91,7.2-2.38,10.82-3.45c2.31-0.68,4.05-1.76,5.44-3.85c0.8,0.19,1.66,0.35,2.5,0.6c1.24,0.36,2.08-0.78,3.14-0.83
			c3.43-0.18,6.3-2.2,9.58-2.79c1.38-0.25,2.65-0.6,3.57-1.65c1.4-1.59,3.91-1.14,5.2-2.89c1.32-0.26,2.63-0.73,3.95-0.75
			c2.43-0.03,4.38-0.71,5.64-2.92c0.19-0.33,0.8-0.76,1.06-0.67c1.69,0.56,2.37-0.58,3.21-1.65c0.38-0.49,0.97-0.92,1.56-1.14
			c1.66-0.63,3.35-1.5,5.06-1.61c1.8-0.11,3.48-0.49,5.21-0.85c0.98-0.21,2,0.81,3.21,0.34c1.45-0.57,2.98-0.9,4.45-1.42
			c0.62-0.22,1.19-0.63,1.74-1.01c0.11-0.08,0.06-0.43,0.03-0.65c-0.03-0.18-0.13-0.47-0.24-0.49c-0.86-0.18-1.73-0.41-2.6-0.43
			c-2.08-0.05-3.82,1.24-5.76,1.61c-1.94,0.37-4-0.28-5.98,0.48c-3.38,1.29-6.96,1.64-10.52,2.1c-1.77,0.23-3.56,0.44-5.29,0.85
			c-2.85,0.68-5.71,1.14-8.65,1.07c-1.37-0.03-2.53,0.44-3.76,1.13c-2.34,1.3-4.88,2.04-7.62,2.38c-2.42,0.3-4.82,0.67-7.24,0.5
			c-0.09,0.59-0.29,1.04-0.19,1.41c0.38,1.32,1.12,2.41,2.22,3.28c0.68,0.55,1.28,1.21,1.82,1.9c0.65,0.83-0.1,2.32-1.21,2.54
			c-1.13,0.23-1.81-0.01-2.09-1.05c-0.82-3.05-2.8-4.41-5.88-4.34c-1.57,0.04-3.13,0.17-4.5-0.9c-0.29-0.23-0.88-0.28-1.26-0.18
			c-1.72,0.46-3.64,0.67-5.07,1.61c-2.15,1.42-4.32,2.23-6.87,2.3c-0.6,0.02-1.27,0.48-1.75,0.91c-1.26,1.13-2.8,1.31-4.35,1.56
			c-1.01,0.16-1.5,0.89-1.73,1.81c-0.11,0.43-0.09,0.89-0.2,1.32c-0.45,1.74-1.19,2.39-2.72,2.35c-1.57-0.04-3.14-0.27-4.69-0.15
			c-1.52,0.12-3.01,0.76-4.53,0.84c-2.34,0.13-4.09,1.68-6.22,2.26C1799.61,965.65,1798.84,965.25,1797.94,964.79z M1970.76,926.36
			c1.13,0.08,2.23,0.16,3.35,0.22c0.21,0.01,0.45-0.02,0.64-0.1c0.17-0.07,0.41-0.2,0.45-0.35c0.15-0.55-0.13-0.83-0.73-0.83
			c-0.22,0-0.45,0-0.67-0.02c-0.66-0.08-1.28-0.25-1.45-1c-0.11-0.48,0.79-1.29,1.38-1.25c5.79,0.36,11.63-0.06,17.34,1.33
			c2.12-0.32,3.92,0.2,5.54,1.7c0.56,0.51,1.66,0.6,2.51,0.59c3.54-0.01,7.07-0.84,10.64-0.1c0.87,0.18,1.79,0.09,2.68,0.12
			c3.79,0.12,7.6-0.22,11.29,1.17c0.92,0.35,2.19-0.12,3.27-0.35c0.26-0.05,0.61-0.65,0.57-0.95c-0.05-0.36-0.4-0.85-0.73-0.98
			c-2.15-0.81-4.41-0.56-6.64-0.61c-1.11-0.02-2.38,0.18-3.28-0.29c-2.13-1.11-4.43-0.52-6.59-1.06c-2.39-0.6-4.76-1.27-7.28-1.04
			c-0.65,0.06-1.38-0.02-1.99-0.26c-5.6-2.14-11.56-0.57-17.25-1.73c-2.01,0.7-3.93,0.31-5.91-0.29c-1.25-0.38-2.66-0.35-3.99-0.33
			c-2.24,0.04-4.51,0-6.7,0.38c-2.52,0.43-4.79-0.78-7.28-0.63c-5.14,0.31-10.31,0.23-15.46,0.36c-3.35,0.09-6.7-0.14-9.99,0.99
			c-1.43,0.49-3.11,0.22-4.67,0.33c-0.64,0.05-1.28,0.16-1.89,0.32c-0.15,0.04-0.29,0.37-0.29,0.57c-0.01,0.15,0.18,0.36,0.33,0.46
			c0.84,0.57,1.71,0.25,2.55,0.01c1.79-0.51,3.46-0.65,5.04,0.71c0.64,0.55,1.71,0.57,2.42,1.08c1.46,1.04,2.85,1.16,4.34,0.16
			c2.87,0.29,5.68-1.24,8.57-0.23c1.18,0.41,2.18-0.07,3.07-0.84c1.13-0.99,2.35-1.22,3.67-0.38c0.82,0.52,1.69,0.52,2.57,0.22
			c2.18-0.75,4.41-0.7,6.65-0.48c1.17,0.12,2.11,0.72,2.83,1.64C1970.02,925.18,1970.35,925.75,1970.76,926.36z M1809.11,948.4
			c-1.68,2.24-3.09,4.25-4.63,6.14c-0.86,1.05-1.81,1.77-3.4,0.81c-1.42-0.86-3.14-0.7-4.27,0.7c-1.09,1.36-2.42,1.86-4.06,1.94
			c-0.43,0.02-0.92,0.14-1.24,0.39c-0.3,0.24-0.45,0.71-0.6,1.1c-0.03,0.08,0.19,0.38,0.31,0.39c2,0.2,4,0.54,5.99,0.48
			c1.27-0.04,2.51-0.74,3.78-1.07c0.61-0.16,1.42,0.05,1.88-0.27c3.26-2.32,7.02-3.94,9.71-7.06c1.2-1.4,2.75-2.07,4.73-2.03
			c1.52,0.03,3.2-0.23,4.56-0.88c3.85-1.86,7.95-2.74,12.07-3.63c0.72-0.16,1.22-0.9,0.94-1.44c-0.19-0.37-0.46-0.91-0.78-0.97
			c-2.79-0.52-5.53-1.2-8.38,0.19c-1.77,0.86-3.86,1.06-5.8,1.57c-1.09,0.29-2.17,0.67-2.85,1.63c-0.85,1.21-2,1.68-3.43,1.72
			C1812.31,948.13,1810.97,948.27,1809.11,948.4z M1851.15,938.6c-2.29,0.21-4.29,0.38-6.28,0.6c-0.12,0.01-0.35,0.39-0.3,0.49
			c0.16,0.32,0.45,0.85,0.63,0.83c3.74-0.51,7.49-0.97,11.01-2.52c0.97-0.43,2.13-0.46,3.2-0.64c0.13-0.02,0.38,0.19,0.43,0.34
			c0.06,0.2,0.07,0.54-0.05,0.65c-0.45,0.4-1.2,0.82-0.78,1.4c0.49,0.67,2.63,0.14,2.82-0.69c0.67-2.86,2.79-4.07,5.33-4.17
			c2.22-0.09,3.83-0.9,5.29-2.39c0.15-0.15,0.39-0.21,0.55-0.3c2.72-0.1,5.4-0.18,8.08-0.29c0.89-0.04,1.98,0.19,2.61-0.25
			c1.67-1.14,3.41-0.77,5.19-0.82c0.81-0.02,1.66-0.53,2.4-0.97c0.85-0.51,0.95-1.53,0.28-2.26c-0.44-0.49-0.98-0.9-1.49-1.36
			c-2.48,0.23-4.99,0.17-7.34,0.75c-2.58,0.63-5.07,1.74-7.51,2.84c-1.27,0.57-2.51,0.86-3.88,0.83c-1.12-0.02-2.24,0.04-3.36,0.01
			c-2.11-0.07-3.98,0.32-5.37,2.16c-0.35,0.46-1.12,0.78-1.74,0.85C1856.94,934.08,1853.74,936.01,1851.15,938.6z M1832.8,1004.9
			c1.09-0.24,2.37-0.18,3.2-0.76c2.93-2.08,6.59-2.55,9.56-4.62c1.37-0.95,3.48-0.76,5.06-1.52c2.23-1.07,4.34-2.25,6.95-1.88
			c0.39,0.06,0.97-0.13,1.23-0.42c1.42-1.63,3.76-1.4,5.32-2.7c1.27-1.06,2.74-1.35,4.33-1.54c2.43-0.29,4.91-0.39,7.13-1.66
			c0.95-0.55,1.42-1.72,0.97-2.87c-0.16-0.41-0.37-0.82-0.64-1.17c-0.41-0.53-0.87-0.93-1.67-0.73c-1.85,0.46-2.87,2.05-4.32,3.05
			c-1.71,1.19-4.03,0.02-5.77,1.31c-1.48,1.09-3.2,1.5-4.98,1.83c-3.76,0.68-7.23,2.19-10.52,4.11c-0.96,0.56-1.84,1.19-3.01,1.34
			c-3.36,0.46-6.28,2.19-9.33,3.49c-1.82,0.78-3.56,1.72-5.3,2.67c-0.16,0.09-0.17,0.96,0.04,1.14
			C1831.5,1004.39,1832.15,1004.59,1832.8,1004.9z M1447.99,1202.18c-0.34-0.24-0.66-0.62-1.04-0.71c-1.38-0.33-2.67-0.05-3.78,0.85
			c-2.76,2.24-5.7,4.2-7.9,7.14c-1.45,1.94-3.57,3.33-6.37,2.99c-1.44-0.17-2.66,0.55-3.3,1.85c-0.94,1.91-2.29,3.22-4.32,3.95
			c-0.57,0.2-1.35,0.86-1.37,1.33c-0.07,1.75-1.85,2.44-2.21,3.95c-0.05,0.21-0.07,0.56,0.04,0.64c0.34,0.23,0.79,0.56,1.13,0.49
			c0.62-0.12,1.53-0.33,1.74-0.78c0.81-1.76,2.18-2.74,3.88-3.48c2.06-0.89,4.05-1.94,5.52-3.69c2.92-3.47,6.4-6.08,10.79-7.43
			c1.05-0.32,2.05-0.89,2.99-1.47c1.73-1.07,3.27-2.36,4.04-4.32C1448.01,1203.09,1447.95,1202.62,1447.99,1202.18z M1925.87,928.58
			c0.46,1.76,0.49,1.8-0.83,2.59c-0.76,0.45-1.78,0.75-1.76,1.76c0.05,1.83-1.28,2.36-2.53,2.57c-2.18,0.36-4.39,0.76-6.65,0.51
			c-1.44-0.16-2.54,0.65-3.5,1.65c-0.38,0.4-0.21,1.49,0.28,1.77c1.25,0.72,2.57,0.91,3.7-0.06c0.68-0.58,1.32-1.57,2.17-1.22
			c1.89,0.77,3.45,0.09,5.13-0.57c0.56-0.22,1.53-0.34,1.88-0.02c1.76,1.59,3.33,0.18,4.96-0.13c2.4-0.46,4.76-1.09,7.26-1.09
			c2.22,0,4.44-0.32,6.65-0.53c0.08-0.01,0.19-0.36,0.19-0.54c0-0.17-0.1-0.43-0.24-0.49c-0.79-0.38-1.6-1.02-2.4-1.01
			c-2.44,0.02-4.88,0.28-7.31,0.48c-3.07,0.25-3.37,0.03-3.96-2.98c-0.17-0.87-0.32-1.75-0.59-2.6c-0.13-0.4-0.46-0.78-0.79-1.05
			c-0.31-0.26-0.74-0.39-1.14-0.54C1925.74,926.84,1925.56,927.34,1925.87,928.58z M1703.94,965.81c0.07,0.39,0.11,2.01,0.69,3.42
			c1.01,2.48,2.25,4.88,3.58,7.2c1.22,2.13,2.67,4.12,4.05,6.16c0.45,0.67,1.89,0.95,2.42,0.46c0.67-0.61,1.22-1.3,0.99-2.28
			c-0.15-0.65-0.34-1.31-0.6-1.93c-2.25-5.39-5.5-10.21-8.65-15.08c-0.19-0.3-0.76-0.39-1.17-0.49
			C1704.82,963.17,1703.99,964.09,1703.94,965.81z M1657.83,1024.09c0.19,0.08,0.41,0.28,0.55,0.23c2.73-0.87,5.41-1.93,8.19-2.59
			c1.88-0.45,3.08-1.68,4.31-2.89c0.75-0.74,0.98-2.01,1.74-2.73c0.77-0.72,2.01-0.93,2.84-1.61c0.63-0.52,0.97-1.43,1.36-2.2
			c0.23-0.46-0.04-0.99-0.57-0.97c-1.54,0.06-3.06,0.2-4.32,1.36c-1.13,1.04-2.35,2.04-3.67,2.81c-2.48,1.44-5.04,2.75-7.61,4.01
			c-1.76,0.86-2.51,2.38-3.08,4.08C1657.53,1023.71,1657.74,1023.92,1657.83,1024.09z M1471.02,1185.05
			c0.07-0.54-0.59-1.07-1.29-0.99c-2.07,0.24-3.72,1.29-5.28,2.57c-1.36,1.12-2.78,2.18-4.16,3.28c-1.04,0.83-2.15,1.59-3.07,2.54
			c-1.69,1.73-3.22,3.61-5.3,4.93c-0.34,0.22-0.62,0.68-0.73,1.09c-0.1,0.36-0.04,0.92,0.19,1.18c0.22,0.25,0.88,0.43,1.11,0.29
			c0.91-0.57,1.63-1.59,2.59-1.9c2.87-0.92,5.01-2.75,6.92-4.94c0.44-0.5,0.86-1.37,1.35-1.41c2.72-0.24,3.44-3.33,5.89-3.95
			C1470.4,1187.44,1470.94,1186.39,1471.02,1185.05z M1802.11,1017.8c2.09-0.78,4.17-1.55,6.25-2.32c1.03-0.38,2.19-0.58,3.08-1.17
			c2.29-1.53,4.77-2.3,7.48-2.57c0.98-0.1,1.34-0.72,1.29-1.9c-0.02-0.44,0.07-1.01-0.16-1.29c-0.39-0.45-0.98-0.9-1.53-0.98
			c-0.61-0.09-1.35,0.11-1.9,0.43c-2.96,1.69-6.2,2.34-9.18,2.51c-1.9,1.45-3.49,2.66-5.08,3.86
			C1800.92,1015.45,1801.36,1016.64,1802.11,1017.8z M1725.61,1001.42c-0.43,3.47,0.21,5.49,2.19,6.99
			c0.17,0.13,0.29,0.34,0.41,0.52c0.92,1.44,2.21,1.25,3.53,0.8c2.46-0.83,2.89-2.27,1.08-3.82c-1.69-1.45-3.53-2.71-4.75-4.65
			c-0.34-0.54-0.88-0.95-1.38-1.37c-0.11-0.09-0.57,0.01-0.62,0.12C1725.77,1000.82,1725.54,1001.64,1725.61,1001.42z
			 M1621.97,1094.65c1.88-1.09,3.88-1.95,6.06-2.39c1.02-0.21,1.95-0.96,2.87-1.54c0.6-0.38,0.77-1.63,0.43-2.44
			c-0.32-0.79-1.42-1.37-2.15-1.03c-2.57,1.17-5.47,1.68-7.5,3.93C1620.77,1092.18,1620.66,1092.6,1621.97,1094.65z M1903.16,925.83
			c-0.71-0.48-1.26-1.17-1.77-1.14c-1.76,0.1-3.51,0.44-5.27,0.72c-0.62,0.1-0.94,1.04-0.36,1.6c1.17,1.11,1.24,2.1,0.36,3.41
			c-0.38,0.57,0.26,1.35,0.84,1.45c1.74,0.32,2.92-0.93,4.35-1.45c1.16-0.42-0.01-1.54,0.52-2.25
			C1902.34,927.49,1902.69,926.68,1903.16,925.83z M1949.27,935.16c1.8-0.11,2.89-0.14,3.98-0.26c0.41-0.05,0.8-0.33,1.21-0.47
			c0.54-0.19,0.72-0.55,0.41-1.04c-0.22-0.35-0.51-0.88-0.81-0.91c-2.19-0.2-4.37-0.12-6.39,0.92c-0.19,0.1-0.41,0.22-0.51,0.4
			c-0.09,0.16-0.08,0.42-0.03,0.61c0.05,0.18,0.19,0.45,0.32,0.48C1948.28,935.05,1949.12,935.14,1949.27,935.16z M1778.01,1011.65
			c2.43,0.24,3.19-0.48,3.16-3.01c0-0.22,0.05-0.52-0.07-0.66c-0.27-0.3-0.66-0.77-0.94-0.73c-1.1,0.16-2.19,0.43-3.24,0.77
			c-0.72,0.23-1.11,1.36-0.97,2.28c0.12,0.83,0.79,0.98,1.41,1.21C1777.56,1011.59,1777.79,1011.61,1778.01,1011.65z
			 M1939.86,973.96c1.46-0.16,3.22-0.31,4.97-0.58c0.21-0.03,0.37-0.69,0.46-1.07c0.03-0.13-0.21-0.35-0.36-0.49
			c-0.72-0.68-1.79-0.89-2.46-0.47c-1.87,1.15-3.8,1.11-5.82,0.91c-0.42-0.04-0.88,0.11-1.29,0.25c-0.17,0.06-0.4,0.4-0.36,0.52
			c0.12,0.33,0.35,0.87,0.57,0.89C1936.89,974,1938.22,973.96,1939.86,973.96z M1973.14,934.98c1.49-0.09,3.04-0.18,4.17-1.33
			c0.37-0.38,0.48-1.13,0.49-1.72c0.01-0.51-1.05-1.13-1.48-0.95c-1.37,0.57-2.76,1.13-4.08,1.8c-0.27,0.14-0.45,0.75-0.41,1.11
			c0.04,0.33,0.4,0.66,0.68,0.93C1972.63,934.94,1972.9,934.92,1973.14,934.98z M1413.23,1197.13c-0.3-0.28-0.78-1.05-1.14-1
			c-1.95,0.29-3.66,1.28-5.22,2.42c-0.33,0.24-0.22,1.2-0.16,1.82c0.04,0.43,0.6,0.53,0.93,0.06c0.95-1.33,2.01-1.43,3.36-0.62
			c0.86,0.52,1.8-0.33,2-1.1C1413.11,1198.29,1413.13,1197.85,1413.23,1197.13z M1963.58,1429.85c-0.3,1.47-0.54,2.52-0.72,3.58
			c-0.12,0.73,0.19,1.3,0.9,1.53c0.62,0.2,1.27,0.3,1.92,0.4c0.76,0.11,1.19-0.5,0.9-1.27
			C1966.04,1432.65,1965.7,1431.11,1963.58,1429.85z M1406.57,1232.33c0.4,0.15,0.61,0.31,0.75,0.26c1.63-0.55,3.26-1.12,4.86-1.75
			c0.07-0.03,0.01-0.72-0.17-0.99c-0.23-0.34-0.59-0.67-0.97-0.8c-1.75-0.61-3.45-0.04-4.5,1.62
			C1406.28,1231.09,1406.55,1231.83,1406.57,1232.33z M1718.05,1057.54c-0.45-0.72-0.8-1.58-1.4-2.18
			c-0.52-0.52-1.23-0.17-1.75,0.31c-0.61,0.56-0.72,1.35-0.15,1.68c0.76,0.43,1.57,0.78,2.4,1.04
			C1717.32,1058.44,1717.67,1057.91,1718.05,1057.54z M2037.45,928.02c-0.53,0-0.78-0.07-0.95,0.02c-0.3,0.16-0.58,0.39-0.8,0.66
			c-0.05,0.06,0.12,0.41,0.27,0.54c1.04,0.87,2.31,1.11,3.61,1.05c0.26-0.01,0.73-0.51,0.71-0.74c-0.03-0.37-0.34-0.89-0.65-1.01
			C2038.85,928.23,2037.98,928.13,2037.45,928.02z M1357.16,1239.07c2.34,0.77,3.85-0.51,5.37-1.66c0.12-0.09-0.09-0.84-0.34-1.1
			c-0.25-0.26-0.8-0.5-1.12-0.4C1359.44,1236.43,1358.24,1237.52,1357.16,1239.07z M1875.31,937.28c1.03-0.15,2.11-0.29,3.2-0.45
			c0.76-0.12,1.33-0.67,1.19-1.25c-0.09-0.39-0.3-0.82-0.58-1.08c-0.52-0.46-1.19-0.66-1.81-0.21c-0.89,0.65-1.74,1.36-2.58,2.07
			c-0.08,0.07-0.06,0.37,0.02,0.49C1874.85,937.01,1875.07,937.11,1875.31,937.28z M1538.33,1110.71c0.19-0.65-0.61-1.78-1.47-1.79
			c-0.56-0.01-1.37,0.28-1.63,0.7c-0.56,0.92,0.33,2.69,1.16,2.61C1537.12,1112.16,1538.13,1111.37,1538.33,1110.71z
			 M1218.55,1010.79c-0.55-0.62-0.92-1.43-1.36-1.47c-1.13-0.1-2.01,0.66-2.58,1.59c-0.14,0.22,0.16,0.8,0.39,1.13
			c0.39,0.57,1.06,0.97,1.66,0.59C1217.33,1012.2,1217.84,1011.49,1218.55,1010.79z M1749.06,978.11c-0.38,0.12-0.85,0.14-1.13,0.37
			c-0.89,0.75-0.92,1.75-0.27,2.79c0.29,0.46,0.64,0.62,1.09,0.31c0.5-0.34,1.06-0.67,1.42-1.14
			C1750.86,979.55,1750.21,978.27,1749.06,978.11z M1826.13,1005.11c-0.66-0.09-1.31-0.28-1.96-0.24c-1.26,0.08-1.84,1.34-1.11,2.45
			c0.18,0.27,0.86,0.51,1.11,0.38C1825.18,1007.19,1826.07,1006.5,1826.13,1005.11z M1651.01,1077.66c0.36-0.2,0.75-0.37,1.07-0.61
			c0.08-0.06,0.03-0.4-0.05-0.57c-0.54-1.13-1.49-1.51-2.65-1.24c-0.55,0.13-0.61,0.55-0.36,0.99
			C1649.46,1077.01,1650.07,1077.55,1651.01,1077.66z M1834.5,983.84c-0.39,0.41-0.85,0.67-0.87,0.97c-0.02,0.34,0.3,0.96,0.57,1.01
			c0.82,0.17,1.69,0.15,2.54,0.15c0.18,0,0.52-0.26,0.51-0.35c-0.06-0.35-0.14-0.87-0.38-0.98
			C1836.09,984.28,1835.25,984.08,1834.5,983.84z M1793.64,1019.49c-0.56,0.2-0.97,0.31-1.33,0.49c-0.15,0.08-0.35,0.39-0.31,0.46
			c0.3,0.54,0.6,1.13,1.04,1.54c0.24,0.22,0.99,0.31,1.14,0.14c0.38-0.44,0.82-1.12,0.72-1.58
			C1794.79,1020.09,1794.03,1019.79,1793.64,1019.49z M1722.81,1055.12c0.15-1-0.4-1.69-1.1-1.6c-0.37,0.05-0.91,0.32-1.01,0.62
			c-0.2,0.6-0.18,1.28-0.19,1.92c0,0.19,0.21,0.52,0.35,0.53c0.37,0.04,0.91,0.09,1.1-0.12
			C1722.39,1056.02,1722.64,1055.4,1722.81,1055.12z M1784.84,965.16c0-1.01,0.1-1.66-0.04-2.25c-0.07-0.29-0.58-0.51-0.93-0.69
			c-0.12-0.06-0.48,0.1-0.52,0.23c-0.11,0.37-0.29,0.89-0.12,1.15C1783.55,964.1,1784.09,964.46,1784.84,965.16z M1589.48,1109.35
			c-0.13-0.15-0.24-0.41-0.38-0.43c-0.93-0.1-2.12,1-1.55,1.36c0.63,0.4,1.02-0.29,1.53-0.47
			C1589.24,1109.76,1589.34,1109.51,1589.48,1109.35z M1993.45,953.3c0-0.29,0.02-0.6,0-0.61c-0.65-0.11-1.3-0.21-1.96-0.26
			c-0.58-0.04-0.96,0.3-0.79,0.79c0.1,0.29,0.63,0.64,0.94,0.61C1992.26,953.78,1992.86,953.49,1993.45,953.3z M1670.04,1065.51
			c-0.42,0.06-0.91,0-1.24,0.2c-0.27,0.17-0.51,0.65-0.49,0.99c0.03,0.55,0.46,0.72,0.98,0.51c0.4-0.16,0.81-0.3,1.18-0.5
			c0.16-0.09,0.38-0.44,0.35-0.48C1670.59,1065.95,1670.3,1065.74,1670.04,1065.51z M1965.62,956.07c-0.1-0.35-0.12-0.53-0.2-0.69
			c-0.24-0.45-0.61-0.55-1.08-0.34c-0.59,0.27-1.11,0.63-1.03,1.35c0.04,0.35,0.32,0.7,0.56,0.99c0.05,0.07,0.43-0.03,0.57-0.15
			C1964.88,956.85,1965.27,956.42,1965.62,956.07z M1983.69,934.02c-0.31-0.27-0.48-0.53-0.63-0.52c-0.58,0.04-1.16,0.14-1.73,0.27
			c-0.1,0.02-0.21,0.43-0.18,0.45c0.33,0.2,0.71,0.53,1.02,0.48C1982.67,934.62,1983.13,934.29,1983.69,934.02z M2047.66,931.48
			c0.15,0.14,0.29,0.33,0.47,0.4c0.66,0.26,1.24,0.09,1.71-0.43c0.04-0.04-0.13-0.4-0.21-0.41c-0.58-0.03-1.16-0.03-1.74,0.01
			C2047.8,931.06,2047.73,931.33,2047.66,931.48z M1825.17,988.31c-0.31,0.26-0.59,0.38-0.61,0.54c-0.08,0.57-0.1,1.16-0.07,1.74
			c0.01,0.14,0.3,0.27,0.46,0.41c0.24-0.31,0.68-0.62,0.68-0.93C1825.62,989.5,1825.35,988.95,1825.17,988.31z M2056.07,934.61
			c-0.13-0.05-0.46,0.11-0.54,0.26c-0.27,0.53-0.05,0.89,0.57,0.83c0.34-0.03,0.65-0.3,0.97-0.46
			C2056.75,935.02,2056.43,934.76,2056.07,934.61z M1805.24,999.47c0.37-0.22,0.74-0.44,1.11-0.66c-0.35-0.23-0.68-0.6-1.06-0.66
			c-0.84-0.13-1.59,0.5-1.19,0.85C1804.4,999.25,1804.86,999.32,1805.24,999.47z M1813.09,960.24c0.36-0.19,0.72-0.38,1.08-0.57
			c-0.29-0.23-0.55-0.6-0.88-0.67c-0.72-0.16-1.51,0.4-1.23,0.75C1812.27,960.02,1812.73,960.09,1813.09,960.24z M1641.96,1080.01
			c0.08-0.07,0.05-0.38-0.04-0.5c-0.3-0.41-1.26-0.43-1.64-0.02c-0.11,0.11-0.16,0.45-0.08,0.53c0.25,0.24,0.58,0.57,0.87,0.57
			C1641.38,1080.58,1641.7,1080.25,1641.96,1080.01z M1775.33,1026.93c0.34,0.53,0.48,0.97,0.77,1.15c0.43,0.27,0.9,0.05,1.01-0.44
			c0.07-0.32-0.11-0.7-0.18-1.06C1776.42,1026.69,1775.92,1026.8,1775.33,1026.93z M1710.33,1060.01c0.16-0.06,0.44-0.1,0.46-0.2
			c0.03-0.17-0.09-0.37-0.14-0.55c-0.18,0.06-0.36,0.12-0.54,0.17C1710.18,1059.62,1710.25,1059.82,1710.33,1060.01z
			 M1672.16,1061.92c-0.17-0.06-0.36-0.2-0.5-0.16c-0.58,0.15-0.61,0.41-0.06,0.65c0.14,0.06,0.36-0.04,0.51-0.12
			C1672.18,1062.25,1672.15,1062.05,1672.16,1061.92z M1984.57,1467.94c-0.17-0.45-0.52-0.63-1.01-0.44
			c-0.19,0.07-0.33,0.26-0.49,0.4c0.27,0.24,0.52,0.59,0.84,0.67C1984.06,1468.6,1984.34,1468.16,1984.57,1467.94z M1659,1073.16
			c-0.04-0.14-0.03-0.36-0.12-0.41c-0.15-0.09-0.41-0.16-0.55-0.09c-0.5,0.25-0.44,0.52,0.15,0.66
			C1658.63,1073.36,1658.82,1073.22,1659,1073.16z M1798.84,1017.99c-0.24-0.29-0.43-0.71-0.74-0.84c-0.39-0.16-0.97,0.93-0.67,1.4
			c0.15,0.24,0.62,0.44,0.91,0.4C1798.84,1018.9,1799,1018.48,1798.84,1017.99z M1577.97,1079.53c-0.16-0.05-0.33-0.14-0.49-0.13
			c-0.06,0-0.12,0.22-0.18,0.34c0.17,0.05,0.33,0.14,0.49,0.13C1577.86,1079.87,1577.91,1079.65,1577.97,1079.53z M1769.61,1011.99
			c0.02,0.17-0.02,0.42,0.08,0.49c0.14,0.1,0.41,0.16,0.56,0.09c0.52-0.25,0.49-0.55-0.1-0.74
			C1770,1011.78,1769.79,1011.93,1769.61,1011.99z M1379.82,1221.09c0.21,0.25,0.4,0.65,0.62,0.67c0.33,0.03,0.69-0.21,1.04-0.34
			c-0.2-0.24-0.37-0.66-0.59-0.68C1380.55,1220.71,1380.2,1220.95,1379.82,1221.09z M1390.03,1215.58
			c-0.54-0.04-0.68,0.15-0.37,0.49c0.05,0.06,0.33-0.08,0.5-0.13C1390.12,1215.83,1390.07,1215.71,1390.03,1215.58z
			 M1399.47,1207.99l0.07-0.4l-0.52,0.14L1399.47,1207.99z M1849.26,978.6c0.38,0.14,0.72,0.31,1.08,0.37
			c0.12,0.02,0.29-0.24,0.44-0.37c-0.26-0.19-0.52-0.52-0.8-0.54C1849.76,978.04,1849.51,978.4,1849.26,978.6z M1853.66,977.12
			l-0.41-0.26l-0.04,0.45L1853.66,977.12z M1540.98,1108.05c-0.14-0.15-0.26-0.42-0.41-0.43c-0.15-0.01-0.31,0.23-0.47,0.36
			c0.14,0.15,0.26,0.42,0.41,0.43C1540.65,1108.43,1540.82,1108.18,1540.98,1108.05z M1601.12,1102.25
			c-0.14,0.12-0.29,0.23-0.43,0.35c0.12,0.14,0.23,0.38,0.36,0.39c0.13,0.01,0.29-0.2,0.43-0.32
			C1601.36,1102.53,1601.24,1102.39,1601.12,1102.25z M1663.62,1066.1c-0.13-0.13-0.25-0.37-0.38-0.37
			c-0.13-0.01-0.27,0.21-0.41,0.34c0.19,0.14,0.38,0.27,0.57,0.41C1663.48,1066.34,1663.55,1066.22,1663.62,1066.1z
			 M1668.62,1062.93c-0.16,0.12-0.31,0.24-0.47,0.36c0.12,0.15,0.23,0.41,0.37,0.43c0.14,0.02,0.31-0.21,0.46-0.33
			C1668.86,1063.24,1668.74,1063.08,1668.62,1062.93z"/>
		<path class="st1" d="M1324.39,585.89c14.15-0.16,28.29-0.39,42.44-0.45c10.33-0.04,20.66,0.11,30.98,0.25
			c4.47,0.06,8.94-0.11,13.42,0.65c3.05,0.52,6.28,0.33,9.39,0.02c6.07-0.6,12.11,0.15,18.17,0.04c4.93-0.09,9.87,0.34,14.8,0.21
			c6.52-0.18,13.03,0.09,19.5,0.58c7.38,0.56,14.76,0.91,22.14,1.3c1.79,0.09,3.57,0.38,5.36,0.48c4.26,0.23,8.51,0.46,12.78,0.57
			c5.39,0.13,10.78,0.1,16.16,0.19c7.63,0.14,15.25,0.33,22.87,0.5c1.35,0.03,2.7,0.02,4.04,0.13c8.06,0.69,16.15,0.43,24.22,0.69
			c10.32,0.33,20.66,0.28,30.97,0.79c9.88,0.49,19.75,0.24,29.62,0.41c7.18,0.12,14.37,0.13,21.55,0.34
			c3.13,0.09,6.27,0.45,9.38,0.88c2.68,0.38,4.39,2.54,4.23,5.22c-0.15,2.46-0.16,5.01-0.86,7.34c-1.11,3.7-1.52,7.47-1.97,11.25
			c-0.08,0.67-0.12,1.34-0.24,2.01c-0.44,2.44-1.93,4.08-4.21,4.82c-2.33,0.76-4.75,1.27-7.16,1.78
			c-7.52,1.59-15.13,1.84-22.78,1.69c-6.95-0.13-13.91-0.09-20.86-0.34c-5.38-0.19-10.75-0.4-16.14-0.35
			c-4.92,0.04-9.84-0.68-14.77-1.02c-4.24-0.29-8.49-0.55-12.74-0.76c-4.03-0.2-8.07-0.45-12.11-0.48
			c-9.88-0.07-19.76,0.07-29.64-0.05c-6.28-0.08-12.56,0.02-18.84,0.11c-4.93,0.07-9.87-0.17-14.81-0.2
			c-2.69-0.02-5.38,0.2-8.06,0.13c-5.38-0.13-10.76-0.4-16.15-0.58c-1.11-0.04-2.23,0.1-3.35,0.11c-1.57,0.02-3.15,0.11-4.71-0.03
			c-13.89-1.22-27.81-1.06-41.73-1.04c-3.37,0.01-6.74,0.1-10.1,0.03c-1.78-0.04-3.65-0.07-5.33-0.58
			c-3.75-1.14-7.53-1.06-11.35-0.84c-8.53,0.48-17.06,0.39-25.59,0.24c-2.94-0.05-5.8-0.34-8.58-1.43
			c-2.09-0.82-4.29-1.16-6.58-1.12c-4.71,0.07-9.42-0.07-14.13-0.05c-7.18,0.03-14.37,0.11-21.55,0.17c-1.8,0.01-3.6,0.09-5.39,0.03
			c-6.29-0.22-12.56-0.08-18.81,0.87c-1.77,0.27-3.59,0.25-5.38,0.24c-8.76-0.07-17.52-0.22-26.27-0.27
			c-7.18-0.04-14.37,0.08-21.55,0.04c-2.76-0.01-5.16,1.48-7.86,1.66c-1.45,1.04-2.88,2.13-4.36,3.12c-1.74,1.16-5.53-0.06-6.4-2.04
			c-0.26-0.6-0.48-1.27-0.54-1.92c-0.56-6.28-0.55-12.55,0.16-18.82c0.38-3.43,1.66-6.44,3.95-9.11c2.36-2.75,4.75-5.35,8.11-6.94
			c1.46-0.69,2.92-1.17,4.51-1.17c2.92-0.01,5.84,0.01,8.76,0.07c9.88,0.2,19.75,0.43,29.63,0.64c2.24,0.05,4.5-0.04,6.73,0.11
			c10.33,0.68,20.65,0.36,30.97-0.14C1320.35,585.8,1322.37,585.89,1324.39,585.89z"/>
		<path class="st1" d="M1656.56,1091.6c0.53,0.76,0.9,1.33,1.3,1.86c0.44,0.58,0.66,1.28,0.23,1.85c-0.81,1.06-1.59,2.27-2.68,2.97
			c-2.62,1.68-5.35,3.21-8.14,4.59c-0.93,0.46-2.16,0.36-3.26,0.39c-0.38,0.01-0.96-0.26-1.09-0.55c-0.13-0.29,0.09-1.03,0.34-1.14
			c1.61-0.66,2.18-2.07,2.74-3.5c2.17-1.1,3.73-3.19,6.27-3.73C1653.82,1094,1655.32,1093.43,1656.56,1091.6z"/>
		<path class="st1" d="M1696.33,1074.65c-0.16,0.39-0.2,0.97-0.49,1.14c-0.94,0.57-1.94,1.04-2.96,1.46
			c-0.89,0.37-2.46,0.02-2.33-0.4c0.25-0.82,0.51-1.79,1.1-2.31c0.8-0.7,1.91-1.08,2.91-1.53
			C1695.18,1072.76,1696.33,1073.87,1696.33,1074.65z"/>
		<path class="st1" d="M1664.82,1084.76c1.69-0.33,3.1-1.71,4.97-1.34c0.19,0.04,0.45,0.14,0.51,0.29c0.07,0.17,0.04,0.48-0.07,0.63
			c-1.06,1.45-2.62,2.2-4.21,2.86c-0.29,0.12-0.96-0.08-1.12-0.34c-0.16-0.26,0-0.84,0.22-1.16c0.31-0.47,0.36-0.8-0.1-1.14
			C1665.01,1084.57,1664.82,1084.76,1664.82,1084.76z"/>
		<path class="st1" d="M1941.62,1405.35c0.5-0.25,1.03-0.46,1.48-0.78c0.42-0.3,0.74-0.73,1.08-1.13c-0.02-0.02-0.09-0.21-0.09-0.24
			c-0.05,0.63-0.06,1.29-0.13,1.94c-0.06,0.66-0.24,1.34-1.06,1.32c-0.72-0.01-1.13-0.49-1.14-1.24
			C1941.76,1405.22,1941.62,1405.35,1941.62,1405.35z"/>
		<polygon class="st1" points="1686.22,1078.01 1686.38,1078.44 1685.96,1078.39 		"/>
		<path class="st1" d="M1941.76,1405.22c-0.59,0.1-0.81-0.08-0.62-0.53c0.02-0.04,0.42-0.01,0.46,0.08
			c0.08,0.16,0.03,0.39,0.03,0.59C1941.62,1405.35,1941.76,1405.22,1941.76,1405.22z"/>
		<path class="st1" d="M1973.66,1449.1c-0.2-0.11,0.33,0.53-0.15,0.14C1973.49,1449.24,1973.66,1449.1,1973.66,1449.1z"/>
		<polygon class="st1" points="1127.79,1209.31 1127.68,1208.96 1128.01,1209.02 		"/>
		<path class="st1" d="M1279.34,1307.54c0.34-0.15,0.66-0.32,1.01-0.41c0.09-0.02,0.36,0.26,0.35,0.4c0,0.15-0.26,0.43-0.35,0.41
			C1280,1307.86,1279.68,1307.68,1279.34,1307.54z"/>
		<path class="st1" d="M1215.58,1353.37c0.06,0.41,0.13,0.82,0.16,1.23c0,0.05-0.33,0.2-0.36,0.16c-0.56-0.59,0.05-0.97,0.29-1.45
			C1215.7,1353.29,1215.58,1353.37,1215.58,1353.37z"/>
		<path class="st1" d="M1862.41,950.6c0.63,0.09,1.06,0.12,1.47,0.23c0.19,0.05,0.48,0.24,0.49,0.39c0.03,0.38,0.07,0.9-0.15,1.13
			c-1.06,1.15-2.32,1.28-3.41,0.45c-0.53-0.4-0.55-1.4-0.01-1.63C1861.37,950.93,1861.98,950.75,1862.41,950.6z"/>
	</g>
</g>
<g id="Livello_1">
</g>
</svg>
